<?xml version="1.0" encoding="utf-8" standalone="no"?>
<!DOCTYPE svg PUBLIC "-//W3C//DTD SVG 1.1//EN"
  "http://www.w3.org/Graphics/SVG/1.1/DTD/svg11.dtd">
<svg xmlns:xlink="http://www.w3.org/1999/xlink" width="402.511563pt" height="382.344117pt" viewBox="0 0 402.511563 382.344117" xmlns="http://www.w3.org/2000/svg" version="1.1">
 <metadata>
  <rdf:RDF xmlns:dc="http://purl.org/dc/elements/1.1/" xmlns:cc="http://creativecommons.org/ns#" xmlns:rdf="http://www.w3.org/1999/02/22-rdf-syntax-ns#">
   <cc:Work>
    <dc:type rdf:resource="http://purl.org/dc/dcmitype/StillImage"/>
    <dc:date>2026-06-27T09:17:41.670960</dc:date>
    <dc:format>image/svg+xml</dc:format>
    <dc:creator>
     <cc:Agent>
      <dc:title>Matplotlib v3.11.0, https://matplotlib.org/</dc:title>
     </cc:Agent>
    </dc:creator>
   </cc:Work>
  </rdf:RDF>
 </metadata>
 <defs>
  <style type="text/css">*{stroke-linejoin: round; stroke-linecap: butt}</style>
 </defs>
 <g id="figure_1">
  <g id="patch_1">
   <path d="M 0 382.344117 
L 402.511563 382.344117 
L 402.511563 0 
L 0 0 
z
" style="fill: #ffffff"/>
  </g>
  <g id="axes_1">
   <g id="patch_2">
    <path d="M 52.56 332.782125 
L 387.36 332.782125 
L 387.36 22.318125 
L 52.56 22.318125 
z
" style="fill: #ffffff"/>
   </g>
   <g id="PathCollection_1">
    <path d="M 55.642727 337.60395 
C 56.92149 337.60395 58.148051 337.095892 59.052273 336.19167 
C 59.956495 335.287448 60.464553 334.060888 60.464553 332.782125 
C 60.464553 331.503362 59.956495 330.276802 59.052273 329.37258 
C 58.148051 328.468358 56.92149 327.9603 55.642727 327.9603 
C 54.363964 327.9603 53.137404 328.468358 52.233182 329.37258 
C 51.32896 330.276802 50.820902 331.503362 50.820902 332.782125 
C 50.820902 334.060888 51.32896 335.287448 52.233182 336.19167 
C 53.137404 337.095892 54.363964 337.60395 55.642727 337.60395 
z
" clip-path="url(#p06d7ac4dc4)" style="fill: #395d9c; fill-opacity: 0.2"/>
    <path d="M 61.64219 328.065886 
C 62.920953 328.065886 64.147513 327.557828 65.051735 326.653606 
C 65.955957 325.749384 66.464015 324.522824 66.464015 323.24406 
C 66.464015 321.965297 65.955957 320.738737 65.051735 319.834515 
C 64.147513 318.930293 62.920953 318.422235 61.64219 318.422235 
C 60.363427 318.422235 59.136867 318.930293 58.232644 319.834515 
C 57.328422 320.738737 56.820365 321.965297 56.820365 323.24406 
C 56.820365 324.522824 57.328422 325.749384 58.232644 326.653606 
C 59.136867 327.557828 60.363427 328.065886 61.64219 328.065886 
z
" clip-path="url(#p06d7ac4dc4)" style="fill: #395d9c; fill-opacity: 0.2"/>
    <path d="M 68.960858 318.294478 
C 70.232727 318.294478 71.452675 317.789159 72.352023 316.889812 
C 73.25137 315.990464 73.756689 314.770516 73.756689 313.498647 
C 73.756689 312.226777 73.25137 311.006829 72.352023 310.107482 
C 71.452675 309.208134 70.232727 308.702815 68.960858 308.702815 
C 67.688988 308.702815 66.46904 309.208134 65.569693 310.107482 
C 64.670345 311.006829 64.165026 312.226777 64.165026 313.498647 
C 64.165026 314.770516 64.670345 315.990464 65.569693 316.889812 
C 66.46904 317.789159 67.688988 318.294478 68.960858 318.294478 
z
" clip-path="url(#p06d7ac4dc4)" style="fill: #395d9c; fill-opacity: 0.2"/>
    <path d="M 76.704261 323.296854 
C 77.983024 323.296854 79.209584 322.788796 80.113806 321.884574 
C 81.018028 320.980352 81.526086 319.753791 81.526086 318.475028 
C 81.526086 317.196265 81.018028 315.969705 80.113806 315.065483 
C 79.209584 314.161261 77.983024 313.653203 76.704261 313.653203 
C 75.425498 313.653203 74.198937 314.161261 73.294715 315.065483 
C 72.390493 315.969705 71.882435 317.196265 71.882435 318.475028 
C 71.882435 319.753791 72.390493 320.980352 73.294715 321.884574 
C 74.198937 322.788796 75.425498 323.296854 76.704261 323.296854 
z
" clip-path="url(#p06d7ac4dc4)" style="fill: #395d9c; fill-opacity: 0.2"/>
    <path d="M 85.924779 303.83187 
C 87.196648 303.83187 88.416596 303.326551 89.315944 302.427203 
C 90.215291 301.527856 90.72061 300.307907 90.72061 299.036038 
C 90.72061 297.764169 90.215291 296.544221 89.315944 295.644873 
C 88.416596 294.745526 87.196648 294.240207 85.924779 294.240207 
C 84.652909 294.240207 83.432961 294.745526 82.533614 295.644873 
C 81.634266 296.544221 81.128947 297.764169 81.128947 299.036038 
C 81.128947 300.307907 81.634266 301.527856 82.533614 302.427203 
C 83.432961 303.326551 84.652909 303.83187 85.924779 303.83187 
z
" clip-path="url(#p06d7ac4dc4)" style="fill: #395d9c; fill-opacity: 0.2"/>
    <path d="M 100.839432 304.220725 
C 102.118195 304.220725 103.344756 303.712667 104.248978 302.808445 
C 105.1532 301.904223 105.661258 300.677662 105.661258 299.398899 
C 105.661258 298.120136 105.1532 296.893576 104.248978 295.989354 
C 103.344756 295.085132 102.118195 294.577074 100.839432 294.577074 
C 99.560669 294.577074 98.334109 295.085132 97.429887 295.989354 
C 96.525665 296.893576 96.017607 298.120136 96.017607 299.398899 
C 96.017607 300.677662 96.525665 301.904223 97.429887 302.808445 
C 98.334109 303.712667 99.560669 304.220725 100.839432 304.220725 
z
" clip-path="url(#p06d7ac4dc4)" style="fill: #395d9c; fill-opacity: 0.2"/>
    <path d="M 121.437728 245.981435 
C 122.709597 245.981435 123.929545 245.476116 124.828893 244.576768 
C 125.72824 243.677421 126.233559 242.457473 126.233559 241.185603 
C 126.233559 239.913734 125.72824 238.693786 124.828893 237.794438 
C 123.929545 236.895091 122.709597 236.389772 121.437728 236.389772 
C 120.165858 236.389772 118.94591 236.895091 118.046563 237.794438 
C 117.147215 238.693786 116.641896 239.913734 116.641896 241.185603 
C 116.641896 242.457473 117.147215 243.677421 118.046563 244.576768 
C 118.94591 245.476116 120.165858 245.981435 121.437728 245.981435 
z
" clip-path="url(#p06d7ac4dc4)" style="fill: #395d9c; fill-opacity: 0.2"/>
    <path d="M 149.883759 251.76137 
C 151.162522 251.76137 152.389083 251.253312 153.293305 250.34909 
C 154.197527 249.444868 154.705585 248.218307 154.705585 246.939544 
C 154.705585 245.660781 154.197527 244.434221 153.293305 243.529999 
C 152.389083 242.625777 151.162522 242.117719 149.883759 242.117719 
C 148.604996 242.117719 147.378436 242.625777 146.474214 243.529999 
C 145.569992 244.434221 145.061934 245.660781 145.061934 246.939544 
C 145.061934 248.218307 145.569992 249.444868 146.474214 250.34909 
C 147.378436 251.253312 148.604996 251.76137 149.883759 251.76137 
z
" clip-path="url(#p06d7ac4dc4)" style="fill: #395d9c; fill-opacity: 0.2"/>
    <path d="M 204.30726 207.414478 
C 205.579129 207.414478 206.799077 206.909159 207.698425 206.009812 
C 208.597772 205.110464 209.103091 203.890516 209.103091 202.618647 
C 209.103091 201.346777 208.597772 200.126829 207.698425 199.227482 
C 206.799077 198.328134 205.579129 197.822815 204.30726 197.822815 
C 203.035391 197.822815 201.815442 198.328134 200.916095 199.227482 
C 200.016747 200.126829 199.511428 201.346777 199.511428 202.618647 
C 199.511428 203.890516 200.016747 205.110464 200.916095 206.009812 
C 201.815442 206.909159 203.035391 207.414478 204.30726 207.414478 
z
" clip-path="url(#p06d7ac4dc4)" style="fill: #395d9c; fill-opacity: 0.2"/>
    <path d="M 311.915505 80.076208 
C 313.194268 80.076208 314.420829 79.568151 315.325051 78.663928 
C 316.229273 77.759706 316.737331 76.533146 316.737331 75.254383 
C 316.737331 73.97562 316.229273 72.74906 315.325051 71.844838 
C 314.420829 70.940616 313.194268 70.432558 311.915505 70.432558 
C 310.636742 70.432558 309.410182 70.940616 308.50596 71.844838 
C 307.601738 72.74906 307.09368 73.97562 307.09368 75.254383 
C 307.09368 76.533146 307.601738 77.759706 308.50596 78.663928 
C 309.410182 79.568151 310.636742 80.076208 311.915505 80.076208 
z
" clip-path="url(#p06d7ac4dc4)" style="fill: #395d9c; fill-opacity: 0.2"/>
   </g>
   <g id="PathCollection_2">
    <path d="M 55.78696 337.60395 
C 57.065723 337.60395 58.292284 337.095892 59.196506 336.19167 
C 60.100728 335.287448 60.608786 334.060888 60.608786 332.782125 
C 60.608786 331.503362 60.100728 330.276802 59.196506 329.37258 
C 58.292284 328.468358 57.065723 327.9603 55.78696 327.9603 
C 54.508197 327.9603 53.281637 328.468358 52.377415 329.37258 
C 51.473193 330.276802 50.965135 331.503362 50.965135 332.782125 
C 50.965135 334.060888 51.473193 335.287448 52.377415 336.19167 
C 53.281637 337.095892 54.508197 337.60395 55.78696 337.60395 
z
" clip-path="url(#p06d7ac4dc4)" style="fill: #008c7a; fill-opacity: 0.2"/>
    <path d="M 61.265152 323.296854 
C 62.543915 323.296854 63.770476 322.788796 64.674698 321.884574 
C 65.57892 320.980352 66.086977 319.753791 66.086977 318.475028 
C 66.086977 317.196265 65.57892 315.969705 64.674698 315.065483 
C 63.770476 314.161261 62.543915 313.653203 61.265152 313.653203 
C 59.986389 313.653203 58.759829 314.161261 57.855607 315.065483 
C 56.951385 315.969705 56.443327 317.196265 56.443327 318.475028 
C 56.443327 319.753791 56.951385 320.980352 57.855607 321.884574 
C 58.759829 322.788796 59.986389 323.296854 61.265152 323.296854 
z
" clip-path="url(#p06d7ac4dc4)" style="fill: #008c7a; fill-opacity: 0.2"/>
    <path d="M 67.41768 327.936217 
C 68.68955 327.936217 69.909498 327.430898 70.808845 326.531551 
C 71.708193 325.632203 72.213512 324.412255 72.213512 323.140386 
C 72.213512 321.868516 71.708193 320.648568 70.808845 319.749221 
C 69.909498 318.849873 68.68955 318.344554 67.41768 318.344554 
C 66.145811 318.344554 64.925863 318.849873 64.026515 319.749221 
C 63.127168 320.648568 62.621849 321.868516 62.621849 323.140386 
C 62.621849 324.412255 63.127168 325.632203 64.026515 326.531551 
C 64.925863 327.430898 66.145811 327.936217 67.41768 327.936217 
z
" clip-path="url(#p06d7ac4dc4)" style="fill: #008c7a; fill-opacity: 0.2"/>
    <path d="M 75.396669 313.758789 
C 76.675432 313.758789 77.901992 313.250731 78.806214 312.346509 
C 79.710436 311.442287 80.218494 310.215727 80.218494 308.936964 
C 80.218494 307.658201 79.710436 306.43164 78.806214 305.527418 
C 77.901992 304.623196 76.675432 304.115138 75.396669 304.115138 
C 74.117906 304.115138 72.891346 304.623196 71.987124 305.527418 
C 71.082902 306.43164 70.574844 307.658201 70.574844 308.936964 
C 70.574844 310.215727 71.082902 311.442287 71.987124 312.346509 
C 72.891346 313.250731 74.117906 313.758789 75.396669 313.758789 
z
" clip-path="url(#p06d7ac4dc4)" style="fill: #008c7a; fill-opacity: 0.2"/>
    <path d="M 84.428815 318.294478 
C 85.700685 318.294478 86.920633 317.789159 87.81998 316.889812 
C 88.719328 315.990464 89.224647 314.770516 89.224647 313.498647 
C 89.224647 312.226777 88.719328 311.006829 87.81998 310.107482 
C 86.920633 309.208134 85.700685 308.702815 84.428815 308.702815 
C 83.156946 308.702815 81.936998 309.208134 81.03765 310.107482 
C 80.138303 311.006829 79.632984 312.226777 79.632984 313.498647 
C 79.632984 314.770516 80.138303 315.990464 81.03765 316.889812 
C 81.936998 317.789159 83.156946 318.294478 84.428815 318.294478 
z
" clip-path="url(#p06d7ac4dc4)" style="fill: #008c7a; fill-opacity: 0.2"/>
    <path d="M 98.656081 308.989757 
C 99.934844 308.989757 101.161404 308.481699 102.065626 307.577477 
C 102.969848 306.673255 103.477906 305.446694 103.477906 304.167931 
C 103.477906 302.889168 102.969848 301.662608 102.065626 300.758386 
C 101.161404 299.854164 99.934844 299.346106 98.656081 299.346106 
C 97.377318 299.346106 96.150757 299.854164 95.246535 300.758386 
C 94.342313 301.662608 93.834255 302.889168 93.834255 304.167931 
C 93.834255 305.446694 94.342313 306.673255 95.246535 307.577477 
C 96.150757 308.481699 97.377318 308.989757 98.656081 308.989757 
z
" clip-path="url(#p06d7ac4dc4)" style="fill: #008c7a; fill-opacity: 0.2"/>
    <path d="M 121.364764 245.981435 
C 122.636633 245.981435 123.856581 245.476116 124.755929 244.576768 
C 125.655276 243.677421 126.160595 242.457473 126.160595 241.185603 
C 126.160595 239.913734 125.655276 238.693786 124.755929 237.794438 
C 123.856581 236.895091 122.636633 236.389772 121.364764 236.389772 
C 120.092894 236.389772 118.872946 236.895091 117.973599 237.794438 
C 117.074251 238.693786 116.568932 239.913734 116.568932 241.185603 
C 116.568932 242.457473 117.074251 243.677421 117.973599 244.576768 
C 118.872946 245.476116 120.092894 245.981435 121.364764 245.981435 
z
" clip-path="url(#p06d7ac4dc4)" style="fill: #008c7a; fill-opacity: 0.2"/>
    <path d="M 149.940137 251.76137 
C 151.2189 251.76137 152.445461 251.253312 153.349683 250.34909 
C 154.253905 249.444868 154.761963 248.218307 154.761963 246.939544 
C 154.761963 245.660781 154.253905 244.434221 153.349683 243.529999 
C 152.445461 242.625777 151.2189 242.117719 149.940137 242.117719 
C 148.661374 242.117719 147.434814 242.625777 146.530592 243.529999 
C 145.62637 244.434221 145.118312 245.660781 145.118312 246.939544 
C 145.118312 248.218307 145.62637 249.444868 146.530592 250.34909 
C 147.434814 251.253312 148.661374 251.76137 149.940137 251.76137 
z
" clip-path="url(#p06d7ac4dc4)" style="fill: #008c7a; fill-opacity: 0.2"/>
    <path d="M 203.075974 207.414478 
C 204.347843 207.414478 205.567792 206.909159 206.467139 206.009812 
C 207.366486 205.110464 207.871806 203.890516 207.871806 202.618647 
C 207.871806 201.346777 207.366486 200.126829 206.467139 199.227482 
C 205.567792 198.328134 204.347843 197.822815 203.075974 197.822815 
C 201.804105 197.822815 200.584156 198.328134 199.684809 199.227482 
C 198.785462 200.126829 198.280142 201.346777 198.280142 202.618647 
C 198.280142 203.890516 198.785462 205.110464 199.684809 206.009812 
C 200.584156 206.909159 201.804105 207.414478 203.075974 207.414478 
z
" clip-path="url(#p06d7ac4dc4)" style="fill: #008c7a; fill-opacity: 0.2"/>
    <path d="M 306.758237 65.769112 
C 308.037 65.769112 309.26356 65.261054 310.167782 64.356832 
C 311.072004 63.45261 311.580062 62.226049 311.580062 60.947286 
C 311.580062 59.668523 311.072004 58.441963 310.167782 57.537741 
C 309.26356 56.633519 308.037 56.125461 306.758237 56.125461 
C 305.479474 56.125461 304.252913 56.633519 303.348691 57.537741 
C 302.444469 58.441963 301.936411 59.668523 301.936411 60.947286 
C 301.936411 62.226049 302.444469 63.45261 303.348691 64.356832 
C 304.252913 65.261054 305.479474 65.769112 306.758237 65.769112 
z
" clip-path="url(#p06d7ac4dc4)" style="fill: #008c7a; fill-opacity: 0.2"/>
   </g>
   <g id="matplotlib.axis_1">
    <g id="xtick_1">
     <g id="line2d_1">
      <path d="M 52.56 332.782125 
L 52.56 22.318125 
" clip-path="url(#p06d7ac4dc4)" style="fill: none; stroke: #d8dee6; stroke-opacity: 0.8; stroke-width: 0.7; stroke-linecap: square"/>
     </g>
     <g id="line2d_2">
      <defs>
       <path id="m96b0bcbf2c" d="M 0 0 
L 0 3.5 
" style="stroke: #000000; stroke-width: 0.8"/>
      </defs>
      <g>
       <use xlink:href="#m96b0bcbf2c" x="52.56" y="332.782125" style="stroke: #000000; stroke-width: 0.8"/>
      </g>
     </g>
     <g id="text_1">
      <!-- 0.0 -->
      <g transform="translate(44.608438 347.379781) scale(0.1 -0.1)">
       <defs>
        <path id="DejaVuSans-13" d="M 2034 4250 
Q 1547 4250 1301 3770 
Q 1056 3291 1056 2328 
Q 1056 1369 1301 889 
Q 1547 409 2034 409 
Q 2525 409 2770 889 
Q 3016 1369 3016 2328 
Q 3016 3291 2770 3770 
Q 2525 4250 2034 4250 
z
M 2034 4750 
Q 2819 4750 3233 4129 
Q 3647 3509 3647 2328 
Q 3647 1150 3233 529 
Q 2819 -91 2034 -91 
Q 1250 -91 836 529 
Q 422 1150 422 2328 
Q 422 3509 836 4129 
Q 1250 4750 2034 4750 
z
" transform="scale(0.015625)"/>
        <path id="DejaVuSans-11" d="M 684 794 
L 1344 794 
L 1344 0 
L 684 0 
L 684 794 
z
" transform="scale(0.015625)"/>
       </defs>
       <use xlink:href="#DejaVuSans-13"/>
       <use xlink:href="#DejaVuSans-11" transform="translate(63.625 0)"/>
       <use xlink:href="#DejaVuSans-13" transform="translate(95.40625 0)"/>
      </g>
     </g>
    </g>
    <g id="xtick_2">
     <g id="line2d_3">
      <path d="M 100.388571 332.782125 
L 100.388571 22.318125 
" clip-path="url(#p06d7ac4dc4)" style="fill: none; stroke: #d8dee6; stroke-opacity: 0.8; stroke-width: 0.7; stroke-linecap: square"/>
     </g>
     <g id="line2d_4">
      <g>
       <use xlink:href="#m96b0bcbf2c" x="100.388571" y="332.782125" style="stroke: #000000; stroke-width: 0.8"/>
      </g>
     </g>
     <g id="text_2">
      <!-- 0.1 -->
      <g transform="translate(92.437009 347.379781) scale(0.1 -0.1)">
       <defs>
        <path id="DejaVuSans-14" d="M 794 531 
L 1825 531 
L 1825 4091 
L 703 3866 
L 703 4441 
L 1819 4666 
L 2450 4666 
L 2450 531 
L 3481 531 
L 3481 0 
L 794 0 
L 794 531 
z
" transform="scale(0.015625)"/>
       </defs>
       <use xlink:href="#DejaVuSans-13"/>
       <use xlink:href="#DejaVuSans-11" transform="translate(63.625 0)"/>
       <use xlink:href="#DejaVuSans-14" transform="translate(95.40625 0)"/>
      </g>
     </g>
    </g>
    <g id="xtick_3">
     <g id="line2d_5">
      <path d="M 148.217143 332.782125 
L 148.217143 22.318125 
" clip-path="url(#p06d7ac4dc4)" style="fill: none; stroke: #d8dee6; stroke-opacity: 0.8; stroke-width: 0.7; stroke-linecap: square"/>
     </g>
     <g id="line2d_6">
      <g>
       <use xlink:href="#m96b0bcbf2c" x="148.217143" y="332.782125" style="stroke: #000000; stroke-width: 0.8"/>
      </g>
     </g>
     <g id="text_3">
      <!-- 0.2 -->
      <g transform="translate(140.26558 347.379781) scale(0.1 -0.1)">
       <defs>
        <path id="DejaVuSans-15" d="M 1228 531 
L 3431 531 
L 3431 0 
L 469 0 
L 469 531 
Q 828 903 1448 1529 
Q 2069 2156 2228 2338 
Q 2531 2678 2651 2914 
Q 2772 3150 2772 3378 
Q 2772 3750 2511 3984 
Q 2250 4219 1831 4219 
Q 1534 4219 1204 4116 
Q 875 4013 500 3803 
L 500 4441 
Q 881 4594 1212 4672 
Q 1544 4750 1819 4750 
Q 2544 4750 2975 4387 
Q 3406 4025 3406 3419 
Q 3406 3131 3298 2873 
Q 3191 2616 2906 2266 
Q 2828 2175 2409 1742 
Q 1991 1309 1228 531 
z
" transform="scale(0.015625)"/>
       </defs>
       <use xlink:href="#DejaVuSans-13"/>
       <use xlink:href="#DejaVuSans-11" transform="translate(63.625 0)"/>
       <use xlink:href="#DejaVuSans-15" transform="translate(95.40625 0)"/>
      </g>
     </g>
    </g>
    <g id="xtick_4">
     <g id="line2d_7">
      <path d="M 196.045714 332.782125 
L 196.045714 22.318125 
" clip-path="url(#p06d7ac4dc4)" style="fill: none; stroke: #d8dee6; stroke-opacity: 0.8; stroke-width: 0.7; stroke-linecap: square"/>
     </g>
     <g id="line2d_8">
      <g>
       <use xlink:href="#m96b0bcbf2c" x="196.045714" y="332.782125" style="stroke: #000000; stroke-width: 0.8"/>
      </g>
     </g>
     <g id="text_4">
      <!-- 0.3 -->
      <g transform="translate(188.094152 347.379781) scale(0.1 -0.1)">
       <defs>
        <path id="DejaVuSans-16" d="M 2597 2516 
Q 3050 2419 3304 2112 
Q 3559 1806 3559 1356 
Q 3559 666 3084 287 
Q 2609 -91 1734 -91 
Q 1441 -91 1130 -33 
Q 819 25 488 141 
L 488 750 
Q 750 597 1062 519 
Q 1375 441 1716 441 
Q 2309 441 2620 675 
Q 2931 909 2931 1356 
Q 2931 1769 2642 2001 
Q 2353 2234 1838 2234 
L 1294 2234 
L 1294 2753 
L 1863 2753 
Q 2328 2753 2575 2939 
Q 2822 3125 2822 3475 
Q 2822 3834 2567 4026 
Q 2313 4219 1838 4219 
Q 1578 4219 1281 4162 
Q 984 4106 628 3988 
L 628 4550 
Q 988 4650 1302 4700 
Q 1616 4750 1894 4750 
Q 2613 4750 3031 4423 
Q 3450 4097 3450 3541 
Q 3450 3153 3228 2886 
Q 3006 2619 2597 2516 
z
" transform="scale(0.015625)"/>
       </defs>
       <use xlink:href="#DejaVuSans-13"/>
       <use xlink:href="#DejaVuSans-11" transform="translate(63.625 0)"/>
       <use xlink:href="#DejaVuSans-16" transform="translate(95.40625 0)"/>
      </g>
     </g>
    </g>
    <g id="xtick_5">
     <g id="line2d_9">
      <path d="M 243.874286 332.782125 
L 243.874286 22.318125 
" clip-path="url(#p06d7ac4dc4)" style="fill: none; stroke: #d8dee6; stroke-opacity: 0.8; stroke-width: 0.7; stroke-linecap: square"/>
     </g>
     <g id="line2d_10">
      <g>
       <use xlink:href="#m96b0bcbf2c" x="243.874286" y="332.782125" style="stroke: #000000; stroke-width: 0.8"/>
      </g>
     </g>
     <g id="text_5">
      <!-- 0.4 -->
      <g transform="translate(235.922723 347.379781) scale(0.1 -0.1)">
       <defs>
        <path id="DejaVuSans-17" d="M 2419 4116 
L 825 1625 
L 2419 1625 
L 2419 4116 
z
M 2253 4666 
L 3047 4666 
L 3047 1625 
L 3713 1625 
L 3713 1100 
L 3047 1100 
L 3047 0 
L 2419 0 
L 2419 1100 
L 313 1100 
L 313 1709 
L 2253 4666 
z
" transform="scale(0.015625)"/>
       </defs>
       <use xlink:href="#DejaVuSans-13"/>
       <use xlink:href="#DejaVuSans-11" transform="translate(63.625 0)"/>
       <use xlink:href="#DejaVuSans-17" transform="translate(95.40625 0)"/>
      </g>
     </g>
    </g>
    <g id="xtick_6">
     <g id="line2d_11">
      <path d="M 291.702857 332.782125 
L 291.702857 22.318125 
" clip-path="url(#p06d7ac4dc4)" style="fill: none; stroke: #d8dee6; stroke-opacity: 0.8; stroke-width: 0.7; stroke-linecap: square"/>
     </g>
     <g id="line2d_12">
      <g>
       <use xlink:href="#m96b0bcbf2c" x="291.702857" y="332.782125" style="stroke: #000000; stroke-width: 0.8"/>
      </g>
     </g>
     <g id="text_6">
      <!-- 0.5 -->
      <g transform="translate(283.751295 347.379781) scale(0.1 -0.1)">
       <defs>
        <path id="DejaVuSans-18" d="M 691 4666 
L 3169 4666 
L 3169 4134 
L 1269 4134 
L 1269 2991 
Q 1406 3038 1543 3061 
Q 1681 3084 1819 3084 
Q 2600 3084 3056 2656 
Q 3513 2228 3513 1497 
Q 3513 744 3044 326 
Q 2575 -91 1722 -91 
Q 1428 -91 1123 -41 
Q 819 9 494 109 
L 494 744 
Q 775 591 1075 516 
Q 1375 441 1709 441 
Q 2250 441 2565 725 
Q 2881 1009 2881 1497 
Q 2881 1984 2565 2268 
Q 2250 2553 1709 2553 
Q 1456 2553 1204 2497 
Q 953 2441 691 2322 
L 691 4666 
z
" transform="scale(0.015625)"/>
       </defs>
       <use xlink:href="#DejaVuSans-13"/>
       <use xlink:href="#DejaVuSans-11" transform="translate(63.625 0)"/>
       <use xlink:href="#DejaVuSans-18" transform="translate(95.40625 0)"/>
      </g>
     </g>
    </g>
    <g id="xtick_7">
     <g id="line2d_13">
      <path d="M 339.531429 332.782125 
L 339.531429 22.318125 
" clip-path="url(#p06d7ac4dc4)" style="fill: none; stroke: #d8dee6; stroke-opacity: 0.8; stroke-width: 0.7; stroke-linecap: square"/>
     </g>
     <g id="line2d_14">
      <g>
       <use xlink:href="#m96b0bcbf2c" x="339.531429" y="332.782125" style="stroke: #000000; stroke-width: 0.8"/>
      </g>
     </g>
     <g id="text_7">
      <!-- 0.6 -->
      <g transform="translate(331.579866 347.379781) scale(0.1 -0.1)">
       <defs>
        <path id="DejaVuSans-19" d="M 2113 2584 
Q 1688 2584 1439 2293 
Q 1191 2003 1191 1497 
Q 1191 994 1439 701 
Q 1688 409 2113 409 
Q 2538 409 2786 701 
Q 3034 994 3034 1497 
Q 3034 2003 2786 2293 
Q 2538 2584 2113 2584 
z
M 3366 4563 
L 3366 3988 
Q 3128 4100 2886 4159 
Q 2644 4219 2406 4219 
Q 1781 4219 1451 3797 
Q 1122 3375 1075 2522 
Q 1259 2794 1537 2939 
Q 1816 3084 2150 3084 
Q 2853 3084 3261 2657 
Q 3669 2231 3669 1497 
Q 3669 778 3244 343 
Q 2819 -91 2113 -91 
Q 1303 -91 875 529 
Q 447 1150 447 2328 
Q 447 3434 972 4092 
Q 1497 4750 2381 4750 
Q 2619 4750 2861 4703 
Q 3103 4656 3366 4563 
z
" transform="scale(0.015625)"/>
       </defs>
       <use xlink:href="#DejaVuSans-13"/>
       <use xlink:href="#DejaVuSans-11" transform="translate(63.625 0)"/>
       <use xlink:href="#DejaVuSans-19" transform="translate(95.40625 0)"/>
      </g>
     </g>
    </g>
    <g id="xtick_8">
     <g id="line2d_15">
      <path d="M 387.36 332.782125 
L 387.36 22.318125 
" clip-path="url(#p06d7ac4dc4)" style="fill: none; stroke: #d8dee6; stroke-opacity: 0.8; stroke-width: 0.7; stroke-linecap: square"/>
     </g>
     <g id="line2d_16">
      <g>
       <use xlink:href="#m96b0bcbf2c" x="387.36" y="332.782125" style="stroke: #000000; stroke-width: 0.8"/>
      </g>
     </g>
     <g id="text_8">
      <!-- 0.7 -->
      <g transform="translate(379.408438 347.379781) scale(0.1 -0.1)">
       <defs>
        <path id="DejaVuSans-1a" d="M 525 4666 
L 3525 4666 
L 3525 4397 
L 1831 0 
L 1172 0 
L 2766 4134 
L 525 4134 
L 525 4666 
z
" transform="scale(0.015625)"/>
       </defs>
       <use xlink:href="#DejaVuSans-13"/>
       <use xlink:href="#DejaVuSans-11" transform="translate(63.625 0)"/>
       <use xlink:href="#DejaVuSans-1a" transform="translate(95.40625 0)"/>
      </g>
     </g>
    </g>
    <g id="text_9">
     <!-- Mean predicted risk -->
     <g transform="translate(170.494375 361.380562) scale(0.1 -0.1)">
      <defs>
       <path id="DejaVuSans-30" d="M 628 4666 
L 1569 4666 
L 2759 1491 
L 3956 4666 
L 4897 4666 
L 4897 0 
L 4281 0 
L 4281 4097 
L 3078 897 
L 2444 897 
L 1241 4097 
L 1241 0 
L 628 0 
L 628 4666 
z
" transform="scale(0.015625)"/>
       <path id="DejaVuSans-48" d="M 3597 1894 
L 3597 1613 
L 953 1613 
Q 991 1019 1311 708 
Q 1631 397 2203 397 
Q 2534 397 2845 478 
Q 3156 559 3463 722 
L 3463 178 
Q 3153 47 2828 -22 
Q 2503 -91 2169 -91 
Q 1331 -91 842 396 
Q 353 884 353 1716 
Q 353 2575 817 3079 
Q 1281 3584 2069 3584 
Q 2775 3584 3186 3129 
Q 3597 2675 3597 1894 
z
M 3022 2063 
Q 3016 2534 2758 2815 
Q 2500 3097 2075 3097 
Q 1594 3097 1305 2825 
Q 1016 2553 972 2059 
L 3022 2063 
z
" transform="scale(0.015625)"/>
       <path id="DejaVuSans-44" d="M 2194 1759 
Q 1497 1759 1228 1600 
Q 959 1441 959 1056 
Q 959 750 1161 570 
Q 1363 391 1709 391 
Q 2188 391 2477 730 
Q 2766 1069 2766 1631 
L 2766 1759 
L 2194 1759 
z
M 3341 1997 
L 3341 0 
L 2766 0 
L 2766 531 
Q 2569 213 2275 61 
Q 1981 -91 1556 -91 
Q 1019 -91 701 211 
Q 384 513 384 1019 
Q 384 1609 779 1909 
Q 1175 2209 1959 2209 
L 2766 2209 
L 2766 2266 
Q 2766 2663 2505 2880 
Q 2244 3097 1772 3097 
Q 1472 3097 1187 3025 
Q 903 2953 641 2809 
L 641 3341 
Q 956 3463 1253 3523 
Q 1550 3584 1831 3584 
Q 2591 3584 2966 3190 
Q 3341 2797 3341 1997 
z
" transform="scale(0.015625)"/>
       <path id="DejaVuSans-51" d="M 3513 2113 
L 3513 0 
L 2938 0 
L 2938 2094 
Q 2938 2591 2744 2837 
Q 2550 3084 2163 3084 
Q 1697 3084 1428 2787 
Q 1159 2491 1159 1978 
L 1159 0 
L 581 0 
L 581 3500 
L 1159 3500 
L 1159 2956 
Q 1366 3272 1645 3428 
Q 1925 3584 2291 3584 
Q 2894 3584 3203 3211 
Q 3513 2838 3513 2113 
z
" transform="scale(0.015625)"/>
       <path id="DejaVuSans-3" transform="scale(0.015625)"/>
       <path id="DejaVuSans-53" d="M 1159 525 
L 1159 -1331 
L 581 -1331 
L 581 3500 
L 1159 3500 
L 1159 2969 
Q 1341 3281 1617 3432 
Q 1894 3584 2278 3584 
Q 2916 3584 3314 3078 
Q 3713 2572 3713 1747 
Q 3713 922 3314 415 
Q 2916 -91 2278 -91 
Q 1894 -91 1617 61 
Q 1341 213 1159 525 
z
M 3116 1747 
Q 3116 2381 2855 2742 
Q 2594 3103 2138 3103 
Q 1681 3103 1420 2742 
Q 1159 2381 1159 1747 
Q 1159 1113 1420 752 
Q 1681 391 2138 391 
Q 2594 391 2855 752 
Q 3116 1113 3116 1747 
z
" transform="scale(0.015625)"/>
       <path id="DejaVuSans-55" d="M 2631 2963 
Q 2534 3019 2420 3045 
Q 2306 3072 2169 3072 
Q 1681 3072 1420 2755 
Q 1159 2438 1159 1844 
L 1159 0 
L 581 0 
L 581 3500 
L 1159 3500 
L 1159 2956 
Q 1341 3275 1631 3429 
Q 1922 3584 2338 3584 
Q 2397 3584 2469 3576 
Q 2541 3569 2628 3553 
L 2631 2963 
z
" transform="scale(0.015625)"/>
       <path id="DejaVuSans-47" d="M 2906 2969 
L 2906 4863 
L 3481 4863 
L 3481 0 
L 2906 0 
L 2906 525 
Q 2725 213 2448 61 
Q 2172 -91 1784 -91 
Q 1150 -91 751 415 
Q 353 922 353 1747 
Q 353 2572 751 3078 
Q 1150 3584 1784 3584 
Q 2172 3584 2448 3432 
Q 2725 3281 2906 2969 
z
M 947 1747 
Q 947 1113 1208 752 
Q 1469 391 1925 391 
Q 2381 391 2643 752 
Q 2906 1113 2906 1747 
Q 2906 2381 2643 2742 
Q 2381 3103 1925 3103 
Q 1469 3103 1208 2742 
Q 947 2381 947 1747 
z
" transform="scale(0.015625)"/>
       <path id="DejaVuSans-4c" d="M 603 3500 
L 1178 3500 
L 1178 0 
L 603 0 
L 603 3500 
z
M 603 4863 
L 1178 4863 
L 1178 4134 
L 603 4134 
L 603 4863 
z
" transform="scale(0.015625)"/>
       <path id="DejaVuSans-46" d="M 3122 3366 
L 3122 2828 
Q 2878 2963 2633 3030 
Q 2388 3097 2138 3097 
Q 1578 3097 1268 2742 
Q 959 2388 959 1747 
Q 959 1106 1268 751 
Q 1578 397 2138 397 
Q 2388 397 2633 464 
Q 2878 531 3122 666 
L 3122 134 
Q 2881 22 2623 -34 
Q 2366 -91 2075 -91 
Q 1284 -91 818 406 
Q 353 903 353 1747 
Q 353 2603 823 3093 
Q 1294 3584 2113 3584 
Q 2378 3584 2631 3529 
Q 2884 3475 3122 3366 
z
" transform="scale(0.015625)"/>
       <path id="DejaVuSans-57" d="M 1172 4494 
L 1172 3500 
L 2356 3500 
L 2356 3053 
L 1172 3053 
L 1172 1153 
Q 1172 725 1289 603 
Q 1406 481 1766 481 
L 2356 481 
L 2356 0 
L 1766 0 
Q 1100 0 847 248 
Q 594 497 594 1153 
L 594 3053 
L 172 3053 
L 172 3500 
L 594 3500 
L 594 4494 
L 1172 4494 
z
" transform="scale(0.015625)"/>
       <path id="DejaVuSans-56" d="M 2834 3397 
L 2834 2853 
Q 2591 2978 2328 3040 
Q 2066 3103 1784 3103 
Q 1356 3103 1142 2972 
Q 928 2841 928 2578 
Q 928 2378 1081 2264 
Q 1234 2150 1697 2047 
L 1894 2003 
Q 2506 1872 2764 1633 
Q 3022 1394 3022 966 
Q 3022 478 2636 193 
Q 2250 -91 1575 -91 
Q 1294 -91 989 -36 
Q 684 19 347 128 
L 347 722 
Q 666 556 975 473 
Q 1284 391 1588 391 
Q 1994 391 2212 530 
Q 2431 669 2431 922 
Q 2431 1156 2273 1281 
Q 2116 1406 1581 1522 
L 1381 1569 
Q 847 1681 609 1914 
Q 372 2147 372 2553 
Q 372 3047 722 3315 
Q 1072 3584 1716 3584 
Q 2034 3584 2315 3537 
Q 2597 3491 2834 3397 
z
" transform="scale(0.015625)"/>
       <path id="DejaVuSans-4e" d="M 581 4863 
L 1159 4863 
L 1159 1991 
L 2875 3500 
L 3609 3500 
L 1753 1863 
L 3688 0 
L 2938 0 
L 1159 1709 
L 1159 0 
L 581 0 
L 581 4863 
z
" transform="scale(0.015625)"/>
      </defs>
      <use xlink:href="#DejaVuSans-30"/>
      <use xlink:href="#DejaVuSans-48" transform="translate(86.28125 0)"/>
      <use xlink:href="#DejaVuSans-44" transform="translate(147.8125 0)"/>
      <use xlink:href="#DejaVuSans-51" transform="translate(209.09375 0)"/>
      <use xlink:href="#DejaVuSans-3" transform="translate(272.46875 0)"/>
      <use xlink:href="#DejaVuSans-53" transform="translate(304.25 0)"/>
      <use xlink:href="#DejaVuSans-55" transform="translate(367.734375 0)"/>
      <use xlink:href="#DejaVuSans-48" transform="translate(406.640625 0)"/>
      <use xlink:href="#DejaVuSans-47" transform="translate(468.171875 0)"/>
      <use xlink:href="#DejaVuSans-4c" transform="translate(531.65625 0)"/>
      <use xlink:href="#DejaVuSans-46" transform="translate(559.4375 0)"/>
      <use xlink:href="#DejaVuSans-57" transform="translate(614.421875 0)"/>
      <use xlink:href="#DejaVuSans-48" transform="translate(653.625 0)"/>
      <use xlink:href="#DejaVuSans-47" transform="translate(715.15625 0)"/>
      <use xlink:href="#DejaVuSans-3" transform="translate(778.640625 0)"/>
      <use xlink:href="#DejaVuSans-55" transform="translate(810.421875 0)"/>
      <use xlink:href="#DejaVuSans-4c" transform="translate(851.53125 0)"/>
      <use xlink:href="#DejaVuSans-56" transform="translate(879.3125 0)"/>
      <use xlink:href="#DejaVuSans-4e" transform="translate(931.40625 0)"/>
     </g>
    </g>
   </g>
   <g id="matplotlib.axis_2">
    <g id="ytick_1">
     <g id="line2d_17">
      <path d="M 52.56 332.782125 
L 387.36 332.782125 
" clip-path="url(#p06d7ac4dc4)" style="fill: none; stroke: #d8dee6; stroke-opacity: 0.8; stroke-width: 0.7; stroke-linecap: square"/>
     </g>
     <g id="line2d_18">
      <defs>
       <path id="mb378b8b265" d="M 0 0 
L -3.5 0 
" style="stroke: #000000; stroke-width: 0.8"/>
      </defs>
      <g>
       <use xlink:href="#mb378b8b265" x="52.56" y="332.782125" style="stroke: #000000; stroke-width: 0.8"/>
      </g>
     </g>
     <g id="text_10">
      <!-- 0.0 -->
      <g transform="translate(29.656875 336.580953) scale(0.1 -0.1)">
       <use xlink:href="#DejaVuSans-13"/>
       <use xlink:href="#DejaVuSans-11" transform="translate(63.625 0)"/>
       <use xlink:href="#DejaVuSans-13" transform="translate(95.40625 0)"/>
      </g>
     </g>
    </g>
    <g id="ytick_2">
     <g id="line2d_19">
      <path d="M 52.56 288.430125 
L 387.36 288.430125 
" clip-path="url(#p06d7ac4dc4)" style="fill: none; stroke: #d8dee6; stroke-opacity: 0.8; stroke-width: 0.7; stroke-linecap: square"/>
     </g>
     <g id="line2d_20">
      <g>
       <use xlink:href="#mb378b8b265" x="52.56" y="288.430125" style="stroke: #000000; stroke-width: 0.8"/>
      </g>
     </g>
     <g id="text_11">
      <!-- 0.1 -->
      <g transform="translate(29.656875 292.228953) scale(0.1 -0.1)">
       <use xlink:href="#DejaVuSans-13"/>
       <use xlink:href="#DejaVuSans-11" transform="translate(63.625 0)"/>
       <use xlink:href="#DejaVuSans-14" transform="translate(95.40625 0)"/>
      </g>
     </g>
    </g>
    <g id="ytick_3">
     <g id="line2d_21">
      <path d="M 52.56 244.078125 
L 387.36 244.078125 
" clip-path="url(#p06d7ac4dc4)" style="fill: none; stroke: #d8dee6; stroke-opacity: 0.8; stroke-width: 0.7; stroke-linecap: square"/>
     </g>
     <g id="line2d_22">
      <g>
       <use xlink:href="#mb378b8b265" x="52.56" y="244.078125" style="stroke: #000000; stroke-width: 0.8"/>
      </g>
     </g>
     <g id="text_12">
      <!-- 0.2 -->
      <g transform="translate(29.656875 247.876953) scale(0.1 -0.1)">
       <use xlink:href="#DejaVuSans-13"/>
       <use xlink:href="#DejaVuSans-11" transform="translate(63.625 0)"/>
       <use xlink:href="#DejaVuSans-15" transform="translate(95.40625 0)"/>
      </g>
     </g>
    </g>
    <g id="ytick_4">
     <g id="line2d_23">
      <path d="M 52.56 199.726125 
L 387.36 199.726125 
" clip-path="url(#p06d7ac4dc4)" style="fill: none; stroke: #d8dee6; stroke-opacity: 0.8; stroke-width: 0.7; stroke-linecap: square"/>
     </g>
     <g id="line2d_24">
      <g>
       <use xlink:href="#mb378b8b265" x="52.56" y="199.726125" style="stroke: #000000; stroke-width: 0.8"/>
      </g>
     </g>
     <g id="text_13">
      <!-- 0.3 -->
      <g transform="translate(29.656875 203.524953) scale(0.1 -0.1)">
       <use xlink:href="#DejaVuSans-13"/>
       <use xlink:href="#DejaVuSans-11" transform="translate(63.625 0)"/>
       <use xlink:href="#DejaVuSans-16" transform="translate(95.40625 0)"/>
      </g>
     </g>
    </g>
    <g id="ytick_5">
     <g id="line2d_25">
      <path d="M 52.56 155.374125 
L 387.36 155.374125 
" clip-path="url(#p06d7ac4dc4)" style="fill: none; stroke: #d8dee6; stroke-opacity: 0.8; stroke-width: 0.7; stroke-linecap: square"/>
     </g>
     <g id="line2d_26">
      <g>
       <use xlink:href="#mb378b8b265" x="52.56" y="155.374125" style="stroke: #000000; stroke-width: 0.8"/>
      </g>
     </g>
     <g id="text_14">
      <!-- 0.4 -->
      <g transform="translate(29.656875 159.172953) scale(0.1 -0.1)">
       <use xlink:href="#DejaVuSans-13"/>
       <use xlink:href="#DejaVuSans-11" transform="translate(63.625 0)"/>
       <use xlink:href="#DejaVuSans-17" transform="translate(95.40625 0)"/>
      </g>
     </g>
    </g>
    <g id="ytick_6">
     <g id="line2d_27">
      <path d="M 52.56 111.022125 
L 387.36 111.022125 
" clip-path="url(#p06d7ac4dc4)" style="fill: none; stroke: #d8dee6; stroke-opacity: 0.8; stroke-width: 0.7; stroke-linecap: square"/>
     </g>
     <g id="line2d_28">
      <g>
       <use xlink:href="#mb378b8b265" x="52.56" y="111.022125" style="stroke: #000000; stroke-width: 0.8"/>
      </g>
     </g>
     <g id="text_15">
      <!-- 0.5 -->
      <g transform="translate(29.656875 114.820953) scale(0.1 -0.1)">
       <use xlink:href="#DejaVuSans-13"/>
       <use xlink:href="#DejaVuSans-11" transform="translate(63.625 0)"/>
       <use xlink:href="#DejaVuSans-18" transform="translate(95.40625 0)"/>
      </g>
     </g>
    </g>
    <g id="ytick_7">
     <g id="line2d_29">
      <path d="M 52.56 66.670125 
L 387.36 66.670125 
" clip-path="url(#p06d7ac4dc4)" style="fill: none; stroke: #d8dee6; stroke-opacity: 0.8; stroke-width: 0.7; stroke-linecap: square"/>
     </g>
     <g id="line2d_30">
      <g>
       <use xlink:href="#mb378b8b265" x="52.56" y="66.670125" style="stroke: #000000; stroke-width: 0.8"/>
      </g>
     </g>
     <g id="text_16">
      <!-- 0.6 -->
      <g transform="translate(29.656875 70.468953) scale(0.1 -0.1)">
       <use xlink:href="#DejaVuSans-13"/>
       <use xlink:href="#DejaVuSans-11" transform="translate(63.625 0)"/>
       <use xlink:href="#DejaVuSans-19" transform="translate(95.40625 0)"/>
      </g>
     </g>
    </g>
    <g id="ytick_8">
     <g id="line2d_31">
      <path d="M 52.56 22.318125 
L 387.36 22.318125 
" clip-path="url(#p06d7ac4dc4)" style="fill: none; stroke: #d8dee6; stroke-opacity: 0.8; stroke-width: 0.7; stroke-linecap: square"/>
     </g>
     <g id="line2d_32">
      <g>
       <use xlink:href="#mb378b8b265" x="52.56" y="22.318125" style="stroke: #000000; stroke-width: 0.8"/>
      </g>
     </g>
     <g id="text_17">
      <!-- 0.7 -->
      <g transform="translate(29.656875 26.116953) scale(0.1 -0.1)">
       <use xlink:href="#DejaVuSans-13"/>
       <use xlink:href="#DejaVuSans-11" transform="translate(63.625 0)"/>
       <use xlink:href="#DejaVuSans-1a" transform="translate(95.40625 0)"/>
      </g>
     </g>
    </g>
    <g id="text_18">
     <!-- Observed low-SMI rate -->
     <g transform="translate(23.254531 234.246219) rotate(-90) scale(0.1 -0.1)">
      <defs>
       <path id="DejaVuSans-32" d="M 2522 4238 
Q 1834 4238 1429 3725 
Q 1025 3213 1025 2328 
Q 1025 1447 1429 934 
Q 1834 422 2522 422 
Q 3209 422 3611 934 
Q 4013 1447 4013 2328 
Q 4013 3213 3611 3725 
Q 3209 4238 2522 4238 
z
M 2522 4750 
Q 3503 4750 4090 4092 
Q 4678 3434 4678 2328 
Q 4678 1225 4090 567 
Q 3503 -91 2522 -91 
Q 1538 -91 948 565 
Q 359 1222 359 2328 
Q 359 3434 948 4092 
Q 1538 4750 2522 4750 
z
" transform="scale(0.015625)"/>
       <path id="DejaVuSans-45" d="M 3116 1747 
Q 3116 2381 2855 2742 
Q 2594 3103 2138 3103 
Q 1681 3103 1420 2742 
Q 1159 2381 1159 1747 
Q 1159 1113 1420 752 
Q 1681 391 2138 391 
Q 2594 391 2855 752 
Q 3116 1113 3116 1747 
z
M 1159 2969 
Q 1341 3281 1617 3432 
Q 1894 3584 2278 3584 
Q 2916 3584 3314 3078 
Q 3713 2572 3713 1747 
Q 3713 922 3314 415 
Q 2916 -91 2278 -91 
Q 1894 -91 1617 61 
Q 1341 213 1159 525 
L 1159 0 
L 581 0 
L 581 4863 
L 1159 4863 
L 1159 2969 
z
" transform="scale(0.015625)"/>
       <path id="DejaVuSans-59" d="M 191 3500 
L 800 3500 
L 1894 563 
L 2988 3500 
L 3597 3500 
L 2284 0 
L 1503 0 
L 191 3500 
z
" transform="scale(0.015625)"/>
       <path id="DejaVuSans-4f" d="M 603 4863 
L 1178 4863 
L 1178 0 
L 603 0 
L 603 4863 
z
" transform="scale(0.015625)"/>
       <path id="DejaVuSans-52" d="M 1959 3097 
Q 1497 3097 1228 2736 
Q 959 2375 959 1747 
Q 959 1119 1226 758 
Q 1494 397 1959 397 
Q 2419 397 2687 759 
Q 2956 1122 2956 1747 
Q 2956 2369 2687 2733 
Q 2419 3097 1959 3097 
z
M 1959 3584 
Q 2709 3584 3137 3096 
Q 3566 2609 3566 1747 
Q 3566 888 3137 398 
Q 2709 -91 1959 -91 
Q 1206 -91 779 398 
Q 353 888 353 1747 
Q 353 2609 779 3096 
Q 1206 3584 1959 3584 
z
" transform="scale(0.015625)"/>
       <path id="DejaVuSans-5a" d="M 269 3500 
L 844 3500 
L 1563 769 
L 2278 3500 
L 2956 3500 
L 3675 769 
L 4391 3500 
L 4966 3500 
L 4050 0 
L 3372 0 
L 2619 2869 
L 1863 0 
L 1184 0 
L 269 3500 
z
" transform="scale(0.015625)"/>
       <path id="DejaVuSans-10" d="M 313 2009 
L 1997 2009 
L 1997 1497 
L 313 1497 
L 313 2009 
z
" transform="scale(0.015625)"/>
       <path id="DejaVuSans-36" d="M 3425 4513 
L 3425 3897 
Q 3066 4069 2747 4153 
Q 2428 4238 2131 4238 
Q 1616 4238 1336 4038 
Q 1056 3838 1056 3469 
Q 1056 3159 1242 3001 
Q 1428 2844 1947 2747 
L 2328 2669 
Q 3034 2534 3370 2195 
Q 3706 1856 3706 1288 
Q 3706 609 3251 259 
Q 2797 -91 1919 -91 
Q 1588 -91 1214 -16 
Q 841 59 441 206 
L 441 856 
Q 825 641 1194 531 
Q 1563 422 1919 422 
Q 2459 422 2753 634 
Q 3047 847 3047 1241 
Q 3047 1584 2836 1778 
Q 2625 1972 2144 2069 
L 1759 2144 
Q 1053 2284 737 2584 
Q 422 2884 422 3419 
Q 422 4038 858 4394 
Q 1294 4750 2059 4750 
Q 2388 4750 2728 4690 
Q 3069 4631 3425 4513 
z
" transform="scale(0.015625)"/>
       <path id="DejaVuSans-2c" d="M 628 4666 
L 1259 4666 
L 1259 0 
L 628 0 
L 628 4666 
z
" transform="scale(0.015625)"/>
      </defs>
      <use xlink:href="#DejaVuSans-32"/>
      <use xlink:href="#DejaVuSans-45" transform="translate(78.71875 0)"/>
      <use xlink:href="#DejaVuSans-56" transform="translate(142.203125 0)"/>
      <use xlink:href="#DejaVuSans-48" transform="translate(194.296875 0)"/>
      <use xlink:href="#DejaVuSans-55" transform="translate(255.828125 0)"/>
      <use xlink:href="#DejaVuSans-59" transform="translate(296.9375 0)"/>
      <use xlink:href="#DejaVuSans-48" transform="translate(356.125 0)"/>
      <use xlink:href="#DejaVuSans-47" transform="translate(417.65625 0)"/>
      <use xlink:href="#DejaVuSans-3" transform="translate(481.140625 0)"/>
      <use xlink:href="#DejaVuSans-4f" transform="translate(512.921875 0)"/>
      <use xlink:href="#DejaVuSans-52" transform="translate(540.703125 0)"/>
      <use xlink:href="#DejaVuSans-5a" transform="translate(601.890625 0)"/>
      <use xlink:href="#DejaVuSans-10" transform="translate(683.671875 0)"/>
      <use xlink:href="#DejaVuSans-36" transform="translate(719.75 0)"/>
      <use xlink:href="#DejaVuSans-30" transform="translate(783.234375 0)"/>
      <use xlink:href="#DejaVuSans-2c" transform="translate(869.515625 0)"/>
      <use xlink:href="#DejaVuSans-3" transform="translate(899.015625 0)"/>
      <use xlink:href="#DejaVuSans-55" transform="translate(930.796875 0)"/>
      <use xlink:href="#DejaVuSans-44" transform="translate(971.90625 0)"/>
      <use xlink:href="#DejaVuSans-57" transform="translate(1033.1875 0)"/>
      <use xlink:href="#DejaVuSans-48" transform="translate(1072.390625 0)"/>
     </g>
    </g>
   </g>
   <g id="line2d_33">
    <path d="M 52.56 332.782125 
L 403.511563 7.34059 
" clip-path="url(#p06d7ac4dc4)" style="fill: none; stroke-dasharray: 5.55,2.4; stroke-dashoffset: 0; stroke: #aab3bd; stroke-width: 1.5"/>
   </g>
   <g id="line2d_34">
    <path d="M 55.642727 332.782125 
L 61.64219 323.24406 
L 68.960858 313.498647 
L 76.704261 318.475028 
L 85.924779 299.036038 
L 100.839432 299.398899 
L 121.437728 241.185603 
L 149.883759 246.939544 
L 204.30726 202.618647 
L 311.915505 75.254383 
" clip-path="url(#p06d7ac4dc4)" style="fill: none; stroke: #395d9c; stroke-width: 2.2; stroke-linecap: square"/>
    <defs>
     <path id="m52c5c66da5" d="M 0 3 
C 0.795609 3 1.55874 2.683901 2.12132 2.12132 
C 2.683901 1.55874 3 0.795609 3 0 
C 3 -0.795609 2.683901 -1.55874 2.12132 -2.12132 
C 1.55874 -2.683901 0.795609 -3 0 -3 
C -0.795609 -3 -1.55874 -2.683901 -2.12132 -2.12132 
C -2.683901 -1.55874 -3 -0.795609 -3 0 
C -3 0.795609 -2.683901 1.55874 -2.12132 2.12132 
C -1.55874 2.683901 -0.795609 3 0 3 
z
" style="stroke: #395d9c"/>
    </defs>
    <g clip-path="url(#p06d7ac4dc4)">
     <use xlink:href="#m52c5c66da5" x="55.642727" y="332.782125" style="fill: #395d9c; stroke: #395d9c"/>
     <use xlink:href="#m52c5c66da5" x="61.64219" y="323.24406" style="fill: #395d9c; stroke: #395d9c"/>
     <use xlink:href="#m52c5c66da5" x="68.960858" y="313.498647" style="fill: #395d9c; stroke: #395d9c"/>
     <use xlink:href="#m52c5c66da5" x="76.704261" y="318.475028" style="fill: #395d9c; stroke: #395d9c"/>
     <use xlink:href="#m52c5c66da5" x="85.924779" y="299.036038" style="fill: #395d9c; stroke: #395d9c"/>
     <use xlink:href="#m52c5c66da5" x="100.839432" y="299.398899" style="fill: #395d9c; stroke: #395d9c"/>
     <use xlink:href="#m52c5c66da5" x="121.437728" y="241.185603" style="fill: #395d9c; stroke: #395d9c"/>
     <use xlink:href="#m52c5c66da5" x="149.883759" y="246.939544" style="fill: #395d9c; stroke: #395d9c"/>
     <use xlink:href="#m52c5c66da5" x="204.30726" y="202.618647" style="fill: #395d9c; stroke: #395d9c"/>
     <use xlink:href="#m52c5c66da5" x="311.915505" y="75.254383" style="fill: #395d9c; stroke: #395d9c"/>
    </g>
   </g>
   <g id="line2d_35">
    <path d="M 55.78696 332.782125 
L 61.265152 318.475028 
L 67.41768 323.140386 
L 75.396669 308.936964 
L 84.428815 313.498647 
L 98.656081 304.167931 
L 121.364764 241.185603 
L 149.940137 246.939544 
L 203.075974 202.618647 
L 306.758237 60.947286 
" clip-path="url(#p06d7ac4dc4)" style="fill: none; stroke: #008c7a; stroke-width: 2.2; stroke-linecap: square"/>
    <defs>
     <path id="mcf30fd3478" d="M 0 3 
C 0.795609 3 1.55874 2.683901 2.12132 2.12132 
C 2.683901 1.55874 3 0.795609 3 0 
C 3 -0.795609 2.683901 -1.55874 2.12132 -2.12132 
C 1.55874 -2.683901 0.795609 -3 0 -3 
C -0.795609 -3 -1.55874 -2.683901 -2.12132 -2.12132 
C -2.683901 -1.55874 -3 -0.795609 -3 0 
C -3 0.795609 -2.683901 1.55874 -2.12132 2.12132 
C -1.55874 2.683901 -0.795609 3 0 3 
z
" style="stroke: #008c7a"/>
    </defs>
    <g clip-path="url(#p06d7ac4dc4)">
     <use xlink:href="#mcf30fd3478" x="55.78696" y="332.782125" style="fill: #008c7a; stroke: #008c7a"/>
     <use xlink:href="#mcf30fd3478" x="61.265152" y="318.475028" style="fill: #008c7a; stroke: #008c7a"/>
     <use xlink:href="#mcf30fd3478" x="67.41768" y="323.140386" style="fill: #008c7a; stroke: #008c7a"/>
     <use xlink:href="#mcf30fd3478" x="75.396669" y="308.936964" style="fill: #008c7a; stroke: #008c7a"/>
     <use xlink:href="#mcf30fd3478" x="84.428815" y="313.498647" style="fill: #008c7a; stroke: #008c7a"/>
     <use xlink:href="#mcf30fd3478" x="98.656081" y="304.167931" style="fill: #008c7a; stroke: #008c7a"/>
     <use xlink:href="#mcf30fd3478" x="121.364764" y="241.185603" style="fill: #008c7a; stroke: #008c7a"/>
     <use xlink:href="#mcf30fd3478" x="149.940137" y="246.939544" style="fill: #008c7a; stroke: #008c7a"/>
     <use xlink:href="#mcf30fd3478" x="203.075974" y="202.618647" style="fill: #008c7a; stroke: #008c7a"/>
     <use xlink:href="#mcf30fd3478" x="306.758237" y="60.947286" style="fill: #008c7a; stroke: #008c7a"/>
    </g>
   </g>
   <g id="patch_3">
    <path d="M 52.56 332.782125 
L 52.56 22.318125 
" style="fill: none; stroke: #000000; stroke-width: 0.8; stroke-linejoin: miter; stroke-linecap: square"/>
   </g>
   <g id="patch_4">
    <path d="M 387.36 332.782125 
L 387.36 22.318125 
" style="fill: none; stroke: #000000; stroke-width: 0.8; stroke-linejoin: miter; stroke-linecap: square"/>
   </g>
   <g id="patch_5">
    <path d="M 52.56 332.782125 
L 387.36 332.782125 
" style="fill: none; stroke: #000000; stroke-width: 0.8; stroke-linejoin: miter; stroke-linecap: square"/>
   </g>
   <g id="patch_6">
    <path d="M 52.56 22.318125 
L 387.36 22.318125 
" style="fill: none; stroke: #000000; stroke-width: 0.8; stroke-linejoin: miter; stroke-linecap: square"/>
   </g>
   <g id="text_19">
    <!-- External Calibration in sdata -->
    <g transform="translate(52.56 16.318125) scale(0.12 -0.12)">
     <defs>
      <path id="DejaVuSans-Bold-28" d="M 588 4666 
L 3834 4666 
L 3834 3756 
L 1791 3756 
L 1791 2888 
L 3713 2888 
L 3713 1978 
L 1791 1978 
L 1791 909 
L 3903 909 
L 3903 0 
L 588 0 
L 588 4666 
z
" transform="scale(0.015625)"/>
      <path id="DejaVuSans-Bold-5b" d="M 1422 1791 
L 159 3500 
L 1344 3500 
L 2059 2463 
L 2784 3500 
L 3969 3500 
L 2706 1797 
L 4031 0 
L 2847 0 
L 2059 1106 
L 1281 0 
L 97 0 
L 1422 1791 
z
" transform="scale(0.015625)"/>
      <path id="DejaVuSans-Bold-57" d="M 1759 4494 
L 1759 3500 
L 2913 3500 
L 2913 2700 
L 1759 2700 
L 1759 1216 
Q 1759 972 1856 886 
Q 1953 800 2241 800 
L 2816 800 
L 2816 0 
L 1856 0 
Q 1194 0 917 276 
Q 641 553 641 1216 
L 641 2700 
L 84 2700 
L 84 3500 
L 641 3500 
L 641 4494 
L 1759 4494 
z
" transform="scale(0.015625)"/>
      <path id="DejaVuSans-Bold-48" d="M 4031 1759 
L 4031 1441 
L 1416 1441 
Q 1456 1047 1700 850 
Q 1944 653 2381 653 
Q 2734 653 3104 758 
Q 3475 863 3866 1075 
L 3866 213 
Q 3469 63 3072 -14 
Q 2675 -91 2278 -91 
Q 1328 -91 801 392 
Q 275 875 275 1747 
Q 275 2603 792 3093 
Q 1309 3584 2216 3584 
Q 3041 3584 3536 3087 
Q 4031 2591 4031 1759 
z
M 2881 2131 
Q 2881 2450 2695 2645 
Q 2509 2841 2209 2841 
Q 1884 2841 1681 2658 
Q 1478 2475 1428 2131 
L 2881 2131 
z
" transform="scale(0.015625)"/>
      <path id="DejaVuSans-Bold-55" d="M 3138 2547 
Q 2991 2616 2845 2648 
Q 2700 2681 2553 2681 
Q 2122 2681 1889 2404 
Q 1656 2128 1656 1613 
L 1656 0 
L 538 0 
L 538 3500 
L 1656 3500 
L 1656 2925 
Q 1872 3269 2151 3426 
Q 2431 3584 2822 3584 
Q 2878 3584 2943 3579 
Q 3009 3575 3134 3559 
L 3138 2547 
z
" transform="scale(0.015625)"/>
      <path id="DejaVuSans-Bold-51" d="M 4056 2131 
L 4056 0 
L 2931 0 
L 2931 347 
L 2931 1631 
Q 2931 2084 2911 2256 
Q 2891 2428 2841 2509 
Q 2775 2619 2662 2680 
Q 2550 2741 2406 2741 
Q 2056 2741 1856 2470 
Q 1656 2200 1656 1722 
L 1656 0 
L 538 0 
L 538 3500 
L 1656 3500 
L 1656 2988 
Q 1909 3294 2193 3439 
Q 2478 3584 2822 3584 
Q 3428 3584 3742 3212 
Q 4056 2841 4056 2131 
z
" transform="scale(0.015625)"/>
      <path id="DejaVuSans-Bold-44" d="M 2106 1575 
Q 1756 1575 1579 1456 
Q 1403 1338 1403 1106 
Q 1403 894 1545 773 
Q 1688 653 1941 653 
Q 2256 653 2472 879 
Q 2688 1106 2688 1447 
L 2688 1575 
L 2106 1575 
z
M 3816 1997 
L 3816 0 
L 2688 0 
L 2688 519 
Q 2463 200 2181 54 
Q 1900 -91 1497 -91 
Q 953 -91 614 226 
Q 275 544 275 1050 
Q 275 1666 698 1953 
Q 1122 2241 2028 2241 
L 2688 2241 
L 2688 2328 
Q 2688 2594 2478 2717 
Q 2269 2841 1825 2841 
Q 1466 2841 1156 2769 
Q 847 2697 581 2553 
L 581 3406 
Q 941 3494 1303 3539 
Q 1666 3584 2028 3584 
Q 2975 3584 3395 3211 
Q 3816 2838 3816 1997 
z
" transform="scale(0.015625)"/>
      <path id="DejaVuSans-Bold-4f" d="M 538 4863 
L 1656 4863 
L 1656 0 
L 538 0 
L 538 4863 
z
" transform="scale(0.015625)"/>
      <path id="DejaVuSans-Bold-3" transform="scale(0.015625)"/>
      <path id="DejaVuSans-Bold-26" d="M 4288 256 
Q 3956 84 3597 -3 
Q 3238 -91 2847 -91 
Q 1681 -91 1000 561 
Q 319 1213 319 2328 
Q 319 3447 1000 4098 
Q 1681 4750 2847 4750 
Q 3238 4750 3597 4662 
Q 3956 4575 4288 4403 
L 4288 3438 
Q 3953 3666 3628 3772 
Q 3303 3878 2944 3878 
Q 2300 3878 1931 3465 
Q 1563 3053 1563 2328 
Q 1563 1606 1931 1193 
Q 2300 781 2944 781 
Q 3303 781 3628 887 
Q 3953 994 4288 1222 
L 4288 256 
z
" transform="scale(0.015625)"/>
      <path id="DejaVuSans-Bold-4c" d="M 538 3500 
L 1656 3500 
L 1656 0 
L 538 0 
L 538 3500 
z
M 538 4863 
L 1656 4863 
L 1656 3950 
L 538 3950 
L 538 4863 
z
" transform="scale(0.015625)"/>
      <path id="DejaVuSans-Bold-45" d="M 2400 722 
Q 2759 722 2948 984 
Q 3138 1247 3138 1747 
Q 3138 2247 2948 2509 
Q 2759 2772 2400 2772 
Q 2041 2772 1848 2508 
Q 1656 2244 1656 1747 
Q 1656 1250 1848 986 
Q 2041 722 2400 722 
z
M 1656 2988 
Q 1888 3294 2169 3439 
Q 2450 3584 2816 3584 
Q 3463 3584 3878 3070 
Q 4294 2556 4294 1747 
Q 4294 938 3878 423 
Q 3463 -91 2816 -91 
Q 2450 -91 2169 54 
Q 1888 200 1656 506 
L 1656 0 
L 538 0 
L 538 4863 
L 1656 4863 
L 1656 2988 
z
" transform="scale(0.015625)"/>
      <path id="DejaVuSans-Bold-52" d="M 2203 2784 
Q 1831 2784 1636 2517 
Q 1441 2250 1441 1747 
Q 1441 1244 1636 976 
Q 1831 709 2203 709 
Q 2569 709 2762 976 
Q 2956 1244 2956 1747 
Q 2956 2250 2762 2517 
Q 2569 2784 2203 2784 
z
M 2203 3584 
Q 3106 3584 3614 3096 
Q 4122 2609 4122 1747 
Q 4122 884 3614 396 
Q 3106 -91 2203 -91 
Q 1297 -91 786 396 
Q 275 884 275 1747 
Q 275 2609 786 3096 
Q 1297 3584 2203 3584 
z
" transform="scale(0.015625)"/>
      <path id="DejaVuSans-Bold-56" d="M 3272 3391 
L 3272 2541 
Q 2913 2691 2578 2766 
Q 2244 2841 1947 2841 
Q 1628 2841 1473 2761 
Q 1319 2681 1319 2516 
Q 1319 2381 1436 2309 
Q 1553 2238 1856 2203 
L 2053 2175 
Q 2913 2066 3209 1816 
Q 3506 1566 3506 1031 
Q 3506 472 3093 190 
Q 2681 -91 1863 -91 
Q 1516 -91 1145 -36 
Q 775 19 384 128 
L 384 978 
Q 719 816 1070 734 
Q 1422 653 1784 653 
Q 2113 653 2278 743 
Q 2444 834 2444 1013 
Q 2444 1163 2330 1236 
Q 2216 1309 1875 1350 
L 1678 1375 
Q 931 1469 631 1722 
Q 331 1975 331 2491 
Q 331 3047 712 3315 
Q 1094 3584 1881 3584 
Q 2191 3584 2531 3537 
Q 2872 3491 3272 3391 
z
" transform="scale(0.015625)"/>
      <path id="DejaVuSans-Bold-47" d="M 2919 2988 
L 2919 4863 
L 4044 4863 
L 4044 0 
L 2919 0 
L 2919 506 
Q 2688 197 2409 53 
Q 2131 -91 1766 -91 
Q 1119 -91 703 423 
Q 288 938 288 1747 
Q 288 2556 703 3070 
Q 1119 3584 1766 3584 
Q 2128 3584 2408 3439 
Q 2688 3294 2919 2988 
z
M 2181 722 
Q 2541 722 2730 984 
Q 2919 1247 2919 1747 
Q 2919 2247 2730 2509 
Q 2541 2772 2181 2772 
Q 1825 2772 1636 2509 
Q 1447 2247 1447 1747 
Q 1447 1247 1636 984 
Q 1825 722 2181 722 
z
" transform="scale(0.015625)"/>
     </defs>
     <use xlink:href="#DejaVuSans-Bold-28"/>
     <use xlink:href="#DejaVuSans-Bold-5b" transform="translate(68.3125 0)"/>
     <use xlink:href="#DejaVuSans-Bold-57" transform="translate(132.8125 0)"/>
     <use xlink:href="#DejaVuSans-Bold-48" transform="translate(180.609375 0)"/>
     <use xlink:href="#DejaVuSans-Bold-55" transform="translate(248.4375 0)"/>
     <use xlink:href="#DejaVuSans-Bold-51" transform="translate(297.75 0)"/>
     <use xlink:href="#DejaVuSans-Bold-44" transform="translate(368.9375 0)"/>
     <use xlink:href="#DejaVuSans-Bold-4f" transform="translate(436.421875 0)"/>
     <use xlink:href="#DejaVuSans-Bold-3" transform="translate(470.703125 0)"/>
     <use xlink:href="#DejaVuSans-Bold-26" transform="translate(505.515625 0)"/>
     <use xlink:href="#DejaVuSans-Bold-44" transform="translate(578.90625 0)"/>
     <use xlink:href="#DejaVuSans-Bold-4f" transform="translate(646.390625 0)"/>
     <use xlink:href="#DejaVuSans-Bold-4c" transform="translate(680.671875 0)"/>
     <use xlink:href="#DejaVuSans-Bold-45" transform="translate(714.953125 0)"/>
     <use xlink:href="#DejaVuSans-Bold-55" transform="translate(786.53125 0)"/>
     <use xlink:href="#DejaVuSans-Bold-44" transform="translate(835.84375 0)"/>
     <use xlink:href="#DejaVuSans-Bold-57" transform="translate(903.328125 0)"/>
     <use xlink:href="#DejaVuSans-Bold-4c" transform="translate(951.125 0)"/>
     <use xlink:href="#DejaVuSans-Bold-52" transform="translate(985.40625 0)"/>
     <use xlink:href="#DejaVuSans-Bold-51" transform="translate(1054.109375 0)"/>
     <use xlink:href="#DejaVuSans-Bold-3" transform="translate(1125.296875 0)"/>
     <use xlink:href="#DejaVuSans-Bold-4c" transform="translate(1160.109375 0)"/>
     <use xlink:href="#DejaVuSans-Bold-51" transform="translate(1194.390625 0)"/>
     <use xlink:href="#DejaVuSans-Bold-3" transform="translate(1265.578125 0)"/>
     <use xlink:href="#DejaVuSans-Bold-56" transform="translate(1300.390625 0)"/>
     <use xlink:href="#DejaVuSans-Bold-47" transform="translate(1359.90625 0)"/>
     <use xlink:href="#DejaVuSans-Bold-44" transform="translate(1431.484375 0)"/>
     <use xlink:href="#DejaVuSans-Bold-57" transform="translate(1498.96875 0)"/>
     <use xlink:href="#DejaVuSans-Bold-44" transform="translate(1546.765625 0)"/>
    </g>
   </g>
   <g id="legend_1">
    <g id="line2d_36">
     <path d="M 61.56 35.416562 
L 71.56 35.416562 
L 81.56 35.416562 
" style="fill: none; stroke-dasharray: 5.55,2.4; stroke-dashoffset: 0; stroke: #aab3bd; stroke-width: 1.5"/>
    </g>
    <g id="text_20">
     <!-- Ideal -->
     <g transform="translate(89.56 38.916562) scale(0.1 -0.1)">
      <use xlink:href="#DejaVuSans-2c"/>
      <use xlink:href="#DejaVuSans-47" transform="translate(29.5 0)"/>
      <use xlink:href="#DejaVuSans-48" transform="translate(92.984375 0)"/>
      <use xlink:href="#DejaVuSans-44" transform="translate(154.515625 0)"/>
      <use xlink:href="#DejaVuSans-4f" transform="translate(215.796875 0)"/>
     </g>
    </g>
    <g id="line2d_37">
     <path d="M 61.56 50.417344 
L 71.56 50.417344 
L 81.56 50.417344 
" style="fill: none; stroke: #395d9c; stroke-width: 2.2; stroke-linecap: square"/>
     <g>
      <use xlink:href="#m52c5c66da5" x="71.56" y="50.417344" style="fill: #395d9c; stroke: #395d9c"/>
     </g>
    </g>
    <g id="text_21">
     <!-- Clinical (Brier 0.099) -->
     <g transform="translate(89.56 53.917344) scale(0.1 -0.1)">
      <defs>
       <path id="DejaVuSans-26" d="M 4122 4306 
L 4122 3641 
Q 3803 3938 3442 4084 
Q 3081 4231 2675 4231 
Q 1875 4231 1450 3742 
Q 1025 3253 1025 2328 
Q 1025 1406 1450 917 
Q 1875 428 2675 428 
Q 3081 428 3442 575 
Q 3803 722 4122 1019 
L 4122 359 
Q 3791 134 3420 21 
Q 3050 -91 2638 -91 
Q 1578 -91 968 557 
Q 359 1206 359 2328 
Q 359 3453 968 4101 
Q 1578 4750 2638 4750 
Q 3056 4750 3426 4639 
Q 3797 4528 4122 4306 
z
" transform="scale(0.015625)"/>
       <path id="DejaVuSans-b" d="M 1984 4856 
Q 1566 4138 1362 3434 
Q 1159 2731 1159 2009 
Q 1159 1288 1364 580 
Q 1569 -128 1984 -844 
L 1484 -844 
Q 1016 -109 783 600 
Q 550 1309 550 2009 
Q 550 2706 781 3412 
Q 1013 4119 1484 4856 
L 1984 4856 
z
" transform="scale(0.015625)"/>
       <path id="DejaVuSans-25" d="M 1259 2228 
L 1259 519 
L 2272 519 
Q 2781 519 3026 730 
Q 3272 941 3272 1375 
Q 3272 1813 3026 2020 
Q 2781 2228 2272 2228 
L 1259 2228 
z
M 1259 4147 
L 1259 2741 
L 2194 2741 
Q 2656 2741 2882 2914 
Q 3109 3088 3109 3444 
Q 3109 3797 2882 3972 
Q 2656 4147 2194 4147 
L 1259 4147 
z
M 628 4666 
L 2241 4666 
Q 2963 4666 3353 4366 
Q 3744 4066 3744 3513 
Q 3744 3084 3544 2831 
Q 3344 2578 2956 2516 
Q 3422 2416 3680 2098 
Q 3938 1781 3938 1306 
Q 3938 681 3513 340 
Q 3088 0 2303 0 
L 628 0 
L 628 4666 
z
" transform="scale(0.015625)"/>
       <path id="DejaVuSans-1c" d="M 703 97 
L 703 672 
Q 941 559 1184 500 
Q 1428 441 1663 441 
Q 2288 441 2617 861 
Q 2947 1281 2994 2138 
Q 2813 1869 2534 1725 
Q 2256 1581 1919 1581 
Q 1219 1581 811 2004 
Q 403 2428 403 3163 
Q 403 3881 828 4315 
Q 1253 4750 1959 4750 
Q 2769 4750 3195 4129 
Q 3622 3509 3622 2328 
Q 3622 1225 3098 567 
Q 2575 -91 1691 -91 
Q 1453 -91 1209 -44 
Q 966 3 703 97 
z
M 1959 2075 
Q 2384 2075 2632 2365 
Q 2881 2656 2881 3163 
Q 2881 3666 2632 3958 
Q 2384 4250 1959 4250 
Q 1534 4250 1286 3958 
Q 1038 3666 1038 3163 
Q 1038 2656 1286 2365 
Q 1534 2075 1959 2075 
z
" transform="scale(0.015625)"/>
       <path id="DejaVuSans-c" d="M 513 4856 
L 1013 4856 
Q 1481 4119 1714 3412 
Q 1947 2706 1947 2009 
Q 1947 1309 1714 600 
Q 1481 -109 1013 -844 
L 513 -844 
Q 928 -128 1133 580 
Q 1338 1288 1338 2009 
Q 1338 2731 1133 3434 
Q 928 4138 513 4856 
z
" transform="scale(0.015625)"/>
      </defs>
      <use xlink:href="#DejaVuSans-26"/>
      <use xlink:href="#DejaVuSans-4f" transform="translate(69.828125 0)"/>
      <use xlink:href="#DejaVuSans-4c" transform="translate(97.609375 0)"/>
      <use xlink:href="#DejaVuSans-51" transform="translate(125.390625 0)"/>
      <use xlink:href="#DejaVuSans-4c" transform="translate(188.765625 0)"/>
      <use xlink:href="#DejaVuSans-46" transform="translate(216.546875 0)"/>
      <use xlink:href="#DejaVuSans-44" transform="translate(271.53125 0)"/>
      <use xlink:href="#DejaVuSans-4f" transform="translate(332.8125 0)"/>
      <use xlink:href="#DejaVuSans-3" transform="translate(360.59375 0)"/>
      <use xlink:href="#DejaVuSans-b" transform="translate(392.375 0)"/>
      <use xlink:href="#DejaVuSans-25" transform="translate(431.390625 0)"/>
      <use xlink:href="#DejaVuSans-55" transform="translate(500 0)"/>
      <use xlink:href="#DejaVuSans-4c" transform="translate(541.109375 0)"/>
      <use xlink:href="#DejaVuSans-48" transform="translate(568.890625 0)"/>
      <use xlink:href="#DejaVuSans-55" transform="translate(630.421875 0)"/>
      <use xlink:href="#DejaVuSans-3" transform="translate(671.53125 0)"/>
      <use xlink:href="#DejaVuSans-13" transform="translate(703.3125 0)"/>
      <use xlink:href="#DejaVuSans-11" transform="translate(766.9375 0)"/>
      <use xlink:href="#DejaVuSans-13" transform="translate(798.71875 0)"/>
      <use xlink:href="#DejaVuSans-1c" transform="translate(862.34375 0)"/>
      <use xlink:href="#DejaVuSans-1c" transform="translate(925.96875 0)"/>
      <use xlink:href="#DejaVuSans-c" transform="translate(989.59375 0)"/>
     </g>
    </g>
    <g id="line2d_38">
     <path d="M 61.56 65.418125 
L 71.56 65.418125 
L 81.56 65.418125 
" style="fill: none; stroke: #008c7a; stroke-width: 2.2; stroke-linecap: square"/>
     <g>
      <use xlink:href="#mcf30fd3478" x="71.56" y="65.418125" style="fill: #008c7a; stroke: #008c7a"/>
     </g>
    </g>
    <g id="text_22">
     <!-- Clinical + AEC gate (Brier 0.097) -->
     <g transform="translate(89.56 68.918125) scale(0.1 -0.1)">
      <defs>
       <path id="DejaVuSans-e" d="M 2944 4013 
L 2944 2272 
L 4684 2272 
L 4684 1741 
L 2944 1741 
L 2944 0 
L 2419 0 
L 2419 1741 
L 678 1741 
L 678 2272 
L 2419 2272 
L 2419 4013 
L 2944 4013 
z
" transform="scale(0.015625)"/>
       <path id="DejaVuSans-24" d="M 2188 4044 
L 1331 1722 
L 3047 1722 
L 2188 4044 
z
M 1831 4666 
L 2547 4666 
L 4325 0 
L 3669 0 
L 3244 1197 
L 1141 1197 
L 716 0 
L 50 0 
L 1831 4666 
z
" transform="scale(0.015625)"/>
       <path id="DejaVuSans-28" d="M 628 4666 
L 3578 4666 
L 3578 4134 
L 1259 4134 
L 1259 2753 
L 3481 2753 
L 3481 2222 
L 1259 2222 
L 1259 531 
L 3634 531 
L 3634 0 
L 628 0 
L 628 4666 
z
" transform="scale(0.015625)"/>
       <path id="DejaVuSans-4a" d="M 2906 1791 
Q 2906 2416 2648 2759 
Q 2391 3103 1925 3103 
Q 1463 3103 1205 2759 
Q 947 2416 947 1791 
Q 947 1169 1205 825 
Q 1463 481 1925 481 
Q 2391 481 2648 825 
Q 2906 1169 2906 1791 
z
M 3481 434 
Q 3481 -459 3084 -895 
Q 2688 -1331 1869 -1331 
Q 1566 -1331 1297 -1286 
Q 1028 -1241 775 -1147 
L 775 -588 
Q 1028 -725 1275 -790 
Q 1522 -856 1778 -856 
Q 2344 -856 2625 -561 
Q 2906 -266 2906 331 
L 2906 616 
Q 2728 306 2450 153 
Q 2172 0 1784 0 
Q 1141 0 747 490 
Q 353 981 353 1791 
Q 353 2603 747 3093 
Q 1141 3584 1784 3584 
Q 2172 3584 2450 3431 
Q 2728 3278 2906 2969 
L 2906 3500 
L 3481 3500 
L 3481 434 
z
" transform="scale(0.015625)"/>
      </defs>
      <use xlink:href="#DejaVuSans-26"/>
      <use xlink:href="#DejaVuSans-4f" transform="translate(69.828125 0)"/>
      <use xlink:href="#DejaVuSans-4c" transform="translate(97.609375 0)"/>
      <use xlink:href="#DejaVuSans-51" transform="translate(125.390625 0)"/>
      <use xlink:href="#DejaVuSans-4c" transform="translate(188.765625 0)"/>
      <use xlink:href="#DejaVuSans-46" transform="translate(216.546875 0)"/>
      <use xlink:href="#DejaVuSans-44" transform="translate(271.53125 0)"/>
      <use xlink:href="#DejaVuSans-4f" transform="translate(332.8125 0)"/>
      <use xlink:href="#DejaVuSans-3" transform="translate(360.59375 0)"/>
      <use xlink:href="#DejaVuSans-e" transform="translate(392.375 0)"/>
      <use xlink:href="#DejaVuSans-3" transform="translate(476.171875 0)"/>
      <use xlink:href="#DejaVuSans-24" transform="translate(507.953125 0)"/>
      <use xlink:href="#DejaVuSans-28" transform="translate(576.359375 0)"/>
      <use xlink:href="#DejaVuSans-26" transform="translate(639.546875 0)"/>
      <use xlink:href="#DejaVuSans-3" transform="translate(709.375 0)"/>
      <use xlink:href="#DejaVuSans-4a" transform="translate(741.15625 0)"/>
      <use xlink:href="#DejaVuSans-44" transform="translate(804.640625 0)"/>
      <use xlink:href="#DejaVuSans-57" transform="translate(865.921875 0)"/>
      <use xlink:href="#DejaVuSans-48" transform="translate(905.125 0)"/>
      <use xlink:href="#DejaVuSans-3" transform="translate(966.65625 0)"/>
      <use xlink:href="#DejaVuSans-b" transform="translate(998.4375 0)"/>
      <use xlink:href="#DejaVuSans-25" transform="translate(1037.453125 0)"/>
      <use xlink:href="#DejaVuSans-55" transform="translate(1106.0625 0)"/>
      <use xlink:href="#DejaVuSans-4c" transform="translate(1147.171875 0)"/>
      <use xlink:href="#DejaVuSans-48" transform="translate(1174.953125 0)"/>
      <use xlink:href="#DejaVuSans-55" transform="translate(1236.484375 0)"/>
      <use xlink:href="#DejaVuSans-3" transform="translate(1277.59375 0)"/>
      <use xlink:href="#DejaVuSans-13" transform="translate(1309.375 0)"/>
      <use xlink:href="#DejaVuSans-11" transform="translate(1373 0)"/>
      <use xlink:href="#DejaVuSans-13" transform="translate(1404.78125 0)"/>
      <use xlink:href="#DejaVuSans-1c" transform="translate(1468.40625 0)"/>
      <use xlink:href="#DejaVuSans-1a" transform="translate(1532.03125 0)"/>
      <use xlink:href="#DejaVuSans-c" transform="translate(1595.65625 0)"/>
     </g>
    </g>
   </g>
  </g>
  <g id="text_23">
   <!-- Platt calibration fitted on g1090 out-of-fold scores; deciles shown in sdata. -->
   <g style="fill: #58606a" transform="translate(7.2 373.102125) scale(0.085 -0.085)">
    <defs>
     <path id="DejaVuSans-33" d="M 1259 4147 
L 1259 2394 
L 2053 2394 
Q 2494 2394 2734 2622 
Q 2975 2850 2975 3272 
Q 2975 3691 2734 3919 
Q 2494 4147 2053 4147 
L 1259 4147 
z
M 628 4666 
L 2053 4666 
Q 2838 4666 3239 4311 
Q 3641 3956 3641 3272 
Q 3641 2581 3239 2228 
Q 2838 1875 2053 1875 
L 1259 1875 
L 1259 0 
L 628 0 
L 628 4666 
z
" transform="scale(0.015625)"/>
     <path id="DejaVuSans-13af" d="M 3431 3500 
L 3431 0 
L 2853 0 
L 2853 3053 
L 1275 3053 
L 1275 0 
L 697 0 
L 697 3053 
L 147 3053 
L 147 3500 
L 697 3500 
L 697 3744 
Q 697 4316 967 4589 
Q 1238 4863 1797 4863 
L 2375 4863 
L 2375 4384 
L 1825 4384 
Q 1516 4384 1395 4259 
Q 1275 4134 1275 3809 
L 1275 3500 
L 3431 3500 
z
M 2853 4856 
L 3431 4856 
L 3431 4128 
L 2853 4128 
L 2853 4856 
z
" transform="scale(0.015625)"/>
     <path id="DejaVuSans-58" d="M 544 1381 
L 544 3500 
L 1119 3500 
L 1119 1403 
Q 1119 906 1312 657 
Q 1506 409 1894 409 
Q 2359 409 2629 706 
Q 2900 1003 2900 1516 
L 2900 3500 
L 3475 3500 
L 3475 0 
L 2900 0 
L 2900 538 
Q 2691 219 2414 64 
Q 2138 -91 1772 -91 
Q 1169 -91 856 284 
Q 544 659 544 1381 
z
M 1991 3584 
L 1991 3584 
z
" transform="scale(0.015625)"/>
     <path id="DejaVuSans-49" d="M 2375 4863 
L 2375 4384 
L 1825 4384 
Q 1516 4384 1395 4259 
Q 1275 4134 1275 3809 
L 1275 3500 
L 2222 3500 
L 2222 3053 
L 1275 3053 
L 1275 0 
L 697 0 
L 697 3053 
L 147 3053 
L 147 3500 
L 697 3500 
L 697 3744 
Q 697 4328 969 4595 
Q 1241 4863 1831 4863 
L 2375 4863 
z
" transform="scale(0.015625)"/>
     <path id="DejaVuSans-1e" d="M 750 3309 
L 1409 3309 
L 1409 2516 
L 750 2516 
L 750 3309 
z
M 750 794 
L 1409 794 
L 1409 256 
L 897 -744 
L 494 -744 
L 750 256 
L 750 794 
z
" transform="scale(0.015625)"/>
     <path id="DejaVuSans-4b" d="M 3513 2113 
L 3513 0 
L 2938 0 
L 2938 2094 
Q 2938 2591 2744 2837 
Q 2550 3084 2163 3084 
Q 1697 3084 1428 2787 
Q 1159 2491 1159 1978 
L 1159 0 
L 581 0 
L 581 4863 
L 1159 4863 
L 1159 2956 
Q 1366 3272 1645 3428 
Q 1925 3584 2291 3584 
Q 2894 3584 3203 3211 
Q 3513 2838 3513 2113 
z
" transform="scale(0.015625)"/>
    </defs>
    <use xlink:href="#DejaVuSans-33"/>
    <use xlink:href="#DejaVuSans-4f" transform="translate(60.296875 0)"/>
    <use xlink:href="#DejaVuSans-44" transform="translate(88.078125 0)"/>
    <use xlink:href="#DejaVuSans-57" transform="translate(149.359375 0)"/>
    <use xlink:href="#DejaVuSans-57" transform="translate(188.5625 0)"/>
    <use xlink:href="#DejaVuSans-3" transform="translate(227.765625 0)"/>
    <use xlink:href="#DejaVuSans-46" transform="translate(259.546875 0)"/>
    <use xlink:href="#DejaVuSans-44" transform="translate(314.53125 0)"/>
    <use xlink:href="#DejaVuSans-4f" transform="translate(375.8125 0)"/>
    <use xlink:href="#DejaVuSans-4c" transform="translate(403.59375 0)"/>
    <use xlink:href="#DejaVuSans-45" transform="translate(431.375 0)"/>
    <use xlink:href="#DejaVuSans-55" transform="translate(494.859375 0)"/>
    <use xlink:href="#DejaVuSans-44" transform="translate(535.96875 0)"/>
    <use xlink:href="#DejaVuSans-57" transform="translate(597.25 0)"/>
    <use xlink:href="#DejaVuSans-4c" transform="translate(636.453125 0)"/>
    <use xlink:href="#DejaVuSans-52" transform="translate(664.234375 0)"/>
    <use xlink:href="#DejaVuSans-51" transform="translate(725.421875 0)"/>
    <use xlink:href="#DejaVuSans-3" transform="translate(788.796875 0)"/>
    <use xlink:href="#DejaVuSans-13af" transform="translate(820.578125 0)"/>
    <use xlink:href="#DejaVuSans-57" transform="translate(883.5625 0)"/>
    <use xlink:href="#DejaVuSans-57" transform="translate(922.765625 0)"/>
    <use xlink:href="#DejaVuSans-48" transform="translate(961.96875 0)"/>
    <use xlink:href="#DejaVuSans-47" transform="translate(1023.5 0)"/>
    <use xlink:href="#DejaVuSans-3" transform="translate(1086.984375 0)"/>
    <use xlink:href="#DejaVuSans-52" transform="translate(1118.765625 0)"/>
    <use xlink:href="#DejaVuSans-51" transform="translate(1179.953125 0)"/>
    <use xlink:href="#DejaVuSans-3" transform="translate(1243.328125 0)"/>
    <use xlink:href="#DejaVuSans-4a" transform="translate(1275.109375 0)"/>
    <use xlink:href="#DejaVuSans-14" transform="translate(1338.59375 0)"/>
    <use xlink:href="#DejaVuSans-13" transform="translate(1402.21875 0)"/>
    <use xlink:href="#DejaVuSans-1c" transform="translate(1465.84375 0)"/>
    <use xlink:href="#DejaVuSans-13" transform="translate(1529.46875 0)"/>
    <use xlink:href="#DejaVuSans-3" transform="translate(1593.09375 0)"/>
    <use xlink:href="#DejaVuSans-52" transform="translate(1624.875 0)"/>
    <use xlink:href="#DejaVuSans-58" transform="translate(1686.0625 0)"/>
    <use xlink:href="#DejaVuSans-57" transform="translate(1749.4375 0)"/>
    <use xlink:href="#DejaVuSans-10" transform="translate(1788.640625 0)"/>
    <use xlink:href="#DejaVuSans-52" transform="translate(1826.578125 0)"/>
    <use xlink:href="#DejaVuSans-49" transform="translate(1887.765625 0)"/>
    <use xlink:href="#DejaVuSans-10" transform="translate(1917.5 0)"/>
    <use xlink:href="#DejaVuSans-49" transform="translate(1953.578125 0)"/>
    <use xlink:href="#DejaVuSans-52" transform="translate(1988.78125 0)"/>
    <use xlink:href="#DejaVuSans-4f" transform="translate(2049.96875 0)"/>
    <use xlink:href="#DejaVuSans-47" transform="translate(2077.75 0)"/>
    <use xlink:href="#DejaVuSans-3" transform="translate(2141.234375 0)"/>
    <use xlink:href="#DejaVuSans-56" transform="translate(2173.015625 0)"/>
    <use xlink:href="#DejaVuSans-46" transform="translate(2225.109375 0)"/>
    <use xlink:href="#DejaVuSans-52" transform="translate(2280.09375 0)"/>
    <use xlink:href="#DejaVuSans-55" transform="translate(2341.28125 0)"/>
    <use xlink:href="#DejaVuSans-48" transform="translate(2380.1875 0)"/>
    <use xlink:href="#DejaVuSans-56" transform="translate(2441.71875 0)"/>
    <use xlink:href="#DejaVuSans-1e" transform="translate(2493.8125 0)"/>
    <use xlink:href="#DejaVuSans-3" transform="translate(2527.5 0)"/>
    <use xlink:href="#DejaVuSans-47" transform="translate(2559.28125 0)"/>
    <use xlink:href="#DejaVuSans-48" transform="translate(2622.765625 0)"/>
    <use xlink:href="#DejaVuSans-46" transform="translate(2684.296875 0)"/>
    <use xlink:href="#DejaVuSans-4c" transform="translate(2739.28125 0)"/>
    <use xlink:href="#DejaVuSans-4f" transform="translate(2767.0625 0)"/>
    <use xlink:href="#DejaVuSans-48" transform="translate(2794.84375 0)"/>
    <use xlink:href="#DejaVuSans-56" transform="translate(2856.375 0)"/>
    <use xlink:href="#DejaVuSans-3" transform="translate(2908.46875 0)"/>
    <use xlink:href="#DejaVuSans-56" transform="translate(2940.25 0)"/>
    <use xlink:href="#DejaVuSans-4b" transform="translate(2992.34375 0)"/>
    <use xlink:href="#DejaVuSans-52" transform="translate(3055.71875 0)"/>
    <use xlink:href="#DejaVuSans-5a" transform="translate(3116.90625 0)"/>
    <use xlink:href="#DejaVuSans-51" transform="translate(3198.6875 0)"/>
    <use xlink:href="#DejaVuSans-3" transform="translate(3262.0625 0)"/>
    <use xlink:href="#DejaVuSans-4c" transform="translate(3293.84375 0)"/>
    <use xlink:href="#DejaVuSans-51" transform="translate(3321.625 0)"/>
    <use xlink:href="#DejaVuSans-3" transform="translate(3385 0)"/>
    <use xlink:href="#DejaVuSans-56" transform="translate(3416.78125 0)"/>
    <use xlink:href="#DejaVuSans-47" transform="translate(3468.875 0)"/>
    <use xlink:href="#DejaVuSans-44" transform="translate(3532.359375 0)"/>
    <use xlink:href="#DejaVuSans-57" transform="translate(3593.640625 0)"/>
    <use xlink:href="#DejaVuSans-44" transform="translate(3632.84375 0)"/>
    <use xlink:href="#DejaVuSans-11" transform="translate(3694.125 0)"/>
   </g>
  </g>
 </g>
 <defs>
  <clipPath id="p06d7ac4dc4">
   <rect x="52.56" y="22.318125" width="334.8" height="310.464"/>
  </clipPath>
 </defs>
</svg>
