<?xml version="1.0" encoding="utf-8" standalone="no"?>
<!DOCTYPE svg PUBLIC "-//W3C//DTD SVG 1.1//EN"
  "http://www.w3.org/Graphics/SVG/1.1/DTD/svg11.dtd">
<svg xmlns:xlink="http://www.w3.org/1999/xlink" width="700.743125pt" height="438.720117pt" viewBox="0 0 700.743125 438.720117" xmlns="http://www.w3.org/2000/svg" version="1.1">
 <metadata>
  <rdf:RDF xmlns:dc="http://purl.org/dc/elements/1.1/" xmlns:cc="http://creativecommons.org/ns#" xmlns:rdf="http://www.w3.org/1999/02/22-rdf-syntax-ns#">
   <cc:Work>
    <dc:type rdf:resource="http://purl.org/dc/dcmitype/StillImage"/>
    <dc:date>2026-06-27T09:17:43.898286</dc:date>
    <dc:format>image/svg+xml</dc:format>
    <dc:creator>
     <cc:Agent>
      <dc:title>Matplotlib v3.11.0, https://matplotlib.org/</dc:title>
     </cc:Agent>
    </dc:creator>
   </cc:Work>
  </rdf:RDF>
 </metadata>
 <defs>
  <style type="text/css">*{stroke-linejoin: round; stroke-linecap: butt}</style>
 </defs>
 <g id="figure_1">
  <g id="patch_1">
   <path d="M 0 438.720117 
L 700.743125 438.720117 
L 700.743125 0 
L 0 0 
z
" style="fill: #ffffff"/>
  </g>
  <g id="axes_1">
   <g id="patch_2">
    <path d="M 146.703125 382.678125 
L 693.543125 382.678125 
L 693.543125 22.318125 
L 146.703125 22.318125 
z
" style="fill: #ffffff"/>
   </g>
   <g id="matplotlib.axis_1">
    <g id="xtick_1">
     <g id="line2d_1">
      <path d="M 200.469168 382.678125 
L 200.469168 22.318125 
" clip-path="url(#p0ed10ddb63)" style="fill: none; stroke: #d8dee6; stroke-opacity: 0.8; stroke-width: 0.7; stroke-linecap: square"/>
     </g>
     <g id="line2d_2">
      <defs>
       <path id="m79f0a6ad4b" d="M 0 0 
L 0 3.5 
" style="stroke: #000000; stroke-width: 0.8"/>
      </defs>
      <g>
       <use xlink:href="#m79f0a6ad4b" x="200.469168" y="382.678125" style="stroke: #000000; stroke-width: 0.8"/>
      </g>
     </g>
     <g id="text_1">
      <!-- 0.0 -->
      <g transform="translate(192.517606 397.275781) scale(0.1 -0.1)">
       <defs>
        <path id="DejaVuSans-13" d="M 2034 4250 
Q 1547 4250 1301 3770 
Q 1056 3291 1056 2328 
Q 1056 1369 1301 889 
Q 1547 409 2034 409 
Q 2525 409 2770 889 
Q 3016 1369 3016 2328 
Q 3016 3291 2770 3770 
Q 2525 4250 2034 4250 
z
M 2034 4750 
Q 2819 4750 3233 4129 
Q 3647 3509 3647 2328 
Q 3647 1150 3233 529 
Q 2819 -91 2034 -91 
Q 1250 -91 836 529 
Q 422 1150 422 2328 
Q 422 3509 836 4129 
Q 1250 4750 2034 4750 
z
" transform="scale(0.015625)"/>
        <path id="DejaVuSans-11" d="M 684 794 
L 1344 794 
L 1344 0 
L 684 0 
L 684 794 
z
" transform="scale(0.015625)"/>
       </defs>
       <use xlink:href="#DejaVuSans-13"/>
       <use xlink:href="#DejaVuSans-11" transform="translate(63.625 0)"/>
       <use xlink:href="#DejaVuSans-13" transform="translate(95.40625 0)"/>
      </g>
     </g>
    </g>
    <g id="xtick_2">
     <g id="line2d_3">
      <path d="M 290.07924 382.678125 
L 290.07924 22.318125 
" clip-path="url(#p0ed10ddb63)" style="fill: none; stroke: #d8dee6; stroke-opacity: 0.8; stroke-width: 0.7; stroke-linecap: square"/>
     </g>
     <g id="line2d_4">
      <g>
       <use xlink:href="#m79f0a6ad4b" x="290.07924" y="382.678125" style="stroke: #000000; stroke-width: 0.8"/>
      </g>
     </g>
     <g id="text_2">
      <!-- 0.1 -->
      <g transform="translate(282.127678 397.275781) scale(0.1 -0.1)">
       <defs>
        <path id="DejaVuSans-14" d="M 794 531 
L 1825 531 
L 1825 4091 
L 703 3866 
L 703 4441 
L 1819 4666 
L 2450 4666 
L 2450 531 
L 3481 531 
L 3481 0 
L 794 0 
L 794 531 
z
" transform="scale(0.015625)"/>
       </defs>
       <use xlink:href="#DejaVuSans-13"/>
       <use xlink:href="#DejaVuSans-11" transform="translate(63.625 0)"/>
       <use xlink:href="#DejaVuSans-14" transform="translate(95.40625 0)"/>
      </g>
     </g>
    </g>
    <g id="xtick_3">
     <g id="line2d_5">
      <path d="M 379.689312 382.678125 
L 379.689312 22.318125 
" clip-path="url(#p0ed10ddb63)" style="fill: none; stroke: #d8dee6; stroke-opacity: 0.8; stroke-width: 0.7; stroke-linecap: square"/>
     </g>
     <g id="line2d_6">
      <g>
       <use xlink:href="#m79f0a6ad4b" x="379.689312" y="382.678125" style="stroke: #000000; stroke-width: 0.8"/>
      </g>
     </g>
     <g id="text_3">
      <!-- 0.2 -->
      <g transform="translate(371.73775 397.275781) scale(0.1 -0.1)">
       <defs>
        <path id="DejaVuSans-15" d="M 1228 531 
L 3431 531 
L 3431 0 
L 469 0 
L 469 531 
Q 828 903 1448 1529 
Q 2069 2156 2228 2338 
Q 2531 2678 2651 2914 
Q 2772 3150 2772 3378 
Q 2772 3750 2511 3984 
Q 2250 4219 1831 4219 
Q 1534 4219 1204 4116 
Q 875 4013 500 3803 
L 500 4441 
Q 881 4594 1212 4672 
Q 1544 4750 1819 4750 
Q 2544 4750 2975 4387 
Q 3406 4025 3406 3419 
Q 3406 3131 3298 2873 
Q 3191 2616 2906 2266 
Q 2828 2175 2409 1742 
Q 1991 1309 1228 531 
z
" transform="scale(0.015625)"/>
       </defs>
       <use xlink:href="#DejaVuSans-13"/>
       <use xlink:href="#DejaVuSans-11" transform="translate(63.625 0)"/>
       <use xlink:href="#DejaVuSans-15" transform="translate(95.40625 0)"/>
      </g>
     </g>
    </g>
    <g id="xtick_4">
     <g id="line2d_7">
      <path d="M 469.299384 382.678125 
L 469.299384 22.318125 
" clip-path="url(#p0ed10ddb63)" style="fill: none; stroke: #d8dee6; stroke-opacity: 0.8; stroke-width: 0.7; stroke-linecap: square"/>
     </g>
     <g id="line2d_8">
      <g>
       <use xlink:href="#m79f0a6ad4b" x="469.299384" y="382.678125" style="stroke: #000000; stroke-width: 0.8"/>
      </g>
     </g>
     <g id="text_4">
      <!-- 0.3 -->
      <g transform="translate(461.347821 397.275781) scale(0.1 -0.1)">
       <defs>
        <path id="DejaVuSans-16" d="M 2597 2516 
Q 3050 2419 3304 2112 
Q 3559 1806 3559 1356 
Q 3559 666 3084 287 
Q 2609 -91 1734 -91 
Q 1441 -91 1130 -33 
Q 819 25 488 141 
L 488 750 
Q 750 597 1062 519 
Q 1375 441 1716 441 
Q 2309 441 2620 675 
Q 2931 909 2931 1356 
Q 2931 1769 2642 2001 
Q 2353 2234 1838 2234 
L 1294 2234 
L 1294 2753 
L 1863 2753 
Q 2328 2753 2575 2939 
Q 2822 3125 2822 3475 
Q 2822 3834 2567 4026 
Q 2313 4219 1838 4219 
Q 1578 4219 1281 4162 
Q 984 4106 628 3988 
L 628 4550 
Q 988 4650 1302 4700 
Q 1616 4750 1894 4750 
Q 2613 4750 3031 4423 
Q 3450 4097 3450 3541 
Q 3450 3153 3228 2886 
Q 3006 2619 2597 2516 
z
" transform="scale(0.015625)"/>
       </defs>
       <use xlink:href="#DejaVuSans-13"/>
       <use xlink:href="#DejaVuSans-11" transform="translate(63.625 0)"/>
       <use xlink:href="#DejaVuSans-16" transform="translate(95.40625 0)"/>
      </g>
     </g>
    </g>
    <g id="xtick_5">
     <g id="line2d_9">
      <path d="M 558.909456 382.678125 
L 558.909456 22.318125 
" clip-path="url(#p0ed10ddb63)" style="fill: none; stroke: #d8dee6; stroke-opacity: 0.8; stroke-width: 0.7; stroke-linecap: square"/>
     </g>
     <g id="line2d_10">
      <g>
       <use xlink:href="#m79f0a6ad4b" x="558.909456" y="382.678125" style="stroke: #000000; stroke-width: 0.8"/>
      </g>
     </g>
     <g id="text_5">
      <!-- 0.4 -->
      <g transform="translate(550.957893 397.275781) scale(0.1 -0.1)">
       <defs>
        <path id="DejaVuSans-17" d="M 2419 4116 
L 825 1625 
L 2419 1625 
L 2419 4116 
z
M 2253 4666 
L 3047 4666 
L 3047 1625 
L 3713 1625 
L 3713 1100 
L 3047 1100 
L 3047 0 
L 2419 0 
L 2419 1100 
L 313 1100 
L 313 1709 
L 2253 4666 
z
" transform="scale(0.015625)"/>
       </defs>
       <use xlink:href="#DejaVuSans-13"/>
       <use xlink:href="#DejaVuSans-11" transform="translate(63.625 0)"/>
       <use xlink:href="#DejaVuSans-17" transform="translate(95.40625 0)"/>
      </g>
     </g>
    </g>
    <g id="xtick_6">
     <g id="line2d_11">
      <path d="M 648.519528 382.678125 
L 648.519528 22.318125 
" clip-path="url(#p0ed10ddb63)" style="fill: none; stroke: #d8dee6; stroke-opacity: 0.8; stroke-width: 0.7; stroke-linecap: square"/>
     </g>
     <g id="line2d_12">
      <g>
       <use xlink:href="#m79f0a6ad4b" x="648.519528" y="382.678125" style="stroke: #000000; stroke-width: 0.8"/>
      </g>
     </g>
     <g id="text_6">
      <!-- 0.5 -->
      <g transform="translate(640.567965 397.275781) scale(0.1 -0.1)">
       <defs>
        <path id="DejaVuSans-18" d="M 691 4666 
L 3169 4666 
L 3169 4134 
L 1269 4134 
L 1269 2991 
Q 1406 3038 1543 3061 
Q 1681 3084 1819 3084 
Q 2600 3084 3056 2656 
Q 3513 2228 3513 1497 
Q 3513 744 3044 326 
Q 2575 -91 1722 -91 
Q 1428 -91 1123 -41 
Q 819 9 494 109 
L 494 744 
Q 775 591 1075 516 
Q 1375 441 1709 441 
Q 2250 441 2565 725 
Q 2881 1009 2881 1497 
Q 2881 1984 2565 2268 
Q 2250 2553 1709 2553 
Q 1456 2553 1204 2497 
Q 953 2441 691 2322 
L 691 4666 
z
" transform="scale(0.015625)"/>
       </defs>
       <use xlink:href="#DejaVuSans-13"/>
       <use xlink:href="#DejaVuSans-11" transform="translate(63.625 0)"/>
       <use xlink:href="#DejaVuSans-18" transform="translate(95.40625 0)"/>
      </g>
     </g>
    </g>
    <g id="text_7">
     <!-- Specificity gain of AEC gate vs clinical -->
     <g transform="translate(325.005156 411.276562) scale(0.1 -0.1)">
      <defs>
       <path id="DejaVuSans-36" d="M 3425 4513 
L 3425 3897 
Q 3066 4069 2747 4153 
Q 2428 4238 2131 4238 
Q 1616 4238 1336 4038 
Q 1056 3838 1056 3469 
Q 1056 3159 1242 3001 
Q 1428 2844 1947 2747 
L 2328 2669 
Q 3034 2534 3370 2195 
Q 3706 1856 3706 1288 
Q 3706 609 3251 259 
Q 2797 -91 1919 -91 
Q 1588 -91 1214 -16 
Q 841 59 441 206 
L 441 856 
Q 825 641 1194 531 
Q 1563 422 1919 422 
Q 2459 422 2753 634 
Q 3047 847 3047 1241 
Q 3047 1584 2836 1778 
Q 2625 1972 2144 2069 
L 1759 2144 
Q 1053 2284 737 2584 
Q 422 2884 422 3419 
Q 422 4038 858 4394 
Q 1294 4750 2059 4750 
Q 2388 4750 2728 4690 
Q 3069 4631 3425 4513 
z
" transform="scale(0.015625)"/>
       <path id="DejaVuSans-53" d="M 1159 525 
L 1159 -1331 
L 581 -1331 
L 581 3500 
L 1159 3500 
L 1159 2969 
Q 1341 3281 1617 3432 
Q 1894 3584 2278 3584 
Q 2916 3584 3314 3078 
Q 3713 2572 3713 1747 
Q 3713 922 3314 415 
Q 2916 -91 2278 -91 
Q 1894 -91 1617 61 
Q 1341 213 1159 525 
z
M 3116 1747 
Q 3116 2381 2855 2742 
Q 2594 3103 2138 3103 
Q 1681 3103 1420 2742 
Q 1159 2381 1159 1747 
Q 1159 1113 1420 752 
Q 1681 391 2138 391 
Q 2594 391 2855 752 
Q 3116 1113 3116 1747 
z
" transform="scale(0.015625)"/>
       <path id="DejaVuSans-48" d="M 3597 1894 
L 3597 1613 
L 953 1613 
Q 991 1019 1311 708 
Q 1631 397 2203 397 
Q 2534 397 2845 478 
Q 3156 559 3463 722 
L 3463 178 
Q 3153 47 2828 -22 
Q 2503 -91 2169 -91 
Q 1331 -91 842 396 
Q 353 884 353 1716 
Q 353 2575 817 3079 
Q 1281 3584 2069 3584 
Q 2775 3584 3186 3129 
Q 3597 2675 3597 1894 
z
M 3022 2063 
Q 3016 2534 2758 2815 
Q 2500 3097 2075 3097 
Q 1594 3097 1305 2825 
Q 1016 2553 972 2059 
L 3022 2063 
z
" transform="scale(0.015625)"/>
       <path id="DejaVuSans-46" d="M 3122 3366 
L 3122 2828 
Q 2878 2963 2633 3030 
Q 2388 3097 2138 3097 
Q 1578 3097 1268 2742 
Q 959 2388 959 1747 
Q 959 1106 1268 751 
Q 1578 397 2138 397 
Q 2388 397 2633 464 
Q 2878 531 3122 666 
L 3122 134 
Q 2881 22 2623 -34 
Q 2366 -91 2075 -91 
Q 1284 -91 818 406 
Q 353 903 353 1747 
Q 353 2603 823 3093 
Q 1294 3584 2113 3584 
Q 2378 3584 2631 3529 
Q 2884 3475 3122 3366 
z
" transform="scale(0.015625)"/>
       <path id="DejaVuSans-4c" d="M 603 3500 
L 1178 3500 
L 1178 0 
L 603 0 
L 603 3500 
z
M 603 4863 
L 1178 4863 
L 1178 4134 
L 603 4134 
L 603 4863 
z
" transform="scale(0.015625)"/>
       <path id="DejaVuSans-13af" d="M 3431 3500 
L 3431 0 
L 2853 0 
L 2853 3053 
L 1275 3053 
L 1275 0 
L 697 0 
L 697 3053 
L 147 3053 
L 147 3500 
L 697 3500 
L 697 3744 
Q 697 4316 967 4589 
Q 1238 4863 1797 4863 
L 2375 4863 
L 2375 4384 
L 1825 4384 
Q 1516 4384 1395 4259 
Q 1275 4134 1275 3809 
L 1275 3500 
L 3431 3500 
z
M 2853 4856 
L 3431 4856 
L 3431 4128 
L 2853 4128 
L 2853 4856 
z
" transform="scale(0.015625)"/>
       <path id="DejaVuSans-57" d="M 1172 4494 
L 1172 3500 
L 2356 3500 
L 2356 3053 
L 1172 3053 
L 1172 1153 
Q 1172 725 1289 603 
Q 1406 481 1766 481 
L 2356 481 
L 2356 0 
L 1766 0 
Q 1100 0 847 248 
Q 594 497 594 1153 
L 594 3053 
L 172 3053 
L 172 3500 
L 594 3500 
L 594 4494 
L 1172 4494 
z
" transform="scale(0.015625)"/>
       <path id="DejaVuSans-5c" d="M 2059 -325 
Q 1816 -950 1584 -1140 
Q 1353 -1331 966 -1331 
L 506 -1331 
L 506 -850 
L 844 -850 
Q 1081 -850 1212 -737 
Q 1344 -625 1503 -206 
L 1606 56 
L 191 3500 
L 800 3500 
L 1894 763 
L 2988 3500 
L 3597 3500 
L 2059 -325 
z
" transform="scale(0.015625)"/>
       <path id="DejaVuSans-3" transform="scale(0.015625)"/>
       <path id="DejaVuSans-4a" d="M 2906 1791 
Q 2906 2416 2648 2759 
Q 2391 3103 1925 3103 
Q 1463 3103 1205 2759 
Q 947 2416 947 1791 
Q 947 1169 1205 825 
Q 1463 481 1925 481 
Q 2391 481 2648 825 
Q 2906 1169 2906 1791 
z
M 3481 434 
Q 3481 -459 3084 -895 
Q 2688 -1331 1869 -1331 
Q 1566 -1331 1297 -1286 
Q 1028 -1241 775 -1147 
L 775 -588 
Q 1028 -725 1275 -790 
Q 1522 -856 1778 -856 
Q 2344 -856 2625 -561 
Q 2906 -266 2906 331 
L 2906 616 
Q 2728 306 2450 153 
Q 2172 0 1784 0 
Q 1141 0 747 490 
Q 353 981 353 1791 
Q 353 2603 747 3093 
Q 1141 3584 1784 3584 
Q 2172 3584 2450 3431 
Q 2728 3278 2906 2969 
L 2906 3500 
L 3481 3500 
L 3481 434 
z
" transform="scale(0.015625)"/>
       <path id="DejaVuSans-44" d="M 2194 1759 
Q 1497 1759 1228 1600 
Q 959 1441 959 1056 
Q 959 750 1161 570 
Q 1363 391 1709 391 
Q 2188 391 2477 730 
Q 2766 1069 2766 1631 
L 2766 1759 
L 2194 1759 
z
M 3341 1997 
L 3341 0 
L 2766 0 
L 2766 531 
Q 2569 213 2275 61 
Q 1981 -91 1556 -91 
Q 1019 -91 701 211 
Q 384 513 384 1019 
Q 384 1609 779 1909 
Q 1175 2209 1959 2209 
L 2766 2209 
L 2766 2266 
Q 2766 2663 2505 2880 
Q 2244 3097 1772 3097 
Q 1472 3097 1187 3025 
Q 903 2953 641 2809 
L 641 3341 
Q 956 3463 1253 3523 
Q 1550 3584 1831 3584 
Q 2591 3584 2966 3190 
Q 3341 2797 3341 1997 
z
" transform="scale(0.015625)"/>
       <path id="DejaVuSans-51" d="M 3513 2113 
L 3513 0 
L 2938 0 
L 2938 2094 
Q 2938 2591 2744 2837 
Q 2550 3084 2163 3084 
Q 1697 3084 1428 2787 
Q 1159 2491 1159 1978 
L 1159 0 
L 581 0 
L 581 3500 
L 1159 3500 
L 1159 2956 
Q 1366 3272 1645 3428 
Q 1925 3584 2291 3584 
Q 2894 3584 3203 3211 
Q 3513 2838 3513 2113 
z
" transform="scale(0.015625)"/>
       <path id="DejaVuSans-52" d="M 1959 3097 
Q 1497 3097 1228 2736 
Q 959 2375 959 1747 
Q 959 1119 1226 758 
Q 1494 397 1959 397 
Q 2419 397 2687 759 
Q 2956 1122 2956 1747 
Q 2956 2369 2687 2733 
Q 2419 3097 1959 3097 
z
M 1959 3584 
Q 2709 3584 3137 3096 
Q 3566 2609 3566 1747 
Q 3566 888 3137 398 
Q 2709 -91 1959 -91 
Q 1206 -91 779 398 
Q 353 888 353 1747 
Q 353 2609 779 3096 
Q 1206 3584 1959 3584 
z
" transform="scale(0.015625)"/>
       <path id="DejaVuSans-49" d="M 2375 4863 
L 2375 4384 
L 1825 4384 
Q 1516 4384 1395 4259 
Q 1275 4134 1275 3809 
L 1275 3500 
L 2222 3500 
L 2222 3053 
L 1275 3053 
L 1275 0 
L 697 0 
L 697 3053 
L 147 3053 
L 147 3500 
L 697 3500 
L 697 3744 
Q 697 4328 969 4595 
Q 1241 4863 1831 4863 
L 2375 4863 
z
" transform="scale(0.015625)"/>
       <path id="DejaVuSans-24" d="M 2188 4044 
L 1331 1722 
L 3047 1722 
L 2188 4044 
z
M 1831 4666 
L 2547 4666 
L 4325 0 
L 3669 0 
L 3244 1197 
L 1141 1197 
L 716 0 
L 50 0 
L 1831 4666 
z
" transform="scale(0.015625)"/>
       <path id="DejaVuSans-28" d="M 628 4666 
L 3578 4666 
L 3578 4134 
L 1259 4134 
L 1259 2753 
L 3481 2753 
L 3481 2222 
L 1259 2222 
L 1259 531 
L 3634 531 
L 3634 0 
L 628 0 
L 628 4666 
z
" transform="scale(0.015625)"/>
       <path id="DejaVuSans-26" d="M 4122 4306 
L 4122 3641 
Q 3803 3938 3442 4084 
Q 3081 4231 2675 4231 
Q 1875 4231 1450 3742 
Q 1025 3253 1025 2328 
Q 1025 1406 1450 917 
Q 1875 428 2675 428 
Q 3081 428 3442 575 
Q 3803 722 4122 1019 
L 4122 359 
Q 3791 134 3420 21 
Q 3050 -91 2638 -91 
Q 1578 -91 968 557 
Q 359 1206 359 2328 
Q 359 3453 968 4101 
Q 1578 4750 2638 4750 
Q 3056 4750 3426 4639 
Q 3797 4528 4122 4306 
z
" transform="scale(0.015625)"/>
       <path id="DejaVuSans-59" d="M 191 3500 
L 800 3500 
L 1894 563 
L 2988 3500 
L 3597 3500 
L 2284 0 
L 1503 0 
L 191 3500 
z
" transform="scale(0.015625)"/>
       <path id="DejaVuSans-56" d="M 2834 3397 
L 2834 2853 
Q 2591 2978 2328 3040 
Q 2066 3103 1784 3103 
Q 1356 3103 1142 2972 
Q 928 2841 928 2578 
Q 928 2378 1081 2264 
Q 1234 2150 1697 2047 
L 1894 2003 
Q 2506 1872 2764 1633 
Q 3022 1394 3022 966 
Q 3022 478 2636 193 
Q 2250 -91 1575 -91 
Q 1294 -91 989 -36 
Q 684 19 347 128 
L 347 722 
Q 666 556 975 473 
Q 1284 391 1588 391 
Q 1994 391 2212 530 
Q 2431 669 2431 922 
Q 2431 1156 2273 1281 
Q 2116 1406 1581 1522 
L 1381 1569 
Q 847 1681 609 1914 
Q 372 2147 372 2553 
Q 372 3047 722 3315 
Q 1072 3584 1716 3584 
Q 2034 3584 2315 3537 
Q 2597 3491 2834 3397 
z
" transform="scale(0.015625)"/>
       <path id="DejaVuSans-4f" d="M 603 4863 
L 1178 4863 
L 1178 0 
L 603 0 
L 603 4863 
z
" transform="scale(0.015625)"/>
      </defs>
      <use xlink:href="#DejaVuSans-36"/>
      <use xlink:href="#DejaVuSans-53" transform="translate(63.484375 0)"/>
      <use xlink:href="#DejaVuSans-48" transform="translate(126.96875 0)"/>
      <use xlink:href="#DejaVuSans-46" transform="translate(188.5 0)"/>
      <use xlink:href="#DejaVuSans-4c" transform="translate(243.484375 0)"/>
      <use xlink:href="#DejaVuSans-13af" transform="translate(271.265625 0)"/>
      <use xlink:href="#DejaVuSans-46" transform="translate(334.25 0)"/>
      <use xlink:href="#DejaVuSans-4c" transform="translate(389.234375 0)"/>
      <use xlink:href="#DejaVuSans-57" transform="translate(417.015625 0)"/>
      <use xlink:href="#DejaVuSans-5c" transform="translate(456.21875 0)"/>
      <use xlink:href="#DejaVuSans-3" transform="translate(515.40625 0)"/>
      <use xlink:href="#DejaVuSans-4a" transform="translate(547.1875 0)"/>
      <use xlink:href="#DejaVuSans-44" transform="translate(610.671875 0)"/>
      <use xlink:href="#DejaVuSans-4c" transform="translate(671.953125 0)"/>
      <use xlink:href="#DejaVuSans-51" transform="translate(699.734375 0)"/>
      <use xlink:href="#DejaVuSans-3" transform="translate(763.109375 0)"/>
      <use xlink:href="#DejaVuSans-52" transform="translate(794.890625 0)"/>
      <use xlink:href="#DejaVuSans-49" transform="translate(856.078125 0)"/>
      <use xlink:href="#DejaVuSans-3" transform="translate(891.28125 0)"/>
      <use xlink:href="#DejaVuSans-24" transform="translate(923.0625 0)"/>
      <use xlink:href="#DejaVuSans-28" transform="translate(991.46875 0)"/>
      <use xlink:href="#DejaVuSans-26" transform="translate(1054.65625 0)"/>
      <use xlink:href="#DejaVuSans-3" transform="translate(1124.484375 0)"/>
      <use xlink:href="#DejaVuSans-4a" transform="translate(1156.265625 0)"/>
      <use xlink:href="#DejaVuSans-44" transform="translate(1219.75 0)"/>
      <use xlink:href="#DejaVuSans-57" transform="translate(1281.03125 0)"/>
      <use xlink:href="#DejaVuSans-48" transform="translate(1320.234375 0)"/>
      <use xlink:href="#DejaVuSans-3" transform="translate(1381.765625 0)"/>
      <use xlink:href="#DejaVuSans-59" transform="translate(1413.546875 0)"/>
      <use xlink:href="#DejaVuSans-56" transform="translate(1472.734375 0)"/>
      <use xlink:href="#DejaVuSans-3" transform="translate(1524.828125 0)"/>
      <use xlink:href="#DejaVuSans-46" transform="translate(1556.609375 0)"/>
      <use xlink:href="#DejaVuSans-4f" transform="translate(1611.59375 0)"/>
      <use xlink:href="#DejaVuSans-4c" transform="translate(1639.375 0)"/>
      <use xlink:href="#DejaVuSans-51" transform="translate(1667.15625 0)"/>
      <use xlink:href="#DejaVuSans-4c" transform="translate(1730.53125 0)"/>
      <use xlink:href="#DejaVuSans-46" transform="translate(1758.3125 0)"/>
      <use xlink:href="#DejaVuSans-44" transform="translate(1813.296875 0)"/>
      <use xlink:href="#DejaVuSans-4f" transform="translate(1874.578125 0)"/>
     </g>
    </g>
   </g>
   <g id="matplotlib.axis_2">
    <g id="ytick_1">
     <g id="line2d_13">
      <defs>
       <path id="m6d62384418" d="M 0 0 
L -3.5 0 
" style="stroke: #000000; stroke-width: 0.8"/>
      </defs>
      <g>
       <use xlink:href="#m6d62384418" x="146.703125" y="366.298125" style="stroke: #000000; stroke-width: 0.8"/>
      </g>
     </g>
     <g id="text_8">
      <!-- Sensation 64 -->
      <g transform="translate(74.46875 370.097344) scale(0.1 -0.1)">
       <defs>
        <path id="DejaVuSans-19" d="M 2113 2584 
Q 1688 2584 1439 2293 
Q 1191 2003 1191 1497 
Q 1191 994 1439 701 
Q 1688 409 2113 409 
Q 2538 409 2786 701 
Q 3034 994 3034 1497 
Q 3034 2003 2786 2293 
Q 2538 2584 2113 2584 
z
M 3366 4563 
L 3366 3988 
Q 3128 4100 2886 4159 
Q 2644 4219 2406 4219 
Q 1781 4219 1451 3797 
Q 1122 3375 1075 2522 
Q 1259 2794 1537 2939 
Q 1816 3084 2150 3084 
Q 2853 3084 3261 2657 
Q 3669 2231 3669 1497 
Q 3669 778 3244 343 
Q 2819 -91 2113 -91 
Q 1303 -91 875 529 
Q 447 1150 447 2328 
Q 447 3434 972 4092 
Q 1497 4750 2381 4750 
Q 2619 4750 2861 4703 
Q 3103 4656 3366 4563 
z
" transform="scale(0.015625)"/>
       </defs>
       <use xlink:href="#DejaVuSans-36"/>
       <use xlink:href="#DejaVuSans-48" transform="translate(63.484375 0)"/>
       <use xlink:href="#DejaVuSans-51" transform="translate(125.015625 0)"/>
       <use xlink:href="#DejaVuSans-56" transform="translate(188.390625 0)"/>
       <use xlink:href="#DejaVuSans-44" transform="translate(240.484375 0)"/>
       <use xlink:href="#DejaVuSans-57" transform="translate(301.765625 0)"/>
       <use xlink:href="#DejaVuSans-4c" transform="translate(340.96875 0)"/>
       <use xlink:href="#DejaVuSans-52" transform="translate(368.75 0)"/>
       <use xlink:href="#DejaVuSans-51" transform="translate(429.9375 0)"/>
       <use xlink:href="#DejaVuSans-3" transform="translate(493.3125 0)"/>
       <use xlink:href="#DejaVuSans-19" transform="translate(525.09375 0)"/>
       <use xlink:href="#DejaVuSans-17" transform="translate(588.71875 0)"/>
      </g>
     </g>
    </g>
    <g id="ytick_2">
     <g id="line2d_14">
      <g>
       <use xlink:href="#m6d62384418" x="146.703125" y="329.898125" style="stroke: #000000; stroke-width: 0.8"/>
      </g>
     </g>
     <g id="text_9">
      <!-- LightSpeed VCT -->
      <g transform="translate(60.285937 333.697344) scale(0.1 -0.1)">
       <defs>
        <path id="DejaVuSans-2f" d="M 628 4666 
L 1259 4666 
L 1259 531 
L 3531 531 
L 3531 0 
L 628 0 
L 628 4666 
z
" transform="scale(0.015625)"/>
        <path id="DejaVuSans-4b" d="M 3513 2113 
L 3513 0 
L 2938 0 
L 2938 2094 
Q 2938 2591 2744 2837 
Q 2550 3084 2163 3084 
Q 1697 3084 1428 2787 
Q 1159 2491 1159 1978 
L 1159 0 
L 581 0 
L 581 4863 
L 1159 4863 
L 1159 2956 
Q 1366 3272 1645 3428 
Q 1925 3584 2291 3584 
Q 2894 3584 3203 3211 
Q 3513 2838 3513 2113 
z
" transform="scale(0.015625)"/>
        <path id="DejaVuSans-47" d="M 2906 2969 
L 2906 4863 
L 3481 4863 
L 3481 0 
L 2906 0 
L 2906 525 
Q 2725 213 2448 61 
Q 2172 -91 1784 -91 
Q 1150 -91 751 415 
Q 353 922 353 1747 
Q 353 2572 751 3078 
Q 1150 3584 1784 3584 
Q 2172 3584 2448 3432 
Q 2725 3281 2906 2969 
z
M 947 1747 
Q 947 1113 1208 752 
Q 1469 391 1925 391 
Q 2381 391 2643 752 
Q 2906 1113 2906 1747 
Q 2906 2381 2643 2742 
Q 2381 3103 1925 3103 
Q 1469 3103 1208 2742 
Q 947 2381 947 1747 
z
" transform="scale(0.015625)"/>
        <path id="DejaVuSans-39" d="M 1831 0 
L 50 4666 
L 709 4666 
L 2188 738 
L 3669 4666 
L 4325 4666 
L 2547 0 
L 1831 0 
z
" transform="scale(0.015625)"/>
        <path id="DejaVuSans-37" d="M -19 4666 
L 3928 4666 
L 3928 4134 
L 2272 4134 
L 2272 0 
L 1638 0 
L 1638 4134 
L -19 4134 
L -19 4666 
z
" transform="scale(0.015625)"/>
       </defs>
       <use xlink:href="#DejaVuSans-2f"/>
       <use xlink:href="#DejaVuSans-4c" transform="translate(55.71875 0)"/>
       <use xlink:href="#DejaVuSans-4a" transform="translate(83.5 0)"/>
       <use xlink:href="#DejaVuSans-4b" transform="translate(146.984375 0)"/>
       <use xlink:href="#DejaVuSans-57" transform="translate(210.359375 0)"/>
       <use xlink:href="#DejaVuSans-36" transform="translate(249.5625 0)"/>
       <use xlink:href="#DejaVuSans-53" transform="translate(313.046875 0)"/>
       <use xlink:href="#DejaVuSans-48" transform="translate(376.53125 0)"/>
       <use xlink:href="#DejaVuSans-48" transform="translate(438.0625 0)"/>
       <use xlink:href="#DejaVuSans-47" transform="translate(499.59375 0)"/>
       <use xlink:href="#DejaVuSans-3" transform="translate(563.078125 0)"/>
       <use xlink:href="#DejaVuSans-39" transform="translate(594.859375 0)"/>
       <use xlink:href="#DejaVuSans-26" transform="translate(663.265625 0)"/>
       <use xlink:href="#DejaVuSans-37" transform="translate(733.09375 0)"/>
      </g>
     </g>
    </g>
    <g id="ytick_3">
     <g id="line2d_15">
      <g>
       <use xlink:href="#m6d62384418" x="146.703125" y="293.498125" style="stroke: #000000; stroke-width: 0.8"/>
      </g>
     </g>
     <g id="text_10">
      <!-- SOMATOM Force -->
      <g transform="translate(57.948437 297.296953) scale(0.1 -0.1)">
       <defs>
        <path id="DejaVuSans-32" d="M 2522 4238 
Q 1834 4238 1429 3725 
Q 1025 3213 1025 2328 
Q 1025 1447 1429 934 
Q 1834 422 2522 422 
Q 3209 422 3611 934 
Q 4013 1447 4013 2328 
Q 4013 3213 3611 3725 
Q 3209 4238 2522 4238 
z
M 2522 4750 
Q 3503 4750 4090 4092 
Q 4678 3434 4678 2328 
Q 4678 1225 4090 567 
Q 3503 -91 2522 -91 
Q 1538 -91 948 565 
Q 359 1222 359 2328 
Q 359 3434 948 4092 
Q 1538 4750 2522 4750 
z
" transform="scale(0.015625)"/>
        <path id="DejaVuSans-30" d="M 628 4666 
L 1569 4666 
L 2759 1491 
L 3956 4666 
L 4897 4666 
L 4897 0 
L 4281 0 
L 4281 4097 
L 3078 897 
L 2444 897 
L 1241 4097 
L 1241 0 
L 628 0 
L 628 4666 
z
" transform="scale(0.015625)"/>
        <path id="DejaVuSans-29" d="M 628 4666 
L 3309 4666 
L 3309 4134 
L 1259 4134 
L 1259 2759 
L 3109 2759 
L 3109 2228 
L 1259 2228 
L 1259 0 
L 628 0 
L 628 4666 
z
" transform="scale(0.015625)"/>
        <path id="DejaVuSans-55" d="M 2631 2963 
Q 2534 3019 2420 3045 
Q 2306 3072 2169 3072 
Q 1681 3072 1420 2755 
Q 1159 2438 1159 1844 
L 1159 0 
L 581 0 
L 581 3500 
L 1159 3500 
L 1159 2956 
Q 1341 3275 1631 3429 
Q 1922 3584 2338 3584 
Q 2397 3584 2469 3576 
Q 2541 3569 2628 3553 
L 2631 2963 
z
" transform="scale(0.015625)"/>
       </defs>
       <use xlink:href="#DejaVuSans-36"/>
       <use xlink:href="#DejaVuSans-32" transform="translate(63.484375 0)"/>
       <use xlink:href="#DejaVuSans-30" transform="translate(142.203125 0)"/>
       <use xlink:href="#DejaVuSans-24" transform="translate(228.484375 0)"/>
       <use xlink:href="#DejaVuSans-37" transform="translate(289.125 0)"/>
       <use xlink:href="#DejaVuSans-32" transform="translate(350.203125 0)"/>
       <use xlink:href="#DejaVuSans-30" transform="translate(428.921875 0)"/>
       <use xlink:href="#DejaVuSans-3" transform="translate(515.203125 0)"/>
       <use xlink:href="#DejaVuSans-29" transform="translate(546.984375 0)"/>
       <use xlink:href="#DejaVuSans-52" transform="translate(600.9375 0)"/>
       <use xlink:href="#DejaVuSans-55" transform="translate(662.125 0)"/>
       <use xlink:href="#DejaVuSans-46" transform="translate(701.03125 0)"/>
       <use xlink:href="#DejaVuSans-48" transform="translate(756.015625 0)"/>
      </g>
     </g>
    </g>
    <g id="ytick_4">
     <g id="line2d_16">
      <g>
       <use xlink:href="#m6d62384418" x="146.703125" y="257.098125" style="stroke: #000000; stroke-width: 0.8"/>
      </g>
     </g>
     <g id="text_11">
      <!-- iCT 256 -->
      <g transform="translate(101.56875 260.897344) scale(0.1 -0.1)">
       <use xlink:href="#DejaVuSans-4c"/>
       <use xlink:href="#DejaVuSans-26" transform="translate(27.78125 0)"/>
       <use xlink:href="#DejaVuSans-37" transform="translate(97.609375 0)"/>
       <use xlink:href="#DejaVuSans-3" transform="translate(158.6875 0)"/>
       <use xlink:href="#DejaVuSans-15" transform="translate(190.46875 0)"/>
       <use xlink:href="#DejaVuSans-18" transform="translate(254.09375 0)"/>
       <use xlink:href="#DejaVuSans-19" transform="translate(317.71875 0)"/>
      </g>
     </g>
    </g>
    <g id="ytick_5">
     <g id="line2d_17">
      <g>
       <use xlink:href="#m6d62384418" x="146.703125" y="220.698125" style="stroke: #000000; stroke-width: 0.8"/>
      </g>
     </g>
     <g id="text_12">
      <!-- Revolution EVO -->
      <g transform="translate(62.707812 224.497344) scale(0.1 -0.1)">
       <defs>
        <path id="DejaVuSans-35" d="M 2841 2188 
Q 3044 2119 3236 1894 
Q 3428 1669 3622 1275 
L 4263 0 
L 3584 0 
L 2988 1197 
Q 2756 1666 2539 1819 
Q 2322 1972 1947 1972 
L 1259 1972 
L 1259 0 
L 628 0 
L 628 4666 
L 2053 4666 
Q 2853 4666 3247 4331 
Q 3641 3997 3641 3322 
Q 3641 2881 3436 2590 
Q 3231 2300 2841 2188 
z
M 1259 4147 
L 1259 2491 
L 2053 2491 
Q 2509 2491 2742 2702 
Q 2975 2913 2975 3322 
Q 2975 3731 2742 3939 
Q 2509 4147 2053 4147 
L 1259 4147 
z
" transform="scale(0.015625)"/>
        <path id="DejaVuSans-58" d="M 544 1381 
L 544 3500 
L 1119 3500 
L 1119 1403 
Q 1119 906 1312 657 
Q 1506 409 1894 409 
Q 2359 409 2629 706 
Q 2900 1003 2900 1516 
L 2900 3500 
L 3475 3500 
L 3475 0 
L 2900 0 
L 2900 538 
Q 2691 219 2414 64 
Q 2138 -91 1772 -91 
Q 1169 -91 856 284 
Q 544 659 544 1381 
z
M 1991 3584 
L 1991 3584 
z
" transform="scale(0.015625)"/>
       </defs>
       <use xlink:href="#DejaVuSans-35"/>
       <use xlink:href="#DejaVuSans-48" transform="translate(65 0)"/>
       <use xlink:href="#DejaVuSans-59" transform="translate(126.53125 0)"/>
       <use xlink:href="#DejaVuSans-52" transform="translate(185.71875 0)"/>
       <use xlink:href="#DejaVuSans-4f" transform="translate(246.90625 0)"/>
       <use xlink:href="#DejaVuSans-58" transform="translate(274.6875 0)"/>
       <use xlink:href="#DejaVuSans-57" transform="translate(338.0625 0)"/>
       <use xlink:href="#DejaVuSans-4c" transform="translate(377.265625 0)"/>
       <use xlink:href="#DejaVuSans-52" transform="translate(405.046875 0)"/>
       <use xlink:href="#DejaVuSans-51" transform="translate(466.234375 0)"/>
       <use xlink:href="#DejaVuSans-3" transform="translate(529.609375 0)"/>
       <use xlink:href="#DejaVuSans-28" transform="translate(561.390625 0)"/>
       <use xlink:href="#DejaVuSans-39" transform="translate(624.578125 0)"/>
       <use xlink:href="#DejaVuSans-32" transform="translate(691.234375 0)"/>
      </g>
     </g>
    </g>
    <g id="ytick_6">
     <g id="line2d_18">
      <g>
       <use xlink:href="#m6d62384418" x="146.703125" y="184.298125" style="stroke: #000000; stroke-width: 0.8"/>
      </g>
     </g>
     <g id="text_13">
      <!-- SOMATOM Definition AS+ -->
      <g transform="translate(11.835938 188.097344) scale(0.1 -0.1)">
       <defs>
        <path id="DejaVuSans-27" d="M 1259 4147 
L 1259 519 
L 2022 519 
Q 2988 519 3436 956 
Q 3884 1394 3884 2338 
Q 3884 3275 3436 3711 
Q 2988 4147 2022 4147 
L 1259 4147 
z
M 628 4666 
L 1925 4666 
Q 3281 4666 3915 4102 
Q 4550 3538 4550 2338 
Q 4550 1131 3912 565 
Q 3275 0 1925 0 
L 628 0 
L 628 4666 
z
" transform="scale(0.015625)"/>
        <path id="DejaVuSans-e" d="M 2944 4013 
L 2944 2272 
L 4684 2272 
L 4684 1741 
L 2944 1741 
L 2944 0 
L 2419 0 
L 2419 1741 
L 678 1741 
L 678 2272 
L 2419 2272 
L 2419 4013 
L 2944 4013 
z
" transform="scale(0.015625)"/>
       </defs>
       <use xlink:href="#DejaVuSans-36"/>
       <use xlink:href="#DejaVuSans-32" transform="translate(63.484375 0)"/>
       <use xlink:href="#DejaVuSans-30" transform="translate(142.203125 0)"/>
       <use xlink:href="#DejaVuSans-24" transform="translate(228.484375 0)"/>
       <use xlink:href="#DejaVuSans-37" transform="translate(289.125 0)"/>
       <use xlink:href="#DejaVuSans-32" transform="translate(350.203125 0)"/>
       <use xlink:href="#DejaVuSans-30" transform="translate(428.921875 0)"/>
       <use xlink:href="#DejaVuSans-3" transform="translate(515.203125 0)"/>
       <use xlink:href="#DejaVuSans-27" transform="translate(546.984375 0)"/>
       <use xlink:href="#DejaVuSans-48" transform="translate(623.984375 0)"/>
       <use xlink:href="#DejaVuSans-13af" transform="translate(685.515625 0)"/>
       <use xlink:href="#DejaVuSans-51" transform="translate(748.5 0)"/>
       <use xlink:href="#DejaVuSans-4c" transform="translate(811.875 0)"/>
       <use xlink:href="#DejaVuSans-57" transform="translate(839.65625 0)"/>
       <use xlink:href="#DejaVuSans-4c" transform="translate(878.859375 0)"/>
       <use xlink:href="#DejaVuSans-52" transform="translate(906.640625 0)"/>
       <use xlink:href="#DejaVuSans-51" transform="translate(967.828125 0)"/>
       <use xlink:href="#DejaVuSans-3" transform="translate(1031.203125 0)"/>
       <use xlink:href="#DejaVuSans-24" transform="translate(1062.984375 0)"/>
       <use xlink:href="#DejaVuSans-36" transform="translate(1131.390625 0)"/>
       <use xlink:href="#DejaVuSans-e" transform="translate(1194.875 0)"/>
      </g>
     </g>
    </g>
    <g id="ytick_7">
     <g id="line2d_19">
      <g>
       <use xlink:href="#m6d62384418" x="146.703125" y="147.898125" style="stroke: #000000; stroke-width: 0.8"/>
      </g>
     </g>
     <g id="text_14">
      <!-- SOMATOM Definition Flash -->
      <g transform="translate(7.2 151.697344) scale(0.1 -0.1)">
       <use xlink:href="#DejaVuSans-36"/>
       <use xlink:href="#DejaVuSans-32" transform="translate(63.484375 0)"/>
       <use xlink:href="#DejaVuSans-30" transform="translate(142.203125 0)"/>
       <use xlink:href="#DejaVuSans-24" transform="translate(228.484375 0)"/>
       <use xlink:href="#DejaVuSans-37" transform="translate(289.125 0)"/>
       <use xlink:href="#DejaVuSans-32" transform="translate(350.203125 0)"/>
       <use xlink:href="#DejaVuSans-30" transform="translate(428.921875 0)"/>
       <use xlink:href="#DejaVuSans-3" transform="translate(515.203125 0)"/>
       <use xlink:href="#DejaVuSans-27" transform="translate(546.984375 0)"/>
       <use xlink:href="#DejaVuSans-48" transform="translate(623.984375 0)"/>
       <use xlink:href="#DejaVuSans-13af" transform="translate(685.515625 0)"/>
       <use xlink:href="#DejaVuSans-51" transform="translate(748.5 0)"/>
       <use xlink:href="#DejaVuSans-4c" transform="translate(811.875 0)"/>
       <use xlink:href="#DejaVuSans-57" transform="translate(839.65625 0)"/>
       <use xlink:href="#DejaVuSans-4c" transform="translate(878.859375 0)"/>
       <use xlink:href="#DejaVuSans-52" transform="translate(906.640625 0)"/>
       <use xlink:href="#DejaVuSans-51" transform="translate(967.828125 0)"/>
       <use xlink:href="#DejaVuSans-3" transform="translate(1031.203125 0)"/>
       <use xlink:href="#DejaVuSans-29" transform="translate(1062.984375 0)"/>
       <use xlink:href="#DejaVuSans-4f" transform="translate(1120.5 0)"/>
       <use xlink:href="#DejaVuSans-44" transform="translate(1148.28125 0)"/>
       <use xlink:href="#DejaVuSans-56" transform="translate(1209.5625 0)"/>
       <use xlink:href="#DejaVuSans-4b" transform="translate(1261.65625 0)"/>
      </g>
     </g>
    </g>
    <g id="ytick_8">
     <g id="line2d_20">
      <g>
       <use xlink:href="#m6d62384418" x="146.703125" y="111.498125" style="stroke: #000000; stroke-width: 0.8"/>
      </g>
     </g>
     <g id="text_15">
      <!-- Female -->
      <g transform="translate(103.545312 115.297344) scale(0.1 -0.1)">
       <defs>
        <path id="DejaVuSans-50" d="M 3328 2828 
Q 3544 3216 3844 3400 
Q 4144 3584 4550 3584 
Q 5097 3584 5394 3201 
Q 5691 2819 5691 2113 
L 5691 0 
L 5113 0 
L 5113 2094 
Q 5113 2597 4934 2840 
Q 4756 3084 4391 3084 
Q 3944 3084 3684 2787 
Q 3425 2491 3425 1978 
L 3425 0 
L 2847 0 
L 2847 2094 
Q 2847 2600 2669 2842 
Q 2491 3084 2119 3084 
Q 1678 3084 1418 2786 
Q 1159 2488 1159 1978 
L 1159 0 
L 581 0 
L 581 3500 
L 1159 3500 
L 1159 2956 
Q 1356 3278 1631 3431 
Q 1906 3584 2284 3584 
Q 2666 3584 2933 3390 
Q 3200 3197 3328 2828 
z
" transform="scale(0.015625)"/>
       </defs>
       <use xlink:href="#DejaVuSans-29"/>
       <use xlink:href="#DejaVuSans-48" transform="translate(52.046875 0)"/>
       <use xlink:href="#DejaVuSans-50" transform="translate(113.578125 0)"/>
       <use xlink:href="#DejaVuSans-44" transform="translate(210.984375 0)"/>
       <use xlink:href="#DejaVuSans-4f" transform="translate(272.265625 0)"/>
       <use xlink:href="#DejaVuSans-48" transform="translate(300.046875 0)"/>
      </g>
     </g>
    </g>
    <g id="ytick_9">
     <g id="line2d_21">
      <g>
       <use xlink:href="#m6d62384418" x="146.703125" y="75.098125" style="stroke: #000000; stroke-width: 0.8"/>
      </g>
     </g>
     <g id="text_16">
      <!-- Male -->
      <g transform="translate(116.015625 78.897344) scale(0.1 -0.1)">
       <use xlink:href="#DejaVuSans-30"/>
       <use xlink:href="#DejaVuSans-44" transform="translate(86.28125 0)"/>
       <use xlink:href="#DejaVuSans-4f" transform="translate(147.5625 0)"/>
       <use xlink:href="#DejaVuSans-48" transform="translate(175.34375 0)"/>
      </g>
     </g>
    </g>
    <g id="ytick_10">
     <g id="line2d_22">
      <g>
       <use xlink:href="#m6d62384418" x="146.703125" y="38.698125" style="stroke: #000000; stroke-width: 0.8"/>
      </g>
     </g>
     <g id="text_17">
      <!-- Overall -->
      <g transform="translate(103.964062 42.497344) scale(0.1 -0.1)">
       <use xlink:href="#DejaVuSans-32"/>
       <use xlink:href="#DejaVuSans-59" transform="translate(78.71875 0)"/>
       <use xlink:href="#DejaVuSans-48" transform="translate(137.90625 0)"/>
       <use xlink:href="#DejaVuSans-55" transform="translate(199.4375 0)"/>
       <use xlink:href="#DejaVuSans-44" transform="translate(240.546875 0)"/>
       <use xlink:href="#DejaVuSans-4f" transform="translate(301.828125 0)"/>
       <use xlink:href="#DejaVuSans-4f" transform="translate(329.609375 0)"/>
      </g>
     </g>
    </g>
   </g>
   <g id="line2d_23">
    <path d="M 200.469168 382.678125 
L 200.469168 22.318125 
" clip-path="url(#p0ed10ddb63)" style="fill: none; stroke: #30343a; stroke-linecap: square"/>
   </g>
   <g id="LineCollection_1">
    <path d="M 225.360855 366.298125 
L 424.494348 366.298125 
" clip-path="url(#p0ed10ddb63)" style="fill: none; stroke: #008c7a; stroke-width: 1.6"/>
    <path d="M 307.147825 329.898125 
L 550.16701 329.898125 
" clip-path="url(#p0ed10ddb63)" style="fill: none; stroke: #008c7a; stroke-width: 1.6"/>
    <path d="M 216.983698 293.498125 
L 315.032874 293.498125 
" clip-path="url(#p0ed10ddb63)" style="fill: none; stroke: #008c7a; stroke-width: 1.6"/>
    <path d="M 251.665326 257.098125 
L 361.307759 257.098125 
" clip-path="url(#p0ed10ddb63)" style="fill: none; stroke: #008c7a; stroke-width: 1.6"/>
    <path d="M 250.252541 220.698125 
L 372.448094 220.698125 
" clip-path="url(#p0ed10ddb63)" style="fill: none; stroke: #008c7a; stroke-width: 1.6"/>
    <path d="M 227.285218 184.298125 
L 310.947339 184.298125 
" clip-path="url(#p0ed10ddb63)" style="fill: none; stroke: #008c7a; stroke-width: 1.6"/>
    <path d="M 287.336075 147.898125 
L 381.499617 147.898125 
" clip-path="url(#p0ed10ddb63)" style="fill: none; stroke: #008c7a; stroke-width: 1.6"/>
    <path d="M 287.468211 111.498125 
L 347.194103 111.498125 
" clip-path="url(#p0ed10ddb63)" style="fill: none; stroke: #008c7a; stroke-width: 1.6"/>
    <path d="M 267.598759 75.098125 
L 326.587827 75.098125 
" clip-path="url(#p0ed10ddb63)" style="fill: none; stroke: #008c7a; stroke-width: 1.6"/>
    <path d="M 286.949443 38.698125 
L 330.421729 38.698125 
" clip-path="url(#p0ed10ddb63)" style="fill: none; stroke: #008c7a; stroke-width: 1.6"/>
   </g>
   <g id="line2d_24">
    <defs>
     <path id="md3b36ed217" d="M 0 3 
L 0 -3 
" style="stroke: #008c7a"/>
    </defs>
    <g clip-path="url(#p0ed10ddb63)">
     <use xlink:href="#md3b36ed217" x="225.360855" y="366.298125" style="fill: #008c7a; stroke: #008c7a"/>
     <use xlink:href="#md3b36ed217" x="307.147825" y="329.898125" style="fill: #008c7a; stroke: #008c7a"/>
     <use xlink:href="#md3b36ed217" x="216.983698" y="293.498125" style="fill: #008c7a; stroke: #008c7a"/>
     <use xlink:href="#md3b36ed217" x="251.665326" y="257.098125" style="fill: #008c7a; stroke: #008c7a"/>
     <use xlink:href="#md3b36ed217" x="250.252541" y="220.698125" style="fill: #008c7a; stroke: #008c7a"/>
     <use xlink:href="#md3b36ed217" x="227.285218" y="184.298125" style="fill: #008c7a; stroke: #008c7a"/>
     <use xlink:href="#md3b36ed217" x="287.336075" y="147.898125" style="fill: #008c7a; stroke: #008c7a"/>
     <use xlink:href="#md3b36ed217" x="287.468211" y="111.498125" style="fill: #008c7a; stroke: #008c7a"/>
     <use xlink:href="#md3b36ed217" x="267.598759" y="75.098125" style="fill: #008c7a; stroke: #008c7a"/>
     <use xlink:href="#md3b36ed217" x="286.949443" y="38.698125" style="fill: #008c7a; stroke: #008c7a"/>
    </g>
   </g>
   <g id="line2d_25">
    <g clip-path="url(#p0ed10ddb63)">
     <use xlink:href="#md3b36ed217" x="424.494348" y="366.298125" style="fill: #008c7a; stroke: #008c7a"/>
     <use xlink:href="#md3b36ed217" x="550.16701" y="329.898125" style="fill: #008c7a; stroke: #008c7a"/>
     <use xlink:href="#md3b36ed217" x="315.032874" y="293.498125" style="fill: #008c7a; stroke: #008c7a"/>
     <use xlink:href="#md3b36ed217" x="361.307759" y="257.098125" style="fill: #008c7a; stroke: #008c7a"/>
     <use xlink:href="#md3b36ed217" x="372.448094" y="220.698125" style="fill: #008c7a; stroke: #008c7a"/>
     <use xlink:href="#md3b36ed217" x="310.947339" y="184.298125" style="fill: #008c7a; stroke: #008c7a"/>
     <use xlink:href="#md3b36ed217" x="381.499617" y="147.898125" style="fill: #008c7a; stroke: #008c7a"/>
     <use xlink:href="#md3b36ed217" x="347.194103" y="111.498125" style="fill: #008c7a; stroke: #008c7a"/>
     <use xlink:href="#md3b36ed217" x="326.587827" y="75.098125" style="fill: #008c7a; stroke: #008c7a"/>
     <use xlink:href="#md3b36ed217" x="330.421729" y="38.698125" style="fill: #008c7a; stroke: #008c7a"/>
    </g>
   </g>
   <g id="line2d_26">
    <defs>
     <path id="mababe9d2c4" d="M 0 3 
C 0.795609 3 1.55874 2.683901 2.12132 2.12132 
C 2.683901 1.55874 3 0.795609 3 0 
C 3 -0.795609 2.683901 -1.55874 2.12132 -2.12132 
C 1.55874 -2.683901 0.795609 -3 0 -3 
C -0.795609 -3 -1.55874 -2.683901 -2.12132 -2.12132 
C -2.683901 -1.55874 -3 -0.795609 -3 0 
C -3 0.795609 -2.683901 1.55874 -2.12132 2.12132 
C -1.55874 2.683901 -0.795609 3 0 3 
z
" style="stroke: #008c7a"/>
    </defs>
    <g clip-path="url(#p0ed10ddb63)">
     <use xlink:href="#mababe9d2c4" x="315.353876" y="366.298125" style="fill: #008c7a; stroke: #008c7a"/>
     <use xlink:href="#mababe9d2c4" x="419.030319" y="329.898125" style="fill: #008c7a; stroke: #008c7a"/>
     <use xlink:href="#mababe9d2c4" x="265.053004" y="293.498125" style="fill: #008c7a; stroke: #008c7a"/>
     <use xlink:href="#mababe9d2c4" x="304.150243" y="257.098125" style="fill: #008c7a; stroke: #008c7a"/>
     <use xlink:href="#mababe9d2c4" x="310.368313" y="220.698125" style="fill: #008c7a; stroke: #008c7a"/>
     <use xlink:href="#mababe9d2c4" x="266.624255" y="184.298125" style="fill: #008c7a; stroke: #008c7a"/>
     <use xlink:href="#mababe9d2c4" x="332.382472" y="147.898125" style="fill: #008c7a; stroke: #008c7a"/>
     <use xlink:href="#mababe9d2c4" x="316.666844" y="111.498125" style="fill: #008c7a; stroke: #008c7a"/>
     <use xlink:href="#mababe9d2c4" x="295.510154" y="75.098125" style="fill: #008c7a; stroke: #008c7a"/>
     <use xlink:href="#mababe9d2c4" x="307.772949" y="38.698125" style="fill: #008c7a; stroke: #008c7a"/>
    </g>
   </g>
   <g id="patch_3">
    <path d="M 146.703125 382.678125 
L 146.703125 22.318125 
" style="fill: none; stroke: #000000; stroke-width: 0.8; stroke-linejoin: miter; stroke-linecap: square"/>
   </g>
   <g id="patch_4">
    <path d="M 693.543125 382.678125 
L 693.543125 22.318125 
" style="fill: none; stroke: #000000; stroke-width: 0.8; stroke-linejoin: miter; stroke-linecap: square"/>
   </g>
   <g id="patch_5">
    <path d="M 146.703125 382.678125 
L 693.543125 382.678125 
" style="fill: none; stroke: #000000; stroke-width: 0.8; stroke-linejoin: miter; stroke-linecap: square"/>
   </g>
   <g id="patch_6">
    <path d="M 146.703125 22.318125 
L 693.543125 22.318125 
" style="fill: none; stroke: #000000; stroke-width: 0.8; stroke-linejoin: miter; stroke-linecap: square"/>
   </g>
   <g id="text_18">
    <!-- n=48, events=9, FP -5 -->
    <g style="fill: #58606a" transform="translate(588.09118 368.506133) scale(0.085 -0.085)">
     <defs>
      <path id="DejaVuSans-20" d="M 678 2906 
L 4684 2906 
L 4684 2381 
L 678 2381 
L 678 2906 
z
M 678 1631 
L 4684 1631 
L 4684 1100 
L 678 1100 
L 678 1631 
z
" transform="scale(0.015625)"/>
      <path id="DejaVuSans-1b" d="M 2034 2216 
Q 1584 2216 1326 1975 
Q 1069 1734 1069 1313 
Q 1069 891 1326 650 
Q 1584 409 2034 409 
Q 2484 409 2743 651 
Q 3003 894 3003 1313 
Q 3003 1734 2745 1975 
Q 2488 2216 2034 2216 
z
M 1403 2484 
Q 997 2584 770 2862 
Q 544 3141 544 3541 
Q 544 4100 942 4425 
Q 1341 4750 2034 4750 
Q 2731 4750 3128 4425 
Q 3525 4100 3525 3541 
Q 3525 3141 3298 2862 
Q 3072 2584 2669 2484 
Q 3125 2378 3379 2068 
Q 3634 1759 3634 1313 
Q 3634 634 3220 271 
Q 2806 -91 2034 -91 
Q 1263 -91 848 271 
Q 434 634 434 1313 
Q 434 1759 690 2068 
Q 947 2378 1403 2484 
z
M 1172 3481 
Q 1172 3119 1398 2916 
Q 1625 2713 2034 2713 
Q 2441 2713 2670 2916 
Q 2900 3119 2900 3481 
Q 2900 3844 2670 4047 
Q 2441 4250 2034 4250 
Q 1625 4250 1398 4047 
Q 1172 3844 1172 3481 
z
" transform="scale(0.015625)"/>
      <path id="DejaVuSans-f" d="M 750 794 
L 1409 794 
L 1409 256 
L 897 -744 
L 494 -744 
L 750 256 
L 750 794 
z
" transform="scale(0.015625)"/>
      <path id="DejaVuSans-1c" d="M 703 97 
L 703 672 
Q 941 559 1184 500 
Q 1428 441 1663 441 
Q 2288 441 2617 861 
Q 2947 1281 2994 2138 
Q 2813 1869 2534 1725 
Q 2256 1581 1919 1581 
Q 1219 1581 811 2004 
Q 403 2428 403 3163 
Q 403 3881 828 4315 
Q 1253 4750 1959 4750 
Q 2769 4750 3195 4129 
Q 3622 3509 3622 2328 
Q 3622 1225 3098 567 
Q 2575 -91 1691 -91 
Q 1453 -91 1209 -44 
Q 966 3 703 97 
z
M 1959 2075 
Q 2384 2075 2632 2365 
Q 2881 2656 2881 3163 
Q 2881 3666 2632 3958 
Q 2384 4250 1959 4250 
Q 1534 4250 1286 3958 
Q 1038 3666 1038 3163 
Q 1038 2656 1286 2365 
Q 1534 2075 1959 2075 
z
" transform="scale(0.015625)"/>
      <path id="DejaVuSans-33" d="M 1259 4147 
L 1259 2394 
L 2053 2394 
Q 2494 2394 2734 2622 
Q 2975 2850 2975 3272 
Q 2975 3691 2734 3919 
Q 2494 4147 2053 4147 
L 1259 4147 
z
M 628 4666 
L 2053 4666 
Q 2838 4666 3239 4311 
Q 3641 3956 3641 3272 
Q 3641 2581 3239 2228 
Q 2838 1875 2053 1875 
L 1259 1875 
L 1259 0 
L 628 0 
L 628 4666 
z
" transform="scale(0.015625)"/>
      <path id="DejaVuSans-10" d="M 313 2009 
L 1997 2009 
L 1997 1497 
L 313 1497 
L 313 2009 
z
" transform="scale(0.015625)"/>
     </defs>
     <use xlink:href="#DejaVuSans-51"/>
     <use xlink:href="#DejaVuSans-20" transform="translate(63.375 0)"/>
     <use xlink:href="#DejaVuSans-17" transform="translate(147.171875 0)"/>
     <use xlink:href="#DejaVuSans-1b" transform="translate(210.796875 0)"/>
     <use xlink:href="#DejaVuSans-f" transform="translate(274.421875 0)"/>
     <use xlink:href="#DejaVuSans-3" transform="translate(306.203125 0)"/>
     <use xlink:href="#DejaVuSans-48" transform="translate(337.984375 0)"/>
     <use xlink:href="#DejaVuSans-59" transform="translate(399.515625 0)"/>
     <use xlink:href="#DejaVuSans-48" transform="translate(458.703125 0)"/>
     <use xlink:href="#DejaVuSans-51" transform="translate(520.234375 0)"/>
     <use xlink:href="#DejaVuSans-57" transform="translate(583.609375 0)"/>
     <use xlink:href="#DejaVuSans-56" transform="translate(622.8125 0)"/>
     <use xlink:href="#DejaVuSans-20" transform="translate(674.90625 0)"/>
     <use xlink:href="#DejaVuSans-1c" transform="translate(758.703125 0)"/>
     <use xlink:href="#DejaVuSans-f" transform="translate(822.328125 0)"/>
     <use xlink:href="#DejaVuSans-3" transform="translate(854.109375 0)"/>
     <use xlink:href="#DejaVuSans-29" transform="translate(885.890625 0)"/>
     <use xlink:href="#DejaVuSans-33" transform="translate(943.40625 0)"/>
     <use xlink:href="#DejaVuSans-3" transform="translate(1003.703125 0)"/>
     <use xlink:href="#DejaVuSans-10" transform="translate(1035.484375 0)"/>
     <use xlink:href="#DejaVuSans-18" transform="translate(1071.5625 0)"/>
    </g>
   </g>
   <g id="text_19">
    <!-- n=50, events=9, FP -10 -->
    <g style="fill: #58606a" transform="translate(582.683055 332.106133) scale(0.085 -0.085)">
     <use xlink:href="#DejaVuSans-51"/>
     <use xlink:href="#DejaVuSans-20" transform="translate(63.375 0)"/>
     <use xlink:href="#DejaVuSans-18" transform="translate(147.171875 0)"/>
     <use xlink:href="#DejaVuSans-13" transform="translate(210.796875 0)"/>
     <use xlink:href="#DejaVuSans-f" transform="translate(274.421875 0)"/>
     <use xlink:href="#DejaVuSans-3" transform="translate(306.203125 0)"/>
     <use xlink:href="#DejaVuSans-48" transform="translate(337.984375 0)"/>
     <use xlink:href="#DejaVuSans-59" transform="translate(399.515625 0)"/>
     <use xlink:href="#DejaVuSans-48" transform="translate(458.703125 0)"/>
     <use xlink:href="#DejaVuSans-51" transform="translate(520.234375 0)"/>
     <use xlink:href="#DejaVuSans-57" transform="translate(583.609375 0)"/>
     <use xlink:href="#DejaVuSans-56" transform="translate(622.8125 0)"/>
     <use xlink:href="#DejaVuSans-20" transform="translate(674.90625 0)"/>
     <use xlink:href="#DejaVuSans-1c" transform="translate(758.703125 0)"/>
     <use xlink:href="#DejaVuSans-f" transform="translate(822.328125 0)"/>
     <use xlink:href="#DejaVuSans-3" transform="translate(854.109375 0)"/>
     <use xlink:href="#DejaVuSans-29" transform="translate(885.890625 0)"/>
     <use xlink:href="#DejaVuSans-33" transform="translate(943.40625 0)"/>
     <use xlink:href="#DejaVuSans-3" transform="translate(1003.703125 0)"/>
     <use xlink:href="#DejaVuSans-10" transform="translate(1035.484375 0)"/>
     <use xlink:href="#DejaVuSans-14" transform="translate(1071.5625 0)"/>
     <use xlink:href="#DejaVuSans-13" transform="translate(1135.1875 0)"/>
    </g>
   </g>
   <g id="text_20">
    <!-- n=123, events=12, FP -8 -->
    <g style="fill: #58606a" transform="translate(577.27493 295.706133) scale(0.085 -0.085)">
     <use xlink:href="#DejaVuSans-51"/>
     <use xlink:href="#DejaVuSans-20" transform="translate(63.375 0)"/>
     <use xlink:href="#DejaVuSans-14" transform="translate(147.171875 0)"/>
     <use xlink:href="#DejaVuSans-15" transform="translate(210.796875 0)"/>
     <use xlink:href="#DejaVuSans-16" transform="translate(274.421875 0)"/>
     <use xlink:href="#DejaVuSans-f" transform="translate(338.046875 0)"/>
     <use xlink:href="#DejaVuSans-3" transform="translate(369.828125 0)"/>
     <use xlink:href="#DejaVuSans-48" transform="translate(401.609375 0)"/>
     <use xlink:href="#DejaVuSans-59" transform="translate(463.140625 0)"/>
     <use xlink:href="#DejaVuSans-48" transform="translate(522.328125 0)"/>
     <use xlink:href="#DejaVuSans-51" transform="translate(583.859375 0)"/>
     <use xlink:href="#DejaVuSans-57" transform="translate(647.234375 0)"/>
     <use xlink:href="#DejaVuSans-56" transform="translate(686.4375 0)"/>
     <use xlink:href="#DejaVuSans-20" transform="translate(738.53125 0)"/>
     <use xlink:href="#DejaVuSans-14" transform="translate(822.328125 0)"/>
     <use xlink:href="#DejaVuSans-15" transform="translate(885.953125 0)"/>
     <use xlink:href="#DejaVuSans-f" transform="translate(949.578125 0)"/>
     <use xlink:href="#DejaVuSans-3" transform="translate(981.359375 0)"/>
     <use xlink:href="#DejaVuSans-29" transform="translate(1013.140625 0)"/>
     <use xlink:href="#DejaVuSans-33" transform="translate(1070.65625 0)"/>
     <use xlink:href="#DejaVuSans-3" transform="translate(1130.953125 0)"/>
     <use xlink:href="#DejaVuSans-10" transform="translate(1162.734375 0)"/>
     <use xlink:href="#DejaVuSans-1b" transform="translate(1198.8125 0)"/>
    </g>
   </g>
   <g id="text_21">
    <!-- n=135, events=14, FP -14 -->
    <g style="fill: #58606a" transform="translate(571.866805 259.306133) scale(0.085 -0.085)">
     <use xlink:href="#DejaVuSans-51"/>
     <use xlink:href="#DejaVuSans-20" transform="translate(63.375 0)"/>
     <use xlink:href="#DejaVuSans-14" transform="translate(147.171875 0)"/>
     <use xlink:href="#DejaVuSans-16" transform="translate(210.796875 0)"/>
     <use xlink:href="#DejaVuSans-18" transform="translate(274.421875 0)"/>
     <use xlink:href="#DejaVuSans-f" transform="translate(338.046875 0)"/>
     <use xlink:href="#DejaVuSans-3" transform="translate(369.828125 0)"/>
     <use xlink:href="#DejaVuSans-48" transform="translate(401.609375 0)"/>
     <use xlink:href="#DejaVuSans-59" transform="translate(463.140625 0)"/>
     <use xlink:href="#DejaVuSans-48" transform="translate(522.328125 0)"/>
     <use xlink:href="#DejaVuSans-51" transform="translate(583.859375 0)"/>
     <use xlink:href="#DejaVuSans-57" transform="translate(647.234375 0)"/>
     <use xlink:href="#DejaVuSans-56" transform="translate(686.4375 0)"/>
     <use xlink:href="#DejaVuSans-20" transform="translate(738.53125 0)"/>
     <use xlink:href="#DejaVuSans-14" transform="translate(822.328125 0)"/>
     <use xlink:href="#DejaVuSans-17" transform="translate(885.953125 0)"/>
     <use xlink:href="#DejaVuSans-f" transform="translate(949.578125 0)"/>
     <use xlink:href="#DejaVuSans-3" transform="translate(981.359375 0)"/>
     <use xlink:href="#DejaVuSans-29" transform="translate(1013.140625 0)"/>
     <use xlink:href="#DejaVuSans-33" transform="translate(1070.65625 0)"/>
     <use xlink:href="#DejaVuSans-3" transform="translate(1130.953125 0)"/>
     <use xlink:href="#DejaVuSans-10" transform="translate(1162.734375 0)"/>
     <use xlink:href="#DejaVuSans-14" transform="translate(1198.8125 0)"/>
     <use xlink:href="#DejaVuSans-17" transform="translate(1262.4375 0)"/>
    </g>
   </g>
   <g id="text_22">
    <!-- n=149, events=43, FP -13 -->
    <g style="fill: #58606a" transform="translate(571.866805 222.906133) scale(0.085 -0.085)">
     <use xlink:href="#DejaVuSans-51"/>
     <use xlink:href="#DejaVuSans-20" transform="translate(63.375 0)"/>
     <use xlink:href="#DejaVuSans-14" transform="translate(147.171875 0)"/>
     <use xlink:href="#DejaVuSans-17" transform="translate(210.796875 0)"/>
     <use xlink:href="#DejaVuSans-1c" transform="translate(274.421875 0)"/>
     <use xlink:href="#DejaVuSans-f" transform="translate(338.046875 0)"/>
     <use xlink:href="#DejaVuSans-3" transform="translate(369.828125 0)"/>
     <use xlink:href="#DejaVuSans-48" transform="translate(401.609375 0)"/>
     <use xlink:href="#DejaVuSans-59" transform="translate(463.140625 0)"/>
     <use xlink:href="#DejaVuSans-48" transform="translate(522.328125 0)"/>
     <use xlink:href="#DejaVuSans-51" transform="translate(583.859375 0)"/>
     <use xlink:href="#DejaVuSans-57" transform="translate(647.234375 0)"/>
     <use xlink:href="#DejaVuSans-56" transform="translate(686.4375 0)"/>
     <use xlink:href="#DejaVuSans-20" transform="translate(738.53125 0)"/>
     <use xlink:href="#DejaVuSans-17" transform="translate(822.328125 0)"/>
     <use xlink:href="#DejaVuSans-16" transform="translate(885.953125 0)"/>
     <use xlink:href="#DejaVuSans-f" transform="translate(949.578125 0)"/>
     <use xlink:href="#DejaVuSans-3" transform="translate(981.359375 0)"/>
     <use xlink:href="#DejaVuSans-29" transform="translate(1013.140625 0)"/>
     <use xlink:href="#DejaVuSans-33" transform="translate(1070.65625 0)"/>
     <use xlink:href="#DejaVuSans-3" transform="translate(1130.953125 0)"/>
     <use xlink:href="#DejaVuSans-10" transform="translate(1162.734375 0)"/>
     <use xlink:href="#DejaVuSans-14" transform="translate(1198.8125 0)"/>
     <use xlink:href="#DejaVuSans-16" transform="translate(1262.4375 0)"/>
    </g>
   </g>
   <g id="text_23">
    <!-- n=166, events=17, FP -11 -->
    <g style="fill: #58606a" transform="translate(571.866805 186.506133) scale(0.085 -0.085)">
     <defs>
      <path id="DejaVuSans-1a" d="M 525 4666 
L 3525 4666 
L 3525 4397 
L 1831 0 
L 1172 0 
L 2766 4134 
L 525 4134 
L 525 4666 
z
" transform="scale(0.015625)"/>
     </defs>
     <use xlink:href="#DejaVuSans-51"/>
     <use xlink:href="#DejaVuSans-20" transform="translate(63.375 0)"/>
     <use xlink:href="#DejaVuSans-14" transform="translate(147.171875 0)"/>
     <use xlink:href="#DejaVuSans-19" transform="translate(210.796875 0)"/>
     <use xlink:href="#DejaVuSans-19" transform="translate(274.421875 0)"/>
     <use xlink:href="#DejaVuSans-f" transform="translate(338.046875 0)"/>
     <use xlink:href="#DejaVuSans-3" transform="translate(369.828125 0)"/>
     <use xlink:href="#DejaVuSans-48" transform="translate(401.609375 0)"/>
     <use xlink:href="#DejaVuSans-59" transform="translate(463.140625 0)"/>
     <use xlink:href="#DejaVuSans-48" transform="translate(522.328125 0)"/>
     <use xlink:href="#DejaVuSans-51" transform="translate(583.859375 0)"/>
     <use xlink:href="#DejaVuSans-57" transform="translate(647.234375 0)"/>
     <use xlink:href="#DejaVuSans-56" transform="translate(686.4375 0)"/>
     <use xlink:href="#DejaVuSans-20" transform="translate(738.53125 0)"/>
     <use xlink:href="#DejaVuSans-14" transform="translate(822.328125 0)"/>
     <use xlink:href="#DejaVuSans-1a" transform="translate(885.953125 0)"/>
     <use xlink:href="#DejaVuSans-f" transform="translate(949.578125 0)"/>
     <use xlink:href="#DejaVuSans-3" transform="translate(981.359375 0)"/>
     <use xlink:href="#DejaVuSans-29" transform="translate(1013.140625 0)"/>
     <use xlink:href="#DejaVuSans-33" transform="translate(1070.65625 0)"/>
     <use xlink:href="#DejaVuSans-3" transform="translate(1130.953125 0)"/>
     <use xlink:href="#DejaVuSans-10" transform="translate(1162.734375 0)"/>
     <use xlink:href="#DejaVuSans-14" transform="translate(1198.8125 0)"/>
     <use xlink:href="#DejaVuSans-14" transform="translate(1262.4375 0)"/>
    </g>
   </g>
   <g id="text_24">
    <!-- n=228, events=31, FP -29 -->
    <g style="fill: #58606a" transform="translate(571.866805 150.106133) scale(0.085 -0.085)">
     <use xlink:href="#DejaVuSans-51"/>
     <use xlink:href="#DejaVuSans-20" transform="translate(63.375 0)"/>
     <use xlink:href="#DejaVuSans-15" transform="translate(147.171875 0)"/>
     <use xlink:href="#DejaVuSans-15" transform="translate(210.796875 0)"/>
     <use xlink:href="#DejaVuSans-1b" transform="translate(274.421875 0)"/>
     <use xlink:href="#DejaVuSans-f" transform="translate(338.046875 0)"/>
     <use xlink:href="#DejaVuSans-3" transform="translate(369.828125 0)"/>
     <use xlink:href="#DejaVuSans-48" transform="translate(401.609375 0)"/>
     <use xlink:href="#DejaVuSans-59" transform="translate(463.140625 0)"/>
     <use xlink:href="#DejaVuSans-48" transform="translate(522.328125 0)"/>
     <use xlink:href="#DejaVuSans-51" transform="translate(583.859375 0)"/>
     <use xlink:href="#DejaVuSans-57" transform="translate(647.234375 0)"/>
     <use xlink:href="#DejaVuSans-56" transform="translate(686.4375 0)"/>
     <use xlink:href="#DejaVuSans-20" transform="translate(738.53125 0)"/>
     <use xlink:href="#DejaVuSans-16" transform="translate(822.328125 0)"/>
     <use xlink:href="#DejaVuSans-14" transform="translate(885.953125 0)"/>
     <use xlink:href="#DejaVuSans-f" transform="translate(949.578125 0)"/>
     <use xlink:href="#DejaVuSans-3" transform="translate(981.359375 0)"/>
     <use xlink:href="#DejaVuSans-29" transform="translate(1013.140625 0)"/>
     <use xlink:href="#DejaVuSans-33" transform="translate(1070.65625 0)"/>
     <use xlink:href="#DejaVuSans-3" transform="translate(1130.953125 0)"/>
     <use xlink:href="#DejaVuSans-10" transform="translate(1162.734375 0)"/>
     <use xlink:href="#DejaVuSans-15" transform="translate(1198.8125 0)"/>
     <use xlink:href="#DejaVuSans-1c" transform="translate(1262.4375 0)"/>
    </g>
   </g>
   <g id="text_25">
    <!-- n=498, events=43, FP -59 -->
    <g style="fill: #58606a" transform="translate(571.866805 113.706133) scale(0.085 -0.085)">
     <use xlink:href="#DejaVuSans-51"/>
     <use xlink:href="#DejaVuSans-20" transform="translate(63.375 0)"/>
     <use xlink:href="#DejaVuSans-17" transform="translate(147.171875 0)"/>
     <use xlink:href="#DejaVuSans-1c" transform="translate(210.796875 0)"/>
     <use xlink:href="#DejaVuSans-1b" transform="translate(274.421875 0)"/>
     <use xlink:href="#DejaVuSans-f" transform="translate(338.046875 0)"/>
     <use xlink:href="#DejaVuSans-3" transform="translate(369.828125 0)"/>
     <use xlink:href="#DejaVuSans-48" transform="translate(401.609375 0)"/>
     <use xlink:href="#DejaVuSans-59" transform="translate(463.140625 0)"/>
     <use xlink:href="#DejaVuSans-48" transform="translate(522.328125 0)"/>
     <use xlink:href="#DejaVuSans-51" transform="translate(583.859375 0)"/>
     <use xlink:href="#DejaVuSans-57" transform="translate(647.234375 0)"/>
     <use xlink:href="#DejaVuSans-56" transform="translate(686.4375 0)"/>
     <use xlink:href="#DejaVuSans-20" transform="translate(738.53125 0)"/>
     <use xlink:href="#DejaVuSans-17" transform="translate(822.328125 0)"/>
     <use xlink:href="#DejaVuSans-16" transform="translate(885.953125 0)"/>
     <use xlink:href="#DejaVuSans-f" transform="translate(949.578125 0)"/>
     <use xlink:href="#DejaVuSans-3" transform="translate(981.359375 0)"/>
     <use xlink:href="#DejaVuSans-29" transform="translate(1013.140625 0)"/>
     <use xlink:href="#DejaVuSans-33" transform="translate(1070.65625 0)"/>
     <use xlink:href="#DejaVuSans-3" transform="translate(1130.953125 0)"/>
     <use xlink:href="#DejaVuSans-10" transform="translate(1162.734375 0)"/>
     <use xlink:href="#DejaVuSans-18" transform="translate(1198.8125 0)"/>
     <use xlink:href="#DejaVuSans-1c" transform="translate(1262.4375 0)"/>
    </g>
   </g>
   <g id="text_26">
    <!-- n=428, events=98, FP -35 -->
    <g style="fill: #58606a" transform="translate(571.866805 77.306133) scale(0.085 -0.085)">
     <use xlink:href="#DejaVuSans-51"/>
     <use xlink:href="#DejaVuSans-20" transform="translate(63.375 0)"/>
     <use xlink:href="#DejaVuSans-17" transform="translate(147.171875 0)"/>
     <use xlink:href="#DejaVuSans-15" transform="translate(210.796875 0)"/>
     <use xlink:href="#DejaVuSans-1b" transform="translate(274.421875 0)"/>
     <use xlink:href="#DejaVuSans-f" transform="translate(338.046875 0)"/>
     <use xlink:href="#DejaVuSans-3" transform="translate(369.828125 0)"/>
     <use xlink:href="#DejaVuSans-48" transform="translate(401.609375 0)"/>
     <use xlink:href="#DejaVuSans-59" transform="translate(463.140625 0)"/>
     <use xlink:href="#DejaVuSans-48" transform="translate(522.328125 0)"/>
     <use xlink:href="#DejaVuSans-51" transform="translate(583.859375 0)"/>
     <use xlink:href="#DejaVuSans-57" transform="translate(647.234375 0)"/>
     <use xlink:href="#DejaVuSans-56" transform="translate(686.4375 0)"/>
     <use xlink:href="#DejaVuSans-20" transform="translate(738.53125 0)"/>
     <use xlink:href="#DejaVuSans-1c" transform="translate(822.328125 0)"/>
     <use xlink:href="#DejaVuSans-1b" transform="translate(885.953125 0)"/>
     <use xlink:href="#DejaVuSans-f" transform="translate(949.578125 0)"/>
     <use xlink:href="#DejaVuSans-3" transform="translate(981.359375 0)"/>
     <use xlink:href="#DejaVuSans-29" transform="translate(1013.140625 0)"/>
     <use xlink:href="#DejaVuSans-33" transform="translate(1070.65625 0)"/>
     <use xlink:href="#DejaVuSans-3" transform="translate(1130.953125 0)"/>
     <use xlink:href="#DejaVuSans-10" transform="translate(1162.734375 0)"/>
     <use xlink:href="#DejaVuSans-16" transform="translate(1198.8125 0)"/>
     <use xlink:href="#DejaVuSans-18" transform="translate(1262.4375 0)"/>
    </g>
   </g>
   <g id="text_27">
    <!-- n=926, events=141, FP -94 -->
    <g style="fill: #58606a" transform="translate(566.45868 40.906133) scale(0.085 -0.085)">
     <use xlink:href="#DejaVuSans-51"/>
     <use xlink:href="#DejaVuSans-20" transform="translate(63.375 0)"/>
     <use xlink:href="#DejaVuSans-1c" transform="translate(147.171875 0)"/>
     <use xlink:href="#DejaVuSans-15" transform="translate(210.796875 0)"/>
     <use xlink:href="#DejaVuSans-19" transform="translate(274.421875 0)"/>
     <use xlink:href="#DejaVuSans-f" transform="translate(338.046875 0)"/>
     <use xlink:href="#DejaVuSans-3" transform="translate(369.828125 0)"/>
     <use xlink:href="#DejaVuSans-48" transform="translate(401.609375 0)"/>
     <use xlink:href="#DejaVuSans-59" transform="translate(463.140625 0)"/>
     <use xlink:href="#DejaVuSans-48" transform="translate(522.328125 0)"/>
     <use xlink:href="#DejaVuSans-51" transform="translate(583.859375 0)"/>
     <use xlink:href="#DejaVuSans-57" transform="translate(647.234375 0)"/>
     <use xlink:href="#DejaVuSans-56" transform="translate(686.4375 0)"/>
     <use xlink:href="#DejaVuSans-20" transform="translate(738.53125 0)"/>
     <use xlink:href="#DejaVuSans-14" transform="translate(822.328125 0)"/>
     <use xlink:href="#DejaVuSans-17" transform="translate(885.953125 0)"/>
     <use xlink:href="#DejaVuSans-14" transform="translate(949.578125 0)"/>
     <use xlink:href="#DejaVuSans-f" transform="translate(1013.203125 0)"/>
     <use xlink:href="#DejaVuSans-3" transform="translate(1044.984375 0)"/>
     <use xlink:href="#DejaVuSans-29" transform="translate(1076.765625 0)"/>
     <use xlink:href="#DejaVuSans-33" transform="translate(1134.28125 0)"/>
     <use xlink:href="#DejaVuSans-3" transform="translate(1194.578125 0)"/>
     <use xlink:href="#DejaVuSans-10" transform="translate(1226.359375 0)"/>
     <use xlink:href="#DejaVuSans-1c" transform="translate(1262.4375 0)"/>
     <use xlink:href="#DejaVuSans-17" transform="translate(1326.0625 0)"/>
    </g>
   </g>
   <g id="text_28">
    <!-- Subgroup Consistency of False-Positive Reduction -->
    <g transform="translate(146.703125 16.318125) scale(0.12 -0.12)">
     <defs>
      <path id="DejaVuSans-Bold-36" d="M 3834 4519 
L 3834 3531 
Q 3450 3703 3084 3790 
Q 2719 3878 2394 3878 
Q 1963 3878 1756 3759 
Q 1550 3641 1550 3391 
Q 1550 3203 1689 3098 
Q 1828 2994 2194 2919 
L 2706 2816 
Q 3484 2659 3812 2340 
Q 4141 2022 4141 1434 
Q 4141 663 3683 286 
Q 3225 -91 2284 -91 
Q 1841 -91 1394 -6 
Q 947 78 500 244 
L 500 1259 
Q 947 1022 1364 901 
Q 1781 781 2169 781 
Q 2563 781 2772 912 
Q 2981 1044 2981 1288 
Q 2981 1506 2839 1625 
Q 2697 1744 2272 1838 
L 1806 1941 
Q 1106 2091 782 2419 
Q 459 2747 459 3303 
Q 459 4000 909 4375 
Q 1359 4750 2203 4750 
Q 2588 4750 2994 4692 
Q 3400 4634 3834 4519 
z
" transform="scale(0.015625)"/>
      <path id="DejaVuSans-Bold-58" d="M 500 1363 
L 500 3500 
L 1625 3500 
L 1625 3150 
Q 1625 2866 1622 2436 
Q 1619 2006 1619 1863 
Q 1619 1441 1641 1255 
Q 1663 1069 1716 984 
Q 1784 875 1895 815 
Q 2006 756 2150 756 
Q 2500 756 2700 1025 
Q 2900 1294 2900 1772 
L 2900 3500 
L 4019 3500 
L 4019 0 
L 2900 0 
L 2900 506 
Q 2647 200 2364 54 
Q 2081 -91 1741 -91 
Q 1134 -91 817 281 
Q 500 653 500 1363 
z
" transform="scale(0.015625)"/>
      <path id="DejaVuSans-Bold-45" d="M 2400 722 
Q 2759 722 2948 984 
Q 3138 1247 3138 1747 
Q 3138 2247 2948 2509 
Q 2759 2772 2400 2772 
Q 2041 2772 1848 2508 
Q 1656 2244 1656 1747 
Q 1656 1250 1848 986 
Q 2041 722 2400 722 
z
M 1656 2988 
Q 1888 3294 2169 3439 
Q 2450 3584 2816 3584 
Q 3463 3584 3878 3070 
Q 4294 2556 4294 1747 
Q 4294 938 3878 423 
Q 3463 -91 2816 -91 
Q 2450 -91 2169 54 
Q 1888 200 1656 506 
L 1656 0 
L 538 0 
L 538 4863 
L 1656 4863 
L 1656 2988 
z
" transform="scale(0.015625)"/>
      <path id="DejaVuSans-Bold-4a" d="M 2919 594 
Q 2688 288 2409 144 
Q 2131 0 1766 0 
Q 1125 0 706 504 
Q 288 1009 288 1791 
Q 288 2575 706 3076 
Q 1125 3578 1766 3578 
Q 2131 3578 2409 3434 
Q 2688 3291 2919 2981 
L 2919 3500 
L 4044 3500 
L 4044 353 
Q 4044 -491 3511 -936 
Q 2978 -1381 1966 -1381 
Q 1638 -1381 1331 -1331 
Q 1025 -1281 716 -1178 
L 716 -306 
Q 1009 -475 1290 -558 
Q 1572 -641 1856 -641 
Q 2406 -641 2662 -400 
Q 2919 -159 2919 353 
L 2919 594 
z
M 2181 2772 
Q 1834 2772 1640 2515 
Q 1447 2259 1447 1791 
Q 1447 1309 1634 1061 
Q 1822 813 2181 813 
Q 2531 813 2725 1069 
Q 2919 1325 2919 1791 
Q 2919 2259 2725 2515 
Q 2531 2772 2181 2772 
z
" transform="scale(0.015625)"/>
      <path id="DejaVuSans-Bold-55" d="M 3138 2547 
Q 2991 2616 2845 2648 
Q 2700 2681 2553 2681 
Q 2122 2681 1889 2404 
Q 1656 2128 1656 1613 
L 1656 0 
L 538 0 
L 538 3500 
L 1656 3500 
L 1656 2925 
Q 1872 3269 2151 3426 
Q 2431 3584 2822 3584 
Q 2878 3584 2943 3579 
Q 3009 3575 3134 3559 
L 3138 2547 
z
" transform="scale(0.015625)"/>
      <path id="DejaVuSans-Bold-52" d="M 2203 2784 
Q 1831 2784 1636 2517 
Q 1441 2250 1441 1747 
Q 1441 1244 1636 976 
Q 1831 709 2203 709 
Q 2569 709 2762 976 
Q 2956 1244 2956 1747 
Q 2956 2250 2762 2517 
Q 2569 2784 2203 2784 
z
M 2203 3584 
Q 3106 3584 3614 3096 
Q 4122 2609 4122 1747 
Q 4122 884 3614 396 
Q 3106 -91 2203 -91 
Q 1297 -91 786 396 
Q 275 884 275 1747 
Q 275 2609 786 3096 
Q 1297 3584 2203 3584 
z
" transform="scale(0.015625)"/>
      <path id="DejaVuSans-Bold-53" d="M 1656 506 
L 1656 -1331 
L 538 -1331 
L 538 3500 
L 1656 3500 
L 1656 2988 
Q 1888 3294 2169 3439 
Q 2450 3584 2816 3584 
Q 3463 3584 3878 3070 
Q 4294 2556 4294 1747 
Q 4294 938 3878 423 
Q 3463 -91 2816 -91 
Q 2450 -91 2169 54 
Q 1888 200 1656 506 
z
M 2400 2772 
Q 2041 2772 1848 2508 
Q 1656 2244 1656 1747 
Q 1656 1250 1848 986 
Q 2041 722 2400 722 
Q 2759 722 2948 984 
Q 3138 1247 3138 1747 
Q 3138 2247 2948 2509 
Q 2759 2772 2400 2772 
z
" transform="scale(0.015625)"/>
      <path id="DejaVuSans-Bold-3" transform="scale(0.015625)"/>
      <path id="DejaVuSans-Bold-26" d="M 4288 256 
Q 3956 84 3597 -3 
Q 3238 -91 2847 -91 
Q 1681 -91 1000 561 
Q 319 1213 319 2328 
Q 319 3447 1000 4098 
Q 1681 4750 2847 4750 
Q 3238 4750 3597 4662 
Q 3956 4575 4288 4403 
L 4288 3438 
Q 3953 3666 3628 3772 
Q 3303 3878 2944 3878 
Q 2300 3878 1931 3465 
Q 1563 3053 1563 2328 
Q 1563 1606 1931 1193 
Q 2300 781 2944 781 
Q 3303 781 3628 887 
Q 3953 994 4288 1222 
L 4288 256 
z
" transform="scale(0.015625)"/>
      <path id="DejaVuSans-Bold-51" d="M 4056 2131 
L 4056 0 
L 2931 0 
L 2931 347 
L 2931 1631 
Q 2931 2084 2911 2256 
Q 2891 2428 2841 2509 
Q 2775 2619 2662 2680 
Q 2550 2741 2406 2741 
Q 2056 2741 1856 2470 
Q 1656 2200 1656 1722 
L 1656 0 
L 538 0 
L 538 3500 
L 1656 3500 
L 1656 2988 
Q 1909 3294 2193 3439 
Q 2478 3584 2822 3584 
Q 3428 3584 3742 3212 
Q 4056 2841 4056 2131 
z
" transform="scale(0.015625)"/>
      <path id="DejaVuSans-Bold-56" d="M 3272 3391 
L 3272 2541 
Q 2913 2691 2578 2766 
Q 2244 2841 1947 2841 
Q 1628 2841 1473 2761 
Q 1319 2681 1319 2516 
Q 1319 2381 1436 2309 
Q 1553 2238 1856 2203 
L 2053 2175 
Q 2913 2066 3209 1816 
Q 3506 1566 3506 1031 
Q 3506 472 3093 190 
Q 2681 -91 1863 -91 
Q 1516 -91 1145 -36 
Q 775 19 384 128 
L 384 978 
Q 719 816 1070 734 
Q 1422 653 1784 653 
Q 2113 653 2278 743 
Q 2444 834 2444 1013 
Q 2444 1163 2330 1236 
Q 2216 1309 1875 1350 
L 1678 1375 
Q 931 1469 631 1722 
Q 331 1975 331 2491 
Q 331 3047 712 3315 
Q 1094 3584 1881 3584 
Q 2191 3584 2531 3537 
Q 2872 3491 3272 3391 
z
" transform="scale(0.015625)"/>
      <path id="DejaVuSans-Bold-4c" d="M 538 3500 
L 1656 3500 
L 1656 0 
L 538 0 
L 538 3500 
z
M 538 4863 
L 1656 4863 
L 1656 3950 
L 538 3950 
L 538 4863 
z
" transform="scale(0.015625)"/>
      <path id="DejaVuSans-Bold-57" d="M 1759 4494 
L 1759 3500 
L 2913 3500 
L 2913 2700 
L 1759 2700 
L 1759 1216 
Q 1759 972 1856 886 
Q 1953 800 2241 800 
L 2816 800 
L 2816 0 
L 1856 0 
Q 1194 0 917 276 
Q 641 553 641 1216 
L 641 2700 
L 84 2700 
L 84 3500 
L 641 3500 
L 641 4494 
L 1759 4494 
z
" transform="scale(0.015625)"/>
      <path id="DejaVuSans-Bold-48" d="M 4031 1759 
L 4031 1441 
L 1416 1441 
Q 1456 1047 1700 850 
Q 1944 653 2381 653 
Q 2734 653 3104 758 
Q 3475 863 3866 1075 
L 3866 213 
Q 3469 63 3072 -14 
Q 2675 -91 2278 -91 
Q 1328 -91 801 392 
Q 275 875 275 1747 
Q 275 2603 792 3093 
Q 1309 3584 2216 3584 
Q 3041 3584 3536 3087 
Q 4031 2591 4031 1759 
z
M 2881 2131 
Q 2881 2450 2695 2645 
Q 2509 2841 2209 2841 
Q 1884 2841 1681 2658 
Q 1478 2475 1428 2131 
L 2881 2131 
z
" transform="scale(0.015625)"/>
      <path id="DejaVuSans-Bold-46" d="M 3366 3391 
L 3366 2478 
Q 3138 2634 2908 2709 
Q 2678 2784 2431 2784 
Q 1963 2784 1702 2511 
Q 1441 2238 1441 1747 
Q 1441 1256 1702 982 
Q 1963 709 2431 709 
Q 2694 709 2930 787 
Q 3166 866 3366 1019 
L 3366 103 
Q 3103 6 2833 -42 
Q 2563 -91 2291 -91 
Q 1344 -91 809 395 
Q 275 881 275 1747 
Q 275 2613 809 3098 
Q 1344 3584 2291 3584 
Q 2566 3584 2833 3536 
Q 3100 3488 3366 3391 
z
" transform="scale(0.015625)"/>
      <path id="DejaVuSans-Bold-5c" d="M 78 3500 
L 1197 3500 
L 2138 1125 
L 2938 3500 
L 4056 3500 
L 2584 -331 
Q 2363 -916 2067 -1148 
Q 1772 -1381 1288 -1381 
L 641 -1381 
L 641 -647 
L 991 -647 
Q 1275 -647 1404 -556 
Q 1534 -466 1606 -231 
L 1638 -134 
L 78 3500 
z
" transform="scale(0.015625)"/>
      <path id="DejaVuSans-Bold-49" d="M 2841 4863 
L 2841 4128 
L 2222 4128 
Q 1984 4128 1890 4042 
Q 1797 3956 1797 3744 
L 1797 3500 
L 2753 3500 
L 2753 2700 
L 1797 2700 
L 1797 0 
L 678 0 
L 678 2700 
L 122 2700 
L 122 3500 
L 678 3500 
L 678 3744 
Q 678 4316 997 4589 
Q 1316 4863 1984 4863 
L 2841 4863 
z
" transform="scale(0.015625)"/>
      <path id="DejaVuSans-Bold-29" d="M 588 4666 
L 3834 4666 
L 3834 3756 
L 1791 3756 
L 1791 2888 
L 3713 2888 
L 3713 1978 
L 1791 1978 
L 1791 0 
L 588 0 
L 588 4666 
z
" transform="scale(0.015625)"/>
      <path id="DejaVuSans-Bold-44" d="M 2106 1575 
Q 1756 1575 1579 1456 
Q 1403 1338 1403 1106 
Q 1403 894 1545 773 
Q 1688 653 1941 653 
Q 2256 653 2472 879 
Q 2688 1106 2688 1447 
L 2688 1575 
L 2106 1575 
z
M 3816 1997 
L 3816 0 
L 2688 0 
L 2688 519 
Q 2463 200 2181 54 
Q 1900 -91 1497 -91 
Q 953 -91 614 226 
Q 275 544 275 1050 
Q 275 1666 698 1953 
Q 1122 2241 2028 2241 
L 2688 2241 
L 2688 2328 
Q 2688 2594 2478 2717 
Q 2269 2841 1825 2841 
Q 1466 2841 1156 2769 
Q 847 2697 581 2553 
L 581 3406 
Q 941 3494 1303 3539 
Q 1666 3584 2028 3584 
Q 2975 3584 3395 3211 
Q 3816 2838 3816 1997 
z
" transform="scale(0.015625)"/>
      <path id="DejaVuSans-Bold-4f" d="M 538 4863 
L 1656 4863 
L 1656 0 
L 538 0 
L 538 4863 
z
" transform="scale(0.015625)"/>
      <path id="DejaVuSans-Bold-10" d="M 347 2297 
L 2309 2297 
L 2309 1388 
L 347 1388 
L 347 2297 
z
" transform="scale(0.015625)"/>
      <path id="DejaVuSans-Bold-33" d="M 588 4666 
L 2584 4666 
Q 3475 4666 3951 4270 
Q 4428 3875 4428 3144 
Q 4428 2409 3951 2014 
Q 3475 1619 2584 1619 
L 1791 1619 
L 1791 0 
L 588 0 
L 588 4666 
z
M 1791 3794 
L 1791 2491 
L 2456 2491 
Q 2806 2491 2997 2661 
Q 3188 2831 3188 3144 
Q 3188 3456 2997 3625 
Q 2806 3794 2456 3794 
L 1791 3794 
z
" transform="scale(0.015625)"/>
      <path id="DejaVuSans-Bold-59" d="M 97 3500 
L 1216 3500 
L 2088 1081 
L 2956 3500 
L 4078 3500 
L 2700 0 
L 1472 0 
L 97 3500 
z
" transform="scale(0.015625)"/>
      <path id="DejaVuSans-Bold-35" d="M 2297 2597 
Q 2675 2597 2839 2737 
Q 3003 2878 3003 3200 
Q 3003 3519 2839 3656 
Q 2675 3794 2297 3794 
L 1791 3794 
L 1791 2597 
L 2297 2597 
z
M 1791 1766 
L 1791 0 
L 588 0 
L 588 4666 
L 2425 4666 
Q 3347 4666 3776 4356 
Q 4206 4047 4206 3378 
Q 4206 2916 3982 2619 
Q 3759 2322 3309 2181 
Q 3556 2125 3751 1926 
Q 3947 1728 4147 1325 
L 4800 0 
L 3519 0 
L 2950 1159 
Q 2778 1509 2601 1637 
Q 2425 1766 2131 1766 
L 1791 1766 
z
" transform="scale(0.015625)"/>
      <path id="DejaVuSans-Bold-47" d="M 2919 2988 
L 2919 4863 
L 4044 4863 
L 4044 0 
L 2919 0 
L 2919 506 
Q 2688 197 2409 53 
Q 2131 -91 1766 -91 
Q 1119 -91 703 423 
Q 288 938 288 1747 
Q 288 2556 703 3070 
Q 1119 3584 1766 3584 
Q 2128 3584 2408 3439 
Q 2688 3294 2919 2988 
z
M 2181 722 
Q 2541 722 2730 984 
Q 2919 1247 2919 1747 
Q 2919 2247 2730 2509 
Q 2541 2772 2181 2772 
Q 1825 2772 1636 2509 
Q 1447 2247 1447 1747 
Q 1447 1247 1636 984 
Q 1825 722 2181 722 
z
" transform="scale(0.015625)"/>
     </defs>
     <use xlink:href="#DejaVuSans-Bold-36"/>
     <use xlink:href="#DejaVuSans-Bold-58" transform="translate(72.015625 0)"/>
     <use xlink:href="#DejaVuSans-Bold-45" transform="translate(143.203125 0)"/>
     <use xlink:href="#DejaVuSans-Bold-4a" transform="translate(214.78125 0)"/>
     <use xlink:href="#DejaVuSans-Bold-55" transform="translate(286.359375 0)"/>
     <use xlink:href="#DejaVuSans-Bold-52" transform="translate(335.671875 0)"/>
     <use xlink:href="#DejaVuSans-Bold-58" transform="translate(404.375 0)"/>
     <use xlink:href="#DejaVuSans-Bold-53" transform="translate(475.5625 0)"/>
     <use xlink:href="#DejaVuSans-Bold-3" transform="translate(547.140625 0)"/>
     <use xlink:href="#DejaVuSans-Bold-26" transform="translate(581.953125 0)"/>
     <use xlink:href="#DejaVuSans-Bold-52" transform="translate(655.34375 0)"/>
     <use xlink:href="#DejaVuSans-Bold-51" transform="translate(724.046875 0)"/>
     <use xlink:href="#DejaVuSans-Bold-56" transform="translate(795.234375 0)"/>
     <use xlink:href="#DejaVuSans-Bold-4c" transform="translate(854.75 0)"/>
     <use xlink:href="#DejaVuSans-Bold-56" transform="translate(889.03125 0)"/>
     <use xlink:href="#DejaVuSans-Bold-57" transform="translate(948.546875 0)"/>
     <use xlink:href="#DejaVuSans-Bold-48" transform="translate(996.34375 0)"/>
     <use xlink:href="#DejaVuSans-Bold-51" transform="translate(1064.171875 0)"/>
     <use xlink:href="#DejaVuSans-Bold-46" transform="translate(1135.359375 0)"/>
     <use xlink:href="#DejaVuSans-Bold-5c" transform="translate(1194.640625 0)"/>
     <use xlink:href="#DejaVuSans-Bold-3" transform="translate(1259.828125 0)"/>
     <use xlink:href="#DejaVuSans-Bold-52" transform="translate(1294.640625 0)"/>
     <use xlink:href="#DejaVuSans-Bold-49" transform="translate(1363.34375 0)"/>
     <use xlink:href="#DejaVuSans-Bold-3" transform="translate(1406.84375 0)"/>
     <use xlink:href="#DejaVuSans-Bold-29" transform="translate(1441.65625 0)"/>
     <use xlink:href="#DejaVuSans-Bold-44" transform="translate(1504.109375 0)"/>
     <use xlink:href="#DejaVuSans-Bold-4f" transform="translate(1571.59375 0)"/>
     <use xlink:href="#DejaVuSans-Bold-56" transform="translate(1605.875 0)"/>
     <use xlink:href="#DejaVuSans-Bold-48" transform="translate(1665.390625 0)"/>
     <use xlink:href="#DejaVuSans-Bold-10" transform="translate(1733.21875 0)"/>
     <use xlink:href="#DejaVuSans-Bold-33" transform="translate(1774.71875 0)"/>
     <use xlink:href="#DejaVuSans-Bold-52" transform="translate(1848.015625 0)"/>
     <use xlink:href="#DejaVuSans-Bold-56" transform="translate(1916.71875 0)"/>
     <use xlink:href="#DejaVuSans-Bold-4c" transform="translate(1976.234375 0)"/>
     <use xlink:href="#DejaVuSans-Bold-57" transform="translate(2010.515625 0)"/>
     <use xlink:href="#DejaVuSans-Bold-4c" transform="translate(2058.3125 0)"/>
     <use xlink:href="#DejaVuSans-Bold-59" transform="translate(2092.59375 0)"/>
     <use xlink:href="#DejaVuSans-Bold-48" transform="translate(2157.78125 0)"/>
     <use xlink:href="#DejaVuSans-Bold-3" transform="translate(2225.609375 0)"/>
     <use xlink:href="#DejaVuSans-Bold-35" transform="translate(2260.421875 0)"/>
     <use xlink:href="#DejaVuSans-Bold-48" transform="translate(2337.421875 0)"/>
     <use xlink:href="#DejaVuSans-Bold-47" transform="translate(2405.25 0)"/>
     <use xlink:href="#DejaVuSans-Bold-58" transform="translate(2476.828125 0)"/>
     <use xlink:href="#DejaVuSans-Bold-46" transform="translate(2548.015625 0)"/>
     <use xlink:href="#DejaVuSans-Bold-57" transform="translate(2607.296875 0)"/>
     <use xlink:href="#DejaVuSans-Bold-4c" transform="translate(2655.09375 0)"/>
     <use xlink:href="#DejaVuSans-Bold-52" transform="translate(2689.375 0)"/>
     <use xlink:href="#DejaVuSans-Bold-51" transform="translate(2758.078125 0)"/>
    </g>
   </g>
  </g>
  <g id="text_29">
   <!-- Points are specificity differences; bars are bootstrap 95% intervals within each subgroup. -->
   <g style="fill: #58606a" transform="translate(72.615125 429.478125) scale(0.085 -0.085)">
    <defs>
     <path id="DejaVuSans-13ae" d="M 4531 4863 
L 4531 4384 
L 3981 4384 
Q 3672 4384 3551 4259 
Q 3431 4134 3431 3809 
L 3431 3500 
L 4378 3500 
L 4378 3053 
L 3431 3053 
L 3431 0 
L 2853 0 
L 2853 3053 
L 1275 3053 
L 1275 0 
L 697 0 
L 697 3053 
L 147 3053 
L 147 3500 
L 697 3500 
L 697 3744 
Q 697 4328 969 4595 
Q 1241 4863 1831 4863 
L 2375 4863 
L 2375 4384 
L 1825 4384 
Q 1516 4384 1394 4259 
Q 1275 4134 1275 3809 
L 1275 3500 
L 2853 3500 
L 2853 3744 
Q 2853 4328 3125 4595 
Q 3397 4863 3988 4863 
L 4531 4863 
z
" transform="scale(0.015625)"/>
     <path id="DejaVuSans-1e" d="M 750 3309 
L 1409 3309 
L 1409 2516 
L 750 2516 
L 750 3309 
z
M 750 794 
L 1409 794 
L 1409 256 
L 897 -744 
L 494 -744 
L 750 256 
L 750 794 
z
" transform="scale(0.015625)"/>
     <path id="DejaVuSans-45" d="M 3116 1747 
Q 3116 2381 2855 2742 
Q 2594 3103 2138 3103 
Q 1681 3103 1420 2742 
Q 1159 2381 1159 1747 
Q 1159 1113 1420 752 
Q 1681 391 2138 391 
Q 2594 391 2855 752 
Q 3116 1113 3116 1747 
z
M 1159 2969 
Q 1341 3281 1617 3432 
Q 1894 3584 2278 3584 
Q 2916 3584 3314 3078 
Q 3713 2572 3713 1747 
Q 3713 922 3314 415 
Q 2916 -91 2278 -91 
Q 1894 -91 1617 61 
Q 1341 213 1159 525 
L 1159 0 
L 581 0 
L 581 4863 
L 1159 4863 
L 1159 2969 
z
" transform="scale(0.015625)"/>
     <path id="DejaVuSans-8" d="M 4653 2053 
Q 4381 2053 4226 1822 
Q 4072 1591 4072 1178 
Q 4072 772 4226 539 
Q 4381 306 4653 306 
Q 4919 306 5073 539 
Q 5228 772 5228 1178 
Q 5228 1588 5073 1820 
Q 4919 2053 4653 2053 
z
M 4653 2450 
Q 5147 2450 5437 2106 
Q 5728 1763 5728 1178 
Q 5728 594 5436 251 
Q 5144 -91 4653 -91 
Q 4153 -91 3862 251 
Q 3572 594 3572 1178 
Q 3572 1766 3864 2108 
Q 4156 2450 4653 2450 
z
M 1428 4353 
Q 1159 4353 1004 4120 
Q 850 3888 850 3481 
Q 850 3069 1003 2837 
Q 1156 2606 1428 2606 
Q 1700 2606 1854 2837 
Q 2009 3069 2009 3481 
Q 2009 3884 1853 4118 
Q 1697 4353 1428 4353 
z
M 4250 4750 
L 4750 4750 
L 1831 -91 
L 1331 -91 
L 4250 4750 
z
M 1428 4750 
Q 1922 4750 2215 4408 
Q 2509 4066 2509 3481 
Q 2509 2891 2217 2550 
Q 1925 2209 1428 2209 
Q 931 2209 642 2551 
Q 353 2894 353 3481 
Q 353 4063 643 4406 
Q 934 4750 1428 4750 
z
" transform="scale(0.015625)"/>
     <path id="DejaVuSans-5a" d="M 269 3500 
L 844 3500 
L 1563 769 
L 2278 3500 
L 2956 3500 
L 3675 769 
L 4391 3500 
L 4966 3500 
L 4050 0 
L 3372 0 
L 2619 2869 
L 1863 0 
L 1184 0 
L 269 3500 
z
" transform="scale(0.015625)"/>
    </defs>
    <use xlink:href="#DejaVuSans-33"/>
    <use xlink:href="#DejaVuSans-52" transform="translate(56.734375 0)"/>
    <use xlink:href="#DejaVuSans-4c" transform="translate(117.921875 0)"/>
    <use xlink:href="#DejaVuSans-51" transform="translate(145.703125 0)"/>
    <use xlink:href="#DejaVuSans-57" transform="translate(209.078125 0)"/>
    <use xlink:href="#DejaVuSans-56" transform="translate(248.28125 0)"/>
    <use xlink:href="#DejaVuSans-3" transform="translate(300.375 0)"/>
    <use xlink:href="#DejaVuSans-44" transform="translate(332.15625 0)"/>
    <use xlink:href="#DejaVuSans-55" transform="translate(393.4375 0)"/>
    <use xlink:href="#DejaVuSans-48" transform="translate(432.34375 0)"/>
    <use xlink:href="#DejaVuSans-3" transform="translate(493.875 0)"/>
    <use xlink:href="#DejaVuSans-56" transform="translate(525.65625 0)"/>
    <use xlink:href="#DejaVuSans-53" transform="translate(577.75 0)"/>
    <use xlink:href="#DejaVuSans-48" transform="translate(641.234375 0)"/>
    <use xlink:href="#DejaVuSans-46" transform="translate(702.765625 0)"/>
    <use xlink:href="#DejaVuSans-4c" transform="translate(757.75 0)"/>
    <use xlink:href="#DejaVuSans-13af" transform="translate(785.53125 0)"/>
    <use xlink:href="#DejaVuSans-46" transform="translate(848.515625 0)"/>
    <use xlink:href="#DejaVuSans-4c" transform="translate(903.5 0)"/>
    <use xlink:href="#DejaVuSans-57" transform="translate(931.28125 0)"/>
    <use xlink:href="#DejaVuSans-5c" transform="translate(970.484375 0)"/>
    <use xlink:href="#DejaVuSans-3" transform="translate(1029.671875 0)"/>
    <use xlink:href="#DejaVuSans-47" transform="translate(1061.453125 0)"/>
    <use xlink:href="#DejaVuSans-4c" transform="translate(1124.9375 0)"/>
    <use xlink:href="#DejaVuSans-13ae" transform="translate(1152.71875 0)"/>
    <use xlink:href="#DejaVuSans-48" transform="translate(1221.609375 0)"/>
    <use xlink:href="#DejaVuSans-55" transform="translate(1283.140625 0)"/>
    <use xlink:href="#DejaVuSans-48" transform="translate(1322.046875 0)"/>
    <use xlink:href="#DejaVuSans-51" transform="translate(1383.578125 0)"/>
    <use xlink:href="#DejaVuSans-46" transform="translate(1446.953125 0)"/>
    <use xlink:href="#DejaVuSans-48" transform="translate(1501.9375 0)"/>
    <use xlink:href="#DejaVuSans-56" transform="translate(1563.46875 0)"/>
    <use xlink:href="#DejaVuSans-1e" transform="translate(1615.5625 0)"/>
    <use xlink:href="#DejaVuSans-3" transform="translate(1649.25 0)"/>
    <use xlink:href="#DejaVuSans-45" transform="translate(1681.03125 0)"/>
    <use xlink:href="#DejaVuSans-44" transform="translate(1744.515625 0)"/>
    <use xlink:href="#DejaVuSans-55" transform="translate(1805.796875 0)"/>
    <use xlink:href="#DejaVuSans-56" transform="translate(1846.90625 0)"/>
    <use xlink:href="#DejaVuSans-3" transform="translate(1899 0)"/>
    <use xlink:href="#DejaVuSans-44" transform="translate(1930.78125 0)"/>
    <use xlink:href="#DejaVuSans-55" transform="translate(1992.0625 0)"/>
    <use xlink:href="#DejaVuSans-48" transform="translate(2030.96875 0)"/>
    <use xlink:href="#DejaVuSans-3" transform="translate(2092.5 0)"/>
    <use xlink:href="#DejaVuSans-45" transform="translate(2124.28125 0)"/>
    <use xlink:href="#DejaVuSans-52" transform="translate(2187.765625 0)"/>
    <use xlink:href="#DejaVuSans-52" transform="translate(2248.953125 0)"/>
    <use xlink:href="#DejaVuSans-57" transform="translate(2310.140625 0)"/>
    <use xlink:href="#DejaVuSans-56" transform="translate(2349.34375 0)"/>
    <use xlink:href="#DejaVuSans-57" transform="translate(2401.4375 0)"/>
    <use xlink:href="#DejaVuSans-55" transform="translate(2440.640625 0)"/>
    <use xlink:href="#DejaVuSans-44" transform="translate(2481.75 0)"/>
    <use xlink:href="#DejaVuSans-53" transform="translate(2543.03125 0)"/>
    <use xlink:href="#DejaVuSans-3" transform="translate(2606.515625 0)"/>
    <use xlink:href="#DejaVuSans-1c" transform="translate(2638.296875 0)"/>
    <use xlink:href="#DejaVuSans-18" transform="translate(2701.921875 0)"/>
    <use xlink:href="#DejaVuSans-8" transform="translate(2765.546875 0)"/>
    <use xlink:href="#DejaVuSans-3" transform="translate(2860.5625 0)"/>
    <use xlink:href="#DejaVuSans-4c" transform="translate(2892.34375 0)"/>
    <use xlink:href="#DejaVuSans-51" transform="translate(2920.125 0)"/>
    <use xlink:href="#DejaVuSans-57" transform="translate(2983.5 0)"/>
    <use xlink:href="#DejaVuSans-48" transform="translate(3022.703125 0)"/>
    <use xlink:href="#DejaVuSans-55" transform="translate(3084.234375 0)"/>
    <use xlink:href="#DejaVuSans-59" transform="translate(3125.34375 0)"/>
    <use xlink:href="#DejaVuSans-44" transform="translate(3184.53125 0)"/>
    <use xlink:href="#DejaVuSans-4f" transform="translate(3245.8125 0)"/>
    <use xlink:href="#DejaVuSans-56" transform="translate(3273.59375 0)"/>
    <use xlink:href="#DejaVuSans-3" transform="translate(3325.6875 0)"/>
    <use xlink:href="#DejaVuSans-5a" transform="translate(3357.46875 0)"/>
    <use xlink:href="#DejaVuSans-4c" transform="translate(3439.25 0)"/>
    <use xlink:href="#DejaVuSans-57" transform="translate(3467.03125 0)"/>
    <use xlink:href="#DejaVuSans-4b" transform="translate(3506.234375 0)"/>
    <use xlink:href="#DejaVuSans-4c" transform="translate(3569.609375 0)"/>
    <use xlink:href="#DejaVuSans-51" transform="translate(3597.390625 0)"/>
    <use xlink:href="#DejaVuSans-3" transform="translate(3660.765625 0)"/>
    <use xlink:href="#DejaVuSans-48" transform="translate(3692.546875 0)"/>
    <use xlink:href="#DejaVuSans-44" transform="translate(3754.078125 0)"/>
    <use xlink:href="#DejaVuSans-46" transform="translate(3815.359375 0)"/>
    <use xlink:href="#DejaVuSans-4b" transform="translate(3870.34375 0)"/>
    <use xlink:href="#DejaVuSans-3" transform="translate(3933.71875 0)"/>
    <use xlink:href="#DejaVuSans-56" transform="translate(3965.5 0)"/>
    <use xlink:href="#DejaVuSans-58" transform="translate(4017.59375 0)"/>
    <use xlink:href="#DejaVuSans-45" transform="translate(4080.96875 0)"/>
    <use xlink:href="#DejaVuSans-4a" transform="translate(4144.453125 0)"/>
    <use xlink:href="#DejaVuSans-55" transform="translate(4207.9375 0)"/>
    <use xlink:href="#DejaVuSans-52" transform="translate(4246.84375 0)"/>
    <use xlink:href="#DejaVuSans-58" transform="translate(4308.03125 0)"/>
    <use xlink:href="#DejaVuSans-53" transform="translate(4371.40625 0)"/>
    <use xlink:href="#DejaVuSans-11" transform="translate(4434.890625 0)"/>
   </g>
  </g>
 </g>
 <defs>
  <clipPath id="p0ed10ddb63">
   <rect x="146.703125" y="22.318125" width="546.84" height="360.36"/>
  </clipPath>
 </defs>
</svg>
